SplineFontDB: 3.2
FontName: OptimaNovaLTPro-Regular
FullName: Optima nova LT Pro Regular
FamilyName: Optima nova LT Pro
Weight: Regular
Copyright: Copyright (c) 2003 - 2008 Linotype GmbH, www.linotype.com. All rights reserved. This font software may not be reproduced, modified, disclosed or transferred without the express written approval of Linotype GmbH. Optima is a trademark of Linotype GmbH registered in the U.S. Patent and Trademark Office and may be registered in certain other jurisdictions. This typeface is original artwork of Hermann Zapf and Akira Kobayashi. The design may be protected in certain jurisdictions.
Version: 001.002
ItalicAngle: 0
UnderlinePosition: -100
UnderlineWidth: 50
Ascent: 748
Descent: 252
InvalidEm: 0
sfntRevision: 0x00013333
LayerCount: 2
Layer: 0 0 "Warstwa t+AUIA-a" 1
Layer: 1 0 "Plan pierwszy" 0
XUID: [1021 354 -1132248829 15255]
StyleMap: 0x0040
FSType: 4
OS2Version: 2
OS2_WeightWidthSlopeOnly: 0
OS2_UseTypoMetrics: 0
CreationTime: 1231342277
ModificationTime: 1233943631
PfmFamily: 17
TTFWeight: 400
TTFWidth: 5
LineGap: 244
VLineGap: 0
Panose: 2 14 5 2 6 5 4 2 3 3
OS2TypoAscent: 748
OS2TypoAOffset: 0
OS2TypoDescent: -252
OS2TypoDOffset: 0
OS2TypoLinegap: 244
OS2WinAscent: 965
OS2WinAOffset: 0
OS2WinDescent: 277
OS2WinDOffset: 0
HheadAscent: 748
HheadAOffset: 0
HheadDescent: -252
HheadDOffset: 0
OS2SubXSize: 650
OS2SubYSize: 600
OS2SubXOff: 0
OS2SubYOff: 75
OS2SupXSize: 700
OS2SupYSize: 650
OS2SupXOff: 0
OS2SupYOff: 477
OS2StrikeYSize: 50
OS2StrikeYPos: 280
OS2CapHeight: 683
OS2XHeight: 471
OS2Vendor: 'LINO'
OS2CodePages: 2000009b.00000000
OS2UnicodeRanges: 8000002f.5000204a.00000000.00000000
Lookup: 1 0 0 "'aalt' Dost+ARkA-p do wszystkich alternatyw w +AUIA-aci+AUQA-skie w tablicy 0" { "Podtablica 'aalt' Dost+ARkA-p do wszystkich alternatyw w +AUIA-aci+AUQA-skie w tablicy 0"  } ['aalt' ('latn' <'AFK ' 'DEU ' 'NLD ' 'ROM ' 'TRK ' 'dflt' > ) ]

StartChar: .notdef
Encoding: 65536 -1 0
Width: 512
GlyphClass: 1
Flags: MW
HStem: 0 50<50 462 50 512> 559 50<235.5 276.5> 667 51<50 462 462 462>
VStem: 0 50<50 667 50 718> 332 51<461.5 498> 462 50<50 50 50 667>
LayerCount: 2
Fore
SplineSet
222 117 m 1
 278 117 l 1
 278 184 l 1
 222 184 l 1
 222 117 l 1
225 234 m 1
 271 234 l 1
 271 269 273 293 277 306 c 0
 281 319 295 336 320 358 c 0
 371 405 383 435 383 478 c 0
 383 557 330 609 259 609 c 0
 187 609 133 567 124 472 c 1
 174 464 l 1
 182 532 215 559 256 559 c 0
 297 559 332 522 332 474 c 0
 332 449 325 432 282 391 c 0
 260 369 245 349 236 332 c 0
 227 315 223 288 223 251 c 1
 225 234 l 1
462 50 m 1
 50 50 l 1
 50 667 l 1
 462 667 l 1
 462 50 l 1
512 718 m 1
 0 718 l 1
 0 0 l 1
 512 0 l 1
 512 718 l 1
EndSplineSet
EndChar

StartChar: exclam
Encoding: 33 33 4
Width: 323
GlyphClass: 1
Flags: MW
HStem: -12 118<144 176> 678 20G<145 175.5>
VStem: 101 118<31 63> 107 107<601.5 659>
LayerCount: 2
Fore
SplineSet
175 170 m 1xd0
 145 170 l 1
 135 466 107 566 107 637 c 0
 107 681 130 698 160 698 c 0
 191 698 214 681 214 637 c 0
 214 566 188 466 175 170 c 1xd0
219 47 m 0xe0
 219 15 192 -12 160 -12 c 0
 128 -12 101 15 101 47 c 0
 101 79 128 106 160 106 c 0
 192 106 219 79 219 47 c 0xe0
EndSplineSet
Substitution2: "Podtablica 'smcp' Tekstowe na kapitaliki w +AUIA-aci+AUQA-skie w tablicy 5" exclam.sc
Substitution2: "Podtablica 'aalt' Dost+ARkA-p do wszystkich alternatyw w +AUIA-aci+AUQA-skie w tablicy 0" exclam.sc
EndChar

StartChar: quotedbl
Encoding: 34 34 5
Width: 338
GlyphClass: 1
Flags: MW
HStem: 709 20G<97.5 116 222.5 241>
VStem: 69 75<689.5 705> 194 75<689.5 705>
LayerCount: 2
Fore
SplineSet
269 695 m 0
 269 684 266 654 243 469 c 1
 220 469 l 1
 197 654 194 684 194 695 c 0
 194 715 213 729 232 729 c 0
 250 729 269 715 269 695 c 0
144 695 m 0
 144 684 141 654 118 469 c 1
 95 469 l 1
 72 654 69 684 69 695 c 0
 69 715 88 729 107 729 c 0
 125 729 144 715 144 695 c 0
EndSplineSet
AlternateSubs2: "Podtablica 'aalt' Dost+ARkA-p do wszystkich alternatyw w +AUIA-aci+AUQA-skie w tablicy 1" quotedbl quotesingle quoteleft quoteright quotedblleft quotedblright quotesinglbase quotedblbase guilsinglleft guilsinglright guillemotleft guillemotright
EndChar

StartChar: numbersign
Encoding: 35 35 6
Width: 538
GlyphClass: 1
Flags: MW
HStem: -1 21G 183 61<119.5 123 181 296 119.5 167 354 357.5> 445 61<166.5 194 180 224 237 353 410 410.5>
VStem: 80 53<4.29497e+009 4.29497e+009> 221 53<659 659> 254 53<4.29497e+009 4.29497e+009> 394 53<659 659>
LayerCount: 2
Fore
SplineSet
503 508 m 1xfa
 498 491 489 451 490 441 c 1
 470 443 424 445 397 445 c 1
 354 244 l 1
 397 244 429 244 447 246 c 1
 441 231 435 199 434 179 c 1
 415 181 375 183 340 183 c 1
 323 103 312 41 307 -1 c 1
 298 0 291 0 283 0 c 0
 274 0 264 0 254 -1 c 1
 266 36 282 111 296 183 c 1xf6
 167 183 l 1
 152 115 139 38 133 -1 c 1
 124 0 117 0 109 0 c 0
 100 0 90 0 80 -1 c 1
 92 36 111 121 123 183 c 1
 86 183 60 183 31 181 c 1
 38 204 44 235 45 248 c 1
 64 246 102 244 137 244 c 1
 180 445 l 1
 153 445 118 445 87 443 c 1
 92 456 100 491 101 510 c 1
 124 508 166 506 194 506 c 1
 207 577 214 616 221 659 c 1
 229 658 236 658 244 658 c 0
 253 658 263 658 274 659 c 1
 261 620 251 577 237 506 c 1
 367 506 l 1
 381 584 387 616 394 659 c 1
 402 658 409 658 417 658 c 0
 426 658 436 658 447 659 c 1
 434 620 424 577 410 506 c 1
 445 506 475 506 503 508 c 1xfa
353 445 m 1
 224 445 l 1
 181 244 l 1
 310 244 l 1
 353 445 l 1
EndSplineSet
Substitution2: "Podtablica 'salt' Alternatywy stylistyczne w +AUIA-aci+AUQA-skie w tablicy 29" numbersign.alt
EndChar

StartChar: dollar
Encoding: 36 36 7
Width: 556
GlyphClass: 1
Flags: MW
HStem: 1 37<225.5 257> 644 35<257 257> 645 36<295 326.5>
VStem: 87 75<493 551.5> 257 38<-10 1 -10 40 40 302 403 644 644 644 681 691.5> 399 75<147 205>
LayerCount: 2
Fore
SplineSet
474 197 m 0xbc
 474 97 410 20 295 4 c 1
 295 -24 296 -80 299 -114 c 1
 289 -113 283 -113 275 -113 c 0
 268 -113 261 -113 252 -114 c 1
 255 -79 257 -24 257 1 c 1
 194 1 111 19 71 44 c 1
 76 71 83 107 91 137 c 1
 107 138 l 1
 126 70 180 38 257 38 c 1
 257 316 l 1
 171 352 87 386 87 503 c 0
 87 600 160 670 257 679 c 1
 257 704 255 734 252 755 c 1
 261 754 268 754 275 754 c 0
 283 754 289 754 299 755 c 1
 296 735 295 705 295 681 c 1
 358 681 419 665 457 643 c 1
 447 620 439 596 432 568 c 1
 418 567 l 1
 404 611 364 644 295 645 c 1
 295 390 l 1
 403 347 474 310 474 197 c 0xbc
257 403 m 1
 257 644 l 1xdc
 201 637 162 588 162 525 c 0
 162 461 195 427 257 403 c 1
399 170 m 0
 399 240 359 275 295 302 c 1
 295 40 l 1
 350 47 399 93 399 170 c 0
EndSplineSet
Substitution2: "Podtablica 'smcp' Tekstowe na kapitaliki w +AUIA-aci+AUQA-skie w tablicy 5" dollar.sc
Substitution2: "Podtablica 'aalt' Dost+ARkA-p do wszystkich alternatyw w +AUIA-aci+AUQA-skie w tablicy 0" dollar.sc
EndChar

StartChar: percent
Encoding: 37 37 8
Width: 746
GlyphClass: 1
Flags: MW
HStem: -10 21G<137 137> -9 25<522 580 522 599> 284 24<520.5 580> 371 25<168 226 168 245> 664 24<166.5 226> 675 20G
VStem: 50 68<494 570.5 494 574> 276 66<494 568> 404 68<114 190.5 114 194> 630 66<114 188>
LayerCount: 2
Fore
SplineSet
118 531 m 0x7bc0
 118 457 140 396 196 396 c 0
 256 396 276 457 276 531 c 0
 276 605 256 664 196 664 c 0
 137 664 118 610 118 531 c 0x7bc0
50 531 m 0
 50 617 92 688 196 688 c 0
 312 688 342 617 342 531 c 0
 342 448 294 371 196 371 c 0
 91 371 50 440 50 531 c 0
472 151 m 0
 472 77 494 16 550 16 c 0
 610 16 630 77 630 151 c 0
 630 225 610 284 550 284 c 0
 491 284 472 230 472 151 c 0
404 151 m 0
 404 237 446 308 550 308 c 0
 666 308 696 237 696 151 c 0
 696 68 648 -9 550 -9 c 0
 445 -9 404 60 404 151 c 0
137 -10 m 1x77c0
 94 8 l 1xbbc0
 209 155 515 575 596 695 c 1
 641 675 l 1
 539 545 236 133 137 -10 c 1x77c0
EndSplineSet
Ligature2: "Podtablica Podstawienie ligatur+AQUA w tablicy 32" zero.onum fraction zero.onum
Ligature2: "Podtablica Podstawienie ligatur+AQUA w tablicy 32" zero.onum fraction zero.sc
Ligature2: "Podtablica Podstawienie ligatur+AQUA w tablicy 32" zero.onum fraction zero
Ligature2: "Podtablica Podstawienie ligatur+AQUA w tablicy 32" zero.sc fraction zero.onum
Ligature2: "Podtablica Podstawienie ligatur+AQUA w tablicy 32" zero.sc fraction zero.sc
Ligature2: "Podtablica Podstawienie ligatur+AQUA w tablicy 32" zero.sc fraction zero
Ligature2: "Podtablica Podstawienie ligatur+AQUA w tablicy 32" zero fraction zero.onum
Ligature2: "Podtablica Podstawienie ligatur+AQUA w tablicy 32" zero fraction zero.sc
Ligature2: "Podtablica Podstawienie ligatur+AQUA w tablicy 32" zero fraction zero
Substitution2: "Podtablica 'smcp' Tekstowe na kapitaliki w +AUIA-aci+AUQA-skie w tablicy 5" percent.sc
Substitution2: "Podtablica 'aalt' Dost+ARkA-p do wszystkich alternatyw w +AUIA-aci+AUQA-skie w tablicy 0" percent.sc
EndChar

StartChar: ampersand
Encoding: 38 38 9
Width: 731
GlyphClass: 1
Flags: MW
HStem: -17 49<260.5 314.5> -3 21G 0 21G<648 673> 648 29<315.5 376>
VStem: 68 90<150 231.5> 181 81<531.5 575.5> 430 61<517 572>
LayerCount: 2
Fore
SplineSet
672 329 m 1x9a
 642 271 595 198 545 141 c 1
 587 93 648 29 676 5 c 1
 673 0 l 1x3a
 623 0 583 -1 550 -3 c 1x5a
 537 16 512 46 484 79 c 1
 426 23 362 -17 267 -17 c 0
 154 -17 68 50 68 177 c 0x9a
 68 286 160 347 247 377 c 1
 208 430 181 480 181 530 c 0x9e
 181 621 248 677 351 677 c 0
 432 677 491 636 491 555 c 0
 491 457 408 411 344 385 c 1
 389 325 467 230 522 168 c 1
 567 221 609 302 630 369 c 1
 636 369 l 1
 646 355 661 338 672 329 c 1x9a
430 551 m 0
 430 593 408 648 344 648 c 0
 287 648 262 605 262 556 c 0x9e
 262 507 293 453 327 408 c 1
 393 437 430 483 430 551 c 0
462 105 m 1
 402 177 313 289 265 352 c 1
 210 328 158 283 158 198 c 0
 158 102 215 32 306 32 c 0
 370 32 426 68 462 105 c 1
EndSplineSet
Substitution2: "Podtablica 'smcp' Tekstowe na kapitaliki w +AUIA-aci+AUQA-skie w tablicy 5" ampersand.sc
Substitution2: "Podtablica 'aalt' Dost+ARkA-p do wszystkich alternatyw w +AUIA-aci+AUQA-skie w tablicy 0" ampersand.sc
EndChar

StartChar: quotesingle
Encoding: 39 39 10
Width: 213
GlyphClass: 1
Flags: MW
HStem: 709 20G<97.5 116>
VStem: 69 75<689.5 705>
LayerCount: 2
Fore
SplineSet
144 695 m 0
 144 684 141 653 118 469 c 1
 95 469 l 1
 72 654 69 684 69 695 c 0
 69 715 88 729 107 729 c 0
 125 729 144 715 144 695 c 0
EndSplineSet
AlternateSubs2: "Podtablica 'aalt' Dost+ARkA-p do wszystkich alternatyw w +AUIA-aci+AUQA-skie w tablicy 1" quotedbl quotesingle quoteleft quoteright quotedblleft quotedblright quotesinglbase quotedblbase guilsinglleft guilsinglright guillemotleft guillemotright
EndChar

StartChar: parenleft
Encoding: 40 40 11
Width: 293
GlyphClass: 1
Flags: MW
HStem: -103 882<223 223>
VStem: 52 73<255 421 255 421>
LayerCount: 2
Fore
SplineSet
246 -91 m 1
 223 -103 l 1
 115 -2 52 166 52 338 c 0
 52 504 115 679 223 779 c 1
 246 766 l 1
 159 650 125 504 125 338 c 0
 125 172 159 26 246 -91 c 1
EndSplineSet
Substitution2: "Podtablica 'salt' Alternatywy stylistyczne w +AUIA-aci+AUQA-skie w tablicy 29" parenleft.alt
EndChar

StartChar: parenright
Encoding: 41 41 12
Width: 293
GlyphClass: 1
Flags: MW
HStem: -103 882<70 70>
VStem: 168 73<255 421>
LayerCount: 2
Fore
SplineSet
241 338 m 0
 241 166 178 -2 70 -103 c 1
 47 -91 l 1
 134 26 168 172 168 338 c 0
 168 504 134 650 47 766 c 1
 70 779 l 1
 178 679 241 504 241 338 c 0
EndSplineSet
Substitution2: "Podtablica 'salt' Alternatywy stylistyczne w +AUIA-aci+AUQA-skie w tablicy 29" parenright.alt
EndChar

StartChar: asterisk
Encoding: 42 42 13
Width: 442
GlyphClass: 1
Flags: MW
HStem: 664 20G
VStem: 206 30<592 592>
LayerCount: 2
Fore
SplineSet
393 503 m 1
 388 497 382 487 376 477 c 0
 370 468 366 457 363 450 c 1
 331 479 273 518 236 542 c 1
 238 499 244 428 251 386 c 1
 244 387 232 388 221 388 c 0
 210 388 198 387 191 386 c 1
 200 428 204 498 207 542 c 1
 170 518 112 477 79 450 c 1
 76 457 71 468 66 478 c 0
 60 487 54 497 49 503 c 1
 90 516 153 547 192 567 c 1
 153 587 89 616 49 631 c 1
 54 637 60 647 66 657 c 0
 72 666 76 677 79 684 c 1
 111 655 169 616 206 592 c 1
 204 635 198 706 191 748 c 1
 198 747 210 746 221 746 c 0
 232 746 244 747 251 748 c 1
 242 706 238 636 236 592 c 1
 273 616 330 657 363 684 c 1
 366 677 371 666 376 656 c 0
 382 647 388 637 393 631 c 1
 352 618 289 587 250 567 c 1
 289 547 353 518 393 503 c 1
EndSplineSet
EndChar

StartChar: plus
Encoding: 43 43 14
Width: 480
GlyphClass: 1
Flags: MW
HStem: 281 39<186.5 219 208 219 262 271>
VStem: 219 43<271 281 247.5 281 320 334>
LayerCount: 2
Fore
SplineSet
443 277 m 1
 398 280 312 281 271 281 c 2
 262 281 l 1
 262 271 l 2
 262 224 263 136 267 88 c 1
 267 88 251 90 241 90 c 0
 231 90 215 88 215 88 c 1
 218 136 219 226 219 271 c 2
 219 281 l 1
 208 281 l 2
 165 281 82 279 37 276 c 1
 37 276 38 289 38 300 c 0
 38 311 37 324 37 324 c 1
 82 321 165 320 208 320 c 2
 219 320 l 1
 219 334 l 2
 219 379 218 466 214 514 c 1
 214 514 229 512 240 512 c 0
 250 512 266 514 266 514 c 1
 263 466 262 378 262 334 c 2
 262 320 l 1
 271 320 l 2
 315 320 398 321 443 325 c 1
 443 325 442 312 442 301 c 0
 442 289 443 277 443 277 c 1
EndSplineSet
EndChar

StartChar: comma
Encoding: 44 44 15
Width: 260
GlyphClass: 1
Flags: MW
HStem: -168 285<37 149>
VStem: 15 167
LayerCount: 2
Fore
SplineSet
182 86 m 0
 182 77 180 68 172 56 c 0
 141 2 66 -122 37 -168 c 1
 16 -164 l 1
 15 -162 l 1
 43 -83 79 26 93 79 c 0
 99 100 106 117 137 117 c 0
 161 117 182 109 182 86 c 0
EndSplineSet
EndChar

StartChar: hyphen
Encoding: 45 45 16
Width: 343
GlyphClass: 1
Flags: MW
HStem: 226 66<46 298 46 298>
VStem: 46 252<226 292 226 292>
LayerCount: 2
Fore
SplineSet
298 226 m 1
 46 226 l 1
 46 292 l 1
 298 292 l 1
 298 226 l 1
EndSplineSet
AlternateSubs2: "Podtablica 'aalt' Dost+ARkA-p do wszystkich alternatyw w +AUIA-aci+AUQA-skie w tablicy 1" hyphen uni00AD endash emdash minus
EndChar

StartChar: period
Encoding: 46 46 17
Width: 260
GlyphClass: 1
Flags: MW
HStem: -12 118<114 146>
VStem: 71 118<31 63>
LayerCount: 2
Fore
SplineSet
189 47 m 0
 189 15 162 -12 130 -12 c 0
 98 -12 71 15 71 47 c 0
 71 79 98 106 130 106 c 0
 162 106 189 79 189 47 c 0
EndSplineSet
EndChar

StartChar: slash
Encoding: 47 47 18
Width: 500
GlyphClass: 1
Flags: MW
HStem: -129 897<55 446>
VStem: 6 489
LayerCount: 2
Fore
SplineSet
495 761 m 1
 452 679 392 559 347 469 c 2
 189 152 l 2
 146 65 91 -48 55 -129 c 1
 6 -122 l 1
 49 -40 109 80 154 170 c 2
 312 487 l 2
 355 574 409 687 446 768 c 1
 495 761 l 1
EndSplineSet
Substitution2: "Podtablica 'frac' U+AUIA-amki uko+AVsA-ne w +AUIA-aci+AUQA-skie w tablicy 18" fraction
Substitution2: "Podtablica 'aalt' Dost+ARkA-p do wszystkich alternatyw w +AUIA-aci+AUQA-skie w tablicy 0" fraction
EndChar

StartChar: zero
Encoding: 48 48 19
Width: 625
GlyphClass: 1
Flags: MW
HStem: -17 34<255.5 369.5 255.5 398.5> 667 30<255.5 369.5>
VStem: 65 96<253.5 439> 464 96<253.5 435>
LayerCount: 2
Fore
SplineSet
560 342 m 0
 560 155 484 -17 313 -17 c 0
 111 -17 65 149 65 342 c 0
 65 536 128 697 313 697 c 0
 515 697 560 536 560 342 c 0
464 344 m 0
 464 526 426 667 313 667 c 0
 198 667 161 539 161 344 c 0
 161 163 198 17 313 17 c 0
 426 17 464 163 464 344 c 0
EndSplineSet
Substitution2: "Podtablica 'sups' Frakcja g+APMA-rna w +AUIA-aci+AUQA-skie w tablicy 19" zero
Substitution2: "Podtablica 'tnum' Cyfry tabelaryczne w +AUIA-aci+AUQA-skie w tablicy 16" zero.tab
Substitution2: "Podtablica 'c2sc' Wersaliki na kapitaliki w +AUIA-aci+AUQA-skie w tablicy 8" zero.sc
Substitution2: "Podtablica 'smcp' Tekstowe na kapitaliki w +AUIA-aci+AUQA-skie w tablicy 5" zero.sc
Substitution2: "Podtablica 'onum' Cyfry nautyczne w +AUIA-aci+AUQA-skie w tablicy 4" zero.onum
AlternateSubs2: "Podtablica 'aalt' Dost+ARkA-p do wszystkich alternatyw w +AUIA-aci+AUQA-skie w tablicy 1" zero.sc zero zero.onum zero.tab
EndChar

StartChar: one
Encoding: 49 49 20
Width: 355
GlyphClass: 1
Flags: MW
HStem: -2 21G 620 27<3 147 3 3> 671 20G<240 240> 675 20G<232 232>
VStem: 147 85<352 430>
LayerCount: 2
Fore
SplineSet
232 695 m 1xd8
 240 691 l 1xe8
 234 621 232 519 232 430 c 2
 232 258 l 2
 232 165 234 82 241 -2 c 1
 227 -1 207 0 189 0 c 0
 174 0 153 -1 137 -2 c 1
 145 82 147 228 147 352 c 2
 147 620 l 1
 3 620 l 1
 3 647 l 1
 105 659 184 677 232 695 c 1xd8
EndSplineSet
Substitution2: "Podtablica 'sups' Frakcja g+APMA-rna w +AUIA-aci+AUQA-skie w tablicy 20" onesuperior
Substitution2: "Podtablica 'sups' Frakcja g+APMA-rna w +AUIA-aci+AUQA-skie w tablicy 19" one
Substitution2: "Podtablica 'tnum' Cyfry tabelaryczne w +AUIA-aci+AUQA-skie w tablicy 16" one.tab
Substitution2: "Podtablica 'c2sc' Wersaliki na kapitaliki w +AUIA-aci+AUQA-skie w tablicy 8" one.sc
Substitution2: "Podtablica 'smcp' Tekstowe na kapitaliki w +AUIA-aci+AUQA-skie w tablicy 5" one.sc
Substitution2: "Podtablica 'onum' Cyfry nautyczne w +AUIA-aci+AUQA-skie w tablicy 4" one.onum
AlternateSubs2: "Podtablica 'aalt' Dost+ARkA-p do wszystkich alternatyw w +AUIA-aci+AUQA-skie w tablicy 1" one.sc one onesuperior one.onum one.tab
EndChar

StartChar: two
Encoding: 50 50 21
Width: 523
GlyphClass: 1
Flags: MW
HStem: -2 75 659 38<205 273.5>
VStem: 352 99<469 549.5>
LayerCount: 2
Fore
SplineSet
461 -2 m 1
 385 0 305 1 233 1 c 0
 157 1 86 0 13 -2 c 1
 13 18 l 1
 296 275 352 372 352 505 c 0
 352 594 313 659 234 659 c 0
 155 659 115 600 108 537 c 1
 91 535 l 1
 80 559 64 584 53 597 c 1
 91 657 160 697 250 697 c 0
 376 697 451 631 451 515 c 0
 451 423 407 351 319 265 c 0
 264 212 187 132 133 74 c 1
 166 73 206 73 239 73 c 0
 314 73 422 76 461 81 c 1
 460 62 460 48 460 38 c 0
 460 27 460 15 461 -2 c 1
EndSplineSet
Substitution2: "Podtablica 'sups' Frakcja g+APMA-rna w +AUIA-aci+AUQA-skie w tablicy 20" twosuperior
Substitution2: "Podtablica 'sups' Frakcja g+APMA-rna w +AUIA-aci+AUQA-skie w tablicy 19" two
Substitution2: "Podtablica 'tnum' Cyfry tabelaryczne w +AUIA-aci+AUQA-skie w tablicy 16" two.tab
Substitution2: "Podtablica 'c2sc' Wersaliki na kapitaliki w +AUIA-aci+AUQA-skie w tablicy 8" two.sc
Substitution2: "Podtablica 'smcp' Tekstowe na kapitaliki w +AUIA-aci+AUQA-skie w tablicy 5" two.sc
Substitution2: "Podtablica 'onum' Cyfry nautyczne w +AUIA-aci+AUQA-skie w tablicy 4" two.onum
AlternateSubs2: "Podtablica 'aalt' Dost+ARkA-p do wszystkich alternatyw w +AUIA-aci+AUQA-skie w tablicy 1" two.sc two twosuperior two.onum two.tab
EndChar

StartChar: three
Encoding: 51 51 22
Width: 503
GlyphClass: 1
Flags: MW
HStem: -17 38<152 234 148 262.5> 339 38<194 244.5> 662 35<186 249>
VStem: 155 116 327 91<497.5 572.5> 344 99<141.5 244>
LayerCount: 2
Fore
SplineSet
443 202 m 0xf4
 443 70 339 -17 186 -17 c 0
 118 -17 58 0 22 20 c 1
 27 37 38 86 42 117 c 1
 59 118 l 1
 74 54 114 21 182 21 c 0
 286 21 344 91 344 192 c 0xf4
 344 296 288 339 201 339 c 0
 187 339 168 336 155 333 c 1
 156 344 156 350 156 356 c 0
 156 362 156 370 155 379 c 1
 165 378 185 377 200 377 c 0
 298 377 327 461 327 534 c 0
 327 611 285 662 213 662 c 0
 150 662 114 617 108 561 c 1
 90 560 l 1
 77 593 65 616 55 631 c 1
 88 664 149 697 223 697 c 0
 324 697 418 655 418 541 c 0xf8
 418 439 351 384 271 367 c 1
 271 363 l 1
 340 357 443 324 443 202 c 0xf4
EndSplineSet
Substitution2: "Podtablica 'sups' Frakcja g+APMA-rna w +AUIA-aci+AUQA-skie w tablicy 20" threesuperior
Substitution2: "Podtablica 'sups' Frakcja g+APMA-rna w +AUIA-aci+AUQA-skie w tablicy 19" three
Substitution2: "Podtablica 'tnum' Cyfry tabelaryczne w +AUIA-aci+AUQA-skie w tablicy 16" three.tab
Substitution2: "Podtablica 'c2sc' Wersaliki na kapitaliki w +AUIA-aci+AUQA-skie w tablicy 8" three.sc
Substitution2: "Podtablica 'smcp' Tekstowe na kapitaliki w +AUIA-aci+AUQA-skie w tablicy 5" three.sc
Substitution2: "Podtablica 'onum' Cyfry nautyczne w +AUIA-aci+AUQA-skie w tablicy 4" three.onum
AlternateSubs2: "Podtablica 'aalt' Dost+ARkA-p do wszystkich alternatyw w +AUIA-aci+AUQA-skie w tablicy 1" three.sc three threesuperior three.onum three.tab
EndChar

StartChar: four
Encoding: 52 52 23
Width: 542
GlyphClass: 1
Flags: MW
HStem: -2 21G 189 56<186 211 211 331 411 432.5> 664 20G
VStem: 331 80<148 189 121.5 189 245 317.5>
LayerCount: 2
Fore
SplineSet
512 185 m 1
 488 187 454 189 411 189 c 1
 411 148 l 2
 411 95 414 37 417 -2 c 1
 407 -1 386 0 370 0 c 0
 353 0 338 -1 324 -2 c 1
 329 46 331 97 331 148 c 2
 331 189 l 1
 211 189 l 2
 161 189 90 188 19 186 c 1
 19 213 l 1
 122 354 276 572 347 684 c 1
 358 683 371 682 382 682 c 0
 393 682 408 683 418 684 c 1
 412 569 411 390 411 245 c 1
 454 245 488 247 512 250 c 1
 511 234 511 225 511 219 c 0
 511 212 511 201 512 185 c 1
331 245 m 1
 331 589 l 1
 329 589 l 1
 270 507 142 323 91 245 c 1
 331 245 l 1
EndSplineSet
Substitution2: "Podtablica 'sups' Frakcja g+APMA-rna w +AUIA-aci+AUQA-skie w tablicy 19" four
Substitution2: "Podtablica 'tnum' Cyfry tabelaryczne w +AUIA-aci+AUQA-skie w tablicy 16" four.tab
Substitution2: "Podtablica 'c2sc' Wersaliki na kapitaliki w +AUIA-aci+AUQA-skie w tablicy 8" four.sc
Substitution2: "Podtablica 'smcp' Tekstowe na kapitaliki w +AUIA-aci+AUQA-skie w tablicy 5" four.sc
Substitution2: "Podtablica 'onum' Cyfry nautyczne w +AUIA-aci+AUQA-skie w tablicy 4" four.onum
AlternateSubs2: "Podtablica 'aalt' Dost+ARkA-p do wszystkich alternatyw w +AUIA-aci+AUQA-skie w tablicy 1" four.sc four four.onum four.tab
EndChar

StartChar: five
Encoding: 53 53 24
Width: 504
GlyphClass: 1
Flags: MW
HStem: -17 37<156.5 235.5 156.5 264> 368 41<214.5 244> 606 76<97 182>
VStem: 92 47 348 97<150 263.5>
LayerCount: 2
Fore
SplineSet
445 220 m 0
 445 80 340 -17 188 -17 c 0
 124 -17 62 -4 21 24 c 1
 27 43 39 88 43 119 c 1
 61 120 l 1
 72 52 121 20 192 20 c 0
 279 20 348 87 348 206 c 0
 348 321 283 368 205 368 c 0
 154 368 113 348 96 333 c 1
 83 340 l 1
 89 388 92 455 92 506 c 0
 92 563 91 639 88 676 c 1
 97 682 l 1
 144 679 192 678 253 678 c 0
 334 678 392 680 424 682 c 1
 423 668 423 651 423 640 c 0
 423 630 423 613 424 599 c 1
 345 604 225 606 139 606 c 1
 134 541 128 442 127 385 c 1
 156 399 194 409 235 409 c 0
 370 409 445 325 445 220 c 0
EndSplineSet
Substitution2: "Podtablica 'sups' Frakcja g+APMA-rna w +AUIA-aci+AUQA-skie w tablicy 19" five
Substitution2: "Podtablica 'tnum' Cyfry tabelaryczne w +AUIA-aci+AUQA-skie w tablicy 16" five.tab
Substitution2: "Podtablica 'c2sc' Wersaliki na kapitaliki w +AUIA-aci+AUQA-skie w tablicy 8" five.sc
Substitution2: "Podtablica 'smcp' Tekstowe na kapitaliki w +AUIA-aci+AUQA-skie w tablicy 5" five.sc
Substitution2: "Podtablica 'onum' Cyfry nautyczne w +AUIA-aci+AUQA-skie w tablicy 4" five.onum
AlternateSubs2: "Podtablica 'aalt' Dost+ARkA-p do wszystkich alternatyw w +AUIA-aci+AUQA-skie w tablicy 1" five.sc five five.onum five.tab
EndChar

StartChar: six
Encoding: 54 54 25
Width: 583
GlyphClass: 1
Flags: MW
HStem: -17 33<250.5 337 250.5 369> 374 45<285.5 354.5> 662 35<283.5 392.5> 664 20G
VStem: 65 92<319 319 319 391.5> 429 94<154.5 244> 459 17<588 605>
LayerCount: 2
Fore
SplineSet
523 221 m 0xec
 523 88 444 -17 294 -17 c 0
 154 -17 65 75 65 280 c 0
 65 503 165 697 373 697 c 0xea
 417 697 463 690 485 684 c 1
 480 657 476 620 476 590 c 1xda
 459 588 l 1xea
 446 633 419 662 366 662 c 0
 201 662 160 441 157 319 c 1
 160 319 l 1
 180 356 238 419 333 419 c 0
 452 419 523 341 523 221 c 0xec
429 199 m 0
 429 289 406 374 303 374 c 0
 217 374 166 297 166 211 c 0
 166 107 206 16 295 16 c 0
 379 16 429 95 429 199 c 0
EndSplineSet
Substitution2: "Podtablica 'sups' Frakcja g+APMA-rna w +AUIA-aci+AUQA-skie w tablicy 19" six
Substitution2: "Podtablica 'tnum' Cyfry tabelaryczne w +AUIA-aci+AUQA-skie w tablicy 16" six.tab
Substitution2: "Podtablica 'c2sc' Wersaliki na kapitaliki w +AUIA-aci+AUQA-skie w tablicy 8" six.sc
Substitution2: "Podtablica 'smcp' Tekstowe na kapitaliki w +AUIA-aci+AUQA-skie w tablicy 5" six.sc
Substitution2: "Podtablica 'onum' Cyfry nautyczne w +AUIA-aci+AUQA-skie w tablicy 4" six.onum
AlternateSubs2: "Podtablica 'aalt' Dost+ARkA-p do wszystkich alternatyw w +AUIA-aci+AUQA-skie w tablicy 1" six.sc six six.onum six.tab
EndChar

StartChar: seven
Encoding: 55 55 26
Width: 513
GlyphClass: 1
Flags: MW
HStem: 0 21G<51 51 126 136> 603 72<340 375.5 291 411> 662 20G
VStem: 51 443
LayerCount: 2
Fore
SplineSet
494 657 m 1xd0
 376 456 251 231 146 26 c 0
 142 19 139 10 136 0 c 1
 116 0 79 -1 54 -3 c 1
 51 0 l 1
 179 204 338 473 411 603 c 1
 269 603 148 601 54 594 c 1
 55 607 56 624 56 639 c 0xd0
 56 653 55 666 54 682 c 1xb0
 135 677 236 675 346 675 c 0
 405 675 470 675 493 677 c 1
 494 657 l 1xd0
EndSplineSet
Substitution2: "Podtablica 'sups' Frakcja g+APMA-rna w +AUIA-aci+AUQA-skie w tablicy 19" seven
Substitution2: "Podtablica 'tnum' Cyfry tabelaryczne w +AUIA-aci+AUQA-skie w tablicy 16" seven.tab
Substitution2: "Podtablica 'c2sc' Wersaliki na kapitaliki w +AUIA-aci+AUQA-skie w tablicy 8" seven.sc
Substitution2: "Podtablica 'smcp' Tekstowe na kapitaliki w +AUIA-aci+AUQA-skie w tablicy 5" seven.sc
Substitution2: "Podtablica 'onum' Cyfry nautyczne w +AUIA-aci+AUQA-skie w tablicy 4" seven.onum
AlternateSubs2: "Podtablica 'aalt' Dost+ARkA-p do wszystkich alternatyw w +AUIA-aci+AUQA-skie w tablicy 1" seven.sc seven seven.onum seven.tab
EndChar

StartChar: eight
Encoding: 56 56 27
Width: 583
GlyphClass: 1
Flags: MW
HStem: -17 34<249 336.5 249 358.5> 363 35<254 332.5 254 336.5> 665 32<254 332.5>
VStem: 58 94<139.5 230> 94 87<495 566.5 495 578> 405 87<506 566.5> 432 92<141.5 243>
LayerCount: 2
Fore
SplineSet
524 206 m 0xf2
 524 68 425 -17 292 -17 c 0
 159 -17 58 56 58 185 c 0xf2
 58 275 101 349 219 381 c 1
 219 385 l 1
 156 400 94 442 94 531 c 0
 94 625 172 697 292 697 c 0
 430 697 492 626 492 544 c 0xec
 492 468 450 411 367 388 c 1
 367 384 l 1
 433 373 524 330 524 206 c 0xf2
405 530 m 0xec
 405 603 372 665 293 665 c 0
 215 665 181 603 181 530 c 0
 181 460 215 398 293 398 c 0
 372 398 405 460 405 530 c 0xec
292 363 m 0xf2
 201 363 152 292 152 190 c 0
 152 89 206 17 292 17 c 0
 381 17 432 91 432 192 c 0
 432 294 381 363 292 363 c 0xf2
EndSplineSet
Substitution2: "Podtablica 'sups' Frakcja g+APMA-rna w +AUIA-aci+AUQA-skie w tablicy 19" eight
Substitution2: "Podtablica 'tnum' Cyfry tabelaryczne w +AUIA-aci+AUQA-skie w tablicy 16" eight.tab
Substitution2: "Podtablica 'c2sc' Wersaliki na kapitaliki w +AUIA-aci+AUQA-skie w tablicy 8" eight.sc
Substitution2: "Podtablica 'smcp' Tekstowe na kapitaliki w +AUIA-aci+AUQA-skie w tablicy 5" eight.sc
Substitution2: "Podtablica 'onum' Cyfry nautyczne w +AUIA-aci+AUQA-skie w tablicy 4" eight.onum
AlternateSubs2: "Podtablica 'aalt' Dost+ARkA-p do wszystkich alternatyw w +AUIA-aci+AUQA-skie w tablicy 1" eight.sc eight eight.onum eight.tab
EndChar

StartChar: nine
Encoding: 57 57 28
Width: 583
GlyphClass: 1
Flags: MW
HStem: -17 21G<186 310.5> -17 37<187 294.5 187 310.5> 268 41<232.5 304> 664 33<245.5 334>
VStem: 60 95<438 535> 428 89<364 364>
LayerCount: 2
Fore
SplineSet
517 400 m 0x7c
 517 172 414 -17 207 -17 c 0x7c
 165 -17 117 -7 84 4 c 1
 87 29 90 67 91 101 c 1xbc
 109 103 l 1
 122 51 160 20 214 20 c 0
 375 20 427 229 428 364 c 1
 425 364 l 1
 406 324 350 268 258 268 c 0
 136 268 60 345 60 469 c 0
 60 601 141 697 291 697 c 0
 435 697 517 596 517 400 c 0x7c
419 480 m 0
 419 581 379 664 289 664 c 0
 202 664 155 590 155 486 c 0
 155 390 184 309 281 309 c 0
 377 309 419 408 419 480 c 0
EndSplineSet
Substitution2: "Podtablica 'sups' Frakcja g+APMA-rna w +AUIA-aci+AUQA-skie w tablicy 19" nine
Substitution2: "Podtablica 'tnum' Cyfry tabelaryczne w +AUIA-aci+AUQA-skie w tablicy 16" nine.tab
Substitution2: "Podtablica 'c2sc' Wersaliki na kapitaliki w +AUIA-aci+AUQA-skie w tablicy 8" nine.sc
Substitution2: "Podtablica 'smcp' Tekstowe na kapitaliki w +AUIA-aci+AUQA-skie w tablicy 5" nine.sc
Substitution2: "Podtablica 'onum' Cyfry nautyczne w +AUIA-aci+AUQA-skie w tablicy 4" nine.onum
AlternateSubs2: "Podtablica 'aalt' Dost+ARkA-p do wszystkich alternatyw w +AUIA-aci+AUQA-skie w tablicy 1" nine.sc nine nine.onum nine.tab
EndChar

StartChar: colon
Encoding: 58 58 29
Width: 300
GlyphClass: 1
Flags: MW
HStem: 0 118<134 166> 351 118<134 166>
VStem: 91 118<43 75 394 426>
LayerCount: 2
Fore
SplineSet
209 410 m 0
 209 378 182 351 150 351 c 0
 118 351 91 378 91 410 c 0
 91 442 118 469 150 469 c 0
 182 469 209 442 209 410 c 0
209 59 m 0
 209 27 182 0 150 0 c 0
 118 0 91 27 91 59 c 0
 91 91 118 118 150 118 c 0
 182 118 209 91 209 59 c 0
EndSplineSet
EndChar

StartChar: semicolon
Encoding: 59 59 30
Width: 300
GlyphClass: 1
Flags: MW
HStem: 351 118<134 166>
VStem: 91 118<394 426>
LayerCount: 2
Fore
SplineSet
209 410 m 0
 209 378 182 351 150 351 c 0
 118 351 91 378 91 410 c 0
 91 442 118 469 150 469 c 0
 182 469 209 442 209 410 c 0
202 86 m 0
 202 77 200 68 192 56 c 0
 161 2 85 -122 56 -168 c 1
 36 -164 l 1
 35 -162 l 1
 63 -83 99 26 113 79 c 0
 119 100 126 117 157 117 c 0
 181 117 202 109 202 86 c 0
EndSplineSet
EndChar

StartChar: less
Encoding: 60 60 31
Width: 480
GlyphClass: 1
Flags: MW
HStem: 91 414<395 395>
VStem: 42 377
LayerCount: 2
Fore
SplineSet
419 133 m 1
 409 121 401 106 395 91 c 1
 300 152 153 236 42 296 c 1
 42 300 l 1
 153 360 300 444 395 505 c 1
 401 490 409 475 419 463 c 1
 332 420 171 334 112 298 c 1
 171 262 332 176 419 133 c 1
EndSplineSet
EndChar

StartChar: equal
Encoding: 61 61 32
Width: 480
GlyphClass: 1
Flags: MW
HStem: 208 39<187.5 269 209 269> 349 39<187.5 269 209 269>
VStem: 37 406<203 204 204 251 204 344 204 392>
LayerCount: 2
Fore
SplineSet
443 345 m 1
 398 348 312 349 269 349 c 2
 209 349 l 2
 166 349 82 347 37 344 c 1
 37 344 38 357 38 368 c 0
 38 378 37 392 37 392 c 1
 82 389 166 388 209 388 c 2
 269 388 l 2
 314 388 398 390 443 393 c 1
 443 393 442 378 442 368 c 0
 442 358 443 345 443 345 c 1
443 204 m 1
 398 207 312 208 269 208 c 2
 209 208 l 2
 166 208 82 206 37 203 c 1
 37 203 38 217 38 227 c 0
 38 237 37 251 37 251 c 1
 82 248 166 247 209 247 c 2
 269 247 l 2
 314 247 398 249 443 252 c 1
 443 252 442 237 442 227 c 0
 442 217 443 204 443 204 c 1
EndSplineSet
EndChar

StartChar: greater
Encoding: 62 62 33
Width: 480
GlyphClass: 1
Flags: MW
HStem: 91 414<85 85>
VStem: 61 377
LayerCount: 2
Fore
SplineSet
438 296 m 1
 328 236 180 152 85 91 c 1
 80 106 71 121 61 133 c 1
 148 176 308 262 367 298 c 1
 308 334 148 420 61 463 c 1
 71 475 80 490 85 505 c 1
 180 444 328 360 438 300 c 1
 438 296 l 1
EndSplineSet
EndChar

StartChar: question
Encoding: 63 63 34
Width: 390
GlyphClass: 1
Flags: MW
HStem: -12 118<179 211> 181 32<214.5 231> 663 35<176.5 216>
VStem: 95 14<605 605> 102 69<251.5 292 251.5 319.5> 136 118<31 63> 272 78<554.5 604 528 604.5>
LayerCount: 2
Fore
SplineSet
350 567 m 0xea
 350 489 295 437 236 382 c 0
 195 342 171 313 171 271 c 0
 171 232 197 213 232 213 c 0
 253 213 269 220 282 232 c 1
 290 227 l 1
 284 215 279 201 276 190 c 1
 264 184 241 181 221 181 c 0
 156 181 102 213 102 290 c 0xea
 102 349 133 392 186 444 c 0
 240 497 272 530 272 579 c 0
 272 630 243 663 189 663 c 0
 147 663 121 639 109 605 c 1
 95 605 l 1
 94 628 90 653 86 668 c 1xf2
 110 683 153 698 200 698 c 0
 299 698 350 641 350 567 c 0xea
254 47 m 0xe6
 254 15 227 -12 195 -12 c 0
 163 -12 136 15 136 47 c 0
 136 79 163 106 195 106 c 0
 227 106 254 79 254 47 c 0xe6
EndSplineSet
Substitution2: "Podtablica 'smcp' Tekstowe na kapitaliki w +AUIA-aci+AUQA-skie w tablicy 5" question.sc
Substitution2: "Podtablica 'aalt' Dost+ARkA-p do wszystkich alternatyw w +AUIA-aci+AUQA-skie w tablicy 0" question.sc
EndChar

StartChar: at
Encoding: 64 64 35
Width: 1000
GlyphClass: 1
Flags: MW
HStem: -220 33<394 566.5 394 574.5> 0 34<665.5 726> 432 33<525.5 604 503 606> 631 28<441 683.5>
VStem: 81 78<47 284 47 289.5> 291 81<103.5 165 103.5 169> 568 72<64.5 78.5> 641 19 878 51<260.5 403>
LayerCount: 2
Fore
SplineSet
929 339 m 0
 929 182 817 0 635 0 c 0
 582 0 568 24 568 66 c 0
 568 91 581 142 586 156 c 1
 582 156 l 1xfe80
 545 106 464 0 370 0 c 0
 305 0 291 51 291 99 c 0
 291 239 427 465 579 465 c 0
 629 465 657 436 660 393 c 1
 667 411 676 439 683 461 c 1xfd80
 703 456 742 454 759 455 c 1
 720 375 640 147 640 80 c 0xfe80
 640 49 650 34 681 34 c 0
 779 34 878 170 878 317 c 0
 878 489 792 631 575 631 c 0
 307 631 159 404 159 164 c 0
 159 -70 296 -187 492 -187 c 0
 641 -187 777 -128 871 -9 c 1
 877 -14 l 1
 870 -45 l 1
 808 -132 663 -220 486 -220 c 0
 296 -220 81 -135 81 163 c 0
 81 416 251 659 576 659 c 0
 833 659 929 505 929 339 c 0
641 359 m 0
 641 390 629 432 583 432 c 0
 468 432 372 210 372 120 c 0
 372 87 379 56 419 56 c 0
 493 56 583 190 608 245 c 0
 625 284 641 342 641 359 c 0
EndSplineSet
EndChar

StartChar: A
Encoding: 65 65 36
Width: 655
GlyphClass: 1
Flags: MW
HStem: 0 21G<10 10 43.5 55.5 573.5 589 644 644> 263 43
VStem: 10 634<0 0>
LayerCount: 2
Fore
SplineSet
644 0 m 1
 641 -2 l 1
 624 -1 597 0 581 0 c 0
 566 0 548 -1 531 -2 c 1
 511 66 474 169 438 263 c 1
 403 264 349 264 305 264 c 0
 264 264 226 264 185 263 c 1
 142 161 104 60 86 -2 c 1
 75 -1 61 0 50 0 c 0
 37 0 21 -1 12 -2 c 1
 10 0 l 1
 121 227 237 469 340 701 c 1
 356 701 l 1
 446 468 594 105 644 0 c 1
422 306 m 1
 402 361 351 496 320 572 c 1
 290 508 232 379 202 306 c 1
 231 305 275 305 309 305 c 0
 346 305 394 305 422 306 c 1
EndSplineSet
Substitution2: "Podtablica Podstawienie pojedyncze w tablicy 30" ordfeminine
Substitution2: "Podtablica 'sups' Frakcja g+APMA-rna w +AUIA-aci+AUQA-skie w tablicy 22" ordfeminine
Substitution2: "Podtablica 'c2sc' Wersaliki na kapitaliki w +AUIA-aci+AUQA-skie w tablicy 8" a.sc
AlternateSubs2: "Podtablica 'aalt' Dost+ARkA-p do wszystkich alternatyw w +AUIA-aci+AUQA-skie w tablicy 1" a.sc ordfeminine
EndChar

StartChar: B
Encoding: 66 66 37
Width: 580
GlyphClass: 1
Flags: MW
HStem: -2 37<256 305 248.5 330> 343 37<185 226 185 231> 646 34 646 37<234 337.5>
VStem: 100 85<300 343 380 400 400 445> 400 92<492 573.5> 425 97<137.5 253 116 253.5>
LayerCount: 2
Fore
SplineSet
522 196 m 0xda
 522 36 388 -2 272 -2 c 0
 240 -2 192 0 164 0 c 0
 146 0 113 -1 92 -2 c 1
 97 81 100 210 100 300 c 2
 100 400 l 2
 100 490 97 599 92 682 c 1
 118 681 153 680 176 680 c 0xec
 193 680 212 681 232 682 c 0
 252 682 272 683 288 683 c 0
 387 683 492 661 492 541 c 0xdc
 492 443 430 388 325 366 c 1
 325 364 l 1
 444 357 522 310 522 196 c 0xda
400 520 m 0xdc
 400 627 315 646 241 646 c 0
 227 646 205 644 189 641 c 1
 185 580 185 515 185 453 c 2
 185 380 l 1
 231 380 l 2
 323 380 400 410 400 520 c 0xdc
425 197 m 0xda
 425 310 356 343 226 343 c 2
 185 343 l 1
 185 265 l 2
 185 201 185 89 189 42 c 1
 212 38 234 35 263 35 c 0
 347 35 425 78 425 197 c 0xda
EndSplineSet
Substitution2: "Podtablica 'c2sc' Wersaliki na kapitaliki w +AUIA-aci+AUQA-skie w tablicy 8" b.sc
Substitution2: "Podtablica 'aalt' Dost+ARkA-p do wszystkich alternatyw w +AUIA-aci+AUQA-skie w tablicy 0" b.sc
EndChar

StartChar: C
Encoding: 67 67 38
Width: 682
GlyphClass: 1
Flags: MW
HStem: -15 47<364.5 475> 655 39<359.5 479.5 324 485>
VStem: 61 103<234 453 234 456> 616 16<559 561> 639 9<108 112>
LayerCount: 2
Fore
SplineSet
656 648 m 1
 646 623 639 595 632 561 c 1
 616 559 l 1xf0
 594 616 533 655 437 655 c 0
 282 655 164 563 164 343 c 0
 164 125 285 32 444 32 c 0
 529 32 598 65 639 112 c 1
 648 108 l 1
 647 91 643 56 639 44 c 1xe8
 602 14 524 -15 426 -15 c 0
 211 -15 61 115 61 343 c 0
 61 569 213 694 435 694 c 0
 524 694 603 673 656 648 c 1
EndSplineSet
Substitution2: "Podtablica 'c2sc' Wersaliki na kapitaliki w +AUIA-aci+AUQA-skie w tablicy 8" c.sc
Substitution2: "Podtablica 'aalt' Dost+ARkA-p do wszystkich alternatyw w +AUIA-aci+AUQA-skie w tablicy 0" c.sc
EndChar

StartChar: D
Encoding: 68 68 39
Width: 782
GlyphClass: 1
Flags: MW
HStem: -2 39<335 389 293.5 446.5> 643 39<334 419.5>
VStem: 100 87<280 281 281 400> 618 103<223 469.5>
LayerCount: 2
Fore
SplineSet
721 354 m 0
 721 90 534 -2 359 -2 c 0
 311 -2 240 0 195 0 c 0
 168 0 125 -1 92 -2 c 1
 97 81 100 190 100 280 c 2
 100 400 l 2
 100 490 97 599 92 682 c 1
 117 681 163 680 195 680 c 0
 243 680 309 682 359 682 c 0
 597 682 721 596 721 354 c 0
618 354 m 0
 618 585 501 643 338 643 c 0
 287 643 234 639 192 632 c 1
 188 570 187 468 187 400 c 2
 187 281 l 2
 187 216 188 107 192 47 c 1
 222 41 270 37 317 37 c 0
 461 37 618 92 618 354 c 0
EndSplineSet
Substitution2: "Podtablica 'c2sc' Wersaliki na kapitaliki w +AUIA-aci+AUQA-skie w tablicy 8" d.sc
Substitution2: "Podtablica 'aalt' Dost+ARkA-p do wszystkich alternatyw w +AUIA-aci+AUQA-skie w tablicy 0" d.sc
EndChar

StartChar: E
Encoding: 69 69 40
Width: 483
GlyphClass: 1
Flags: MW
HStem: -2 44 337 42<186 244.5> 638 44
VStem: 100 86<300 337 379 400 400 411>
LayerCount: 2
Fore
SplineSet
429 -2 m 1
 367 -1 281 1 196 1 c 0
 171 1 115 -1 92 -2 c 1
 97 78 100 210 100 300 c 2
 100 400 l 2
 100 490 97 602 92 682 c 1
 115 681 160 679 191 679 c 0
 257 679 358 680 424 682 c 1
 423 671 423 662 423 653 c 0
 423 645 423 634 424 624 c 1
 381 633 285 638 190 638 c 1
 188 592 186 491 186 411 c 2
 186 379 l 1
 303 379 368 384 405 389 c 1
 404 378 404 368 404 359 c 0
 404 350 404 339 405 329 c 1
 368 335 303 337 186 337 c 1
 186 299 l 2
 186 210 188 81 190 42 c 1
 278 42 357 46 429 59 c 1
 428 43 428 34 428 28 c 0
 428 22 428 13 429 -2 c 1
EndSplineSet
Substitution2: "Podtablica 'c2sc' Wersaliki na kapitaliki w +AUIA-aci+AUQA-skie w tablicy 8" e.sc
Substitution2: "Podtablica 'aalt' Dost+ARkA-p do wszystkich alternatyw w +AUIA-aci+AUQA-skie w tablicy 0" e.sc
EndChar

StartChar: F
Encoding: 70 70 41
Width: 465
GlyphClass: 1
Flags: MW
HStem: -2 21G 337 42<186 244.5> 638 44
VStem: 100 86<300 337 379 400 400 410>
LayerCount: 2
Fore
SplineSet
424 624 m 1
 381 633 285 638 190 638 c 1
 188 593 186 489 186 410 c 2
 186 379 l 1
 303 379 368 384 405 389 c 1
 404 374 404 365 404 359 c 0
 404 353 404 344 405 329 c 1
 368 335 303 337 186 337 c 1
 186 299 l 2
 186 210 189 78 194 -2 c 1
 180 -1 159 0 144 0 c 0
 128 0 107 -1 92 -2 c 1
 97 78 100 210 100 300 c 2
 100 400 l 2
 100 490 97 602 92 682 c 1
 115 681 160 679 191 679 c 0
 257 679 358 680 424 682 c 1
 423 667 423 659 423 652 c 0
 423 646 423 637 424 624 c 1
EndSplineSet
Substitution2: "Podtablica 'c2sc' Wersaliki na kapitaliki w +AUIA-aci+AUQA-skie w tablicy 8" f.sc
Substitution2: "Podtablica 'aalt' Dost+ARkA-p do wszystkich alternatyw w +AUIA-aci+AUQA-skie w tablicy 0" f.sc
EndChar

StartChar: G
Encoding: 71 71 42
Width: 755
GlyphClass: 1
Flags: MW
HStem: -14 44<357.5 478 357.5 486> 657 39<356 488>
VStem: 61 103<245.5 448 245.5 451.5> 590 84<58 163> 627 16<561 563>
LayerCount: 2
Fore
SplineSet
439 696 m 0xf0
 540 696 627 671 667 650 c 1
 658 625 650 597 643 563 c 1
 627 561 l 1xe8
 605 618 538 657 438 657 c 0
 274 657 164 555 164 341 c 0
 164 150 265 30 450 30 c 0
 506 30 559 40 590 58 c 1
 590 149 588 230 579 297 c 1
 597 296 615 295 631 295 c 0
 647 295 666 296 680 297 c 1
 676 248 674 187 674 139 c 0
 674 102 676 58 678 29 c 1
 675 25 l 1
 628 8 531 -14 441 -14 c 0
 206 -14 61 107 61 341 c 0
 61 562 202 696 439 696 c 0xf0
EndSplineSet
Substitution2: "Podtablica 'c2sc' Wersaliki na kapitaliki w +AUIA-aci+AUQA-skie w tablicy 8" g.sc
Substitution2: "Podtablica 'aalt' Dost+ARkA-p do wszystkich alternatyw w +AUIA-aci+AUQA-skie w tablicy 0" g.sc
EndChar

StartChar: H
Encoding: 72 72 43
Width: 754
GlyphClass: 1
Flags: MW
HStem: -2 21G 344 46<186 186> 662 20G
VStem: 100 86<300 344 390 400 400 431> 567 86<299 300 300 344 344 344 390 400>
LayerCount: 2
Fore
SplineSet
661 -2 m 1
 647 -1 626 0 610 0 c 0
 594 0 574 -1 559 -2 c 1
 564 78 567 209 567 299 c 2
 567 344 l 1
 526 345 446 345 377 345 c 0
 308 345 227 345 186 344 c 1
 186 299 l 2
 186 210 189 78 194 -2 c 1
 180 -1 159 0 144 0 c 0
 128 0 107 -1 92 -2 c 1
 97 78 100 210 100 300 c 2
 100 400 l 2
 100 490 97 602 92 682 c 1
 107 681 128 680 144 680 c 0
 159 680 180 681 194 682 c 1
 189 602 186 521 186 431 c 2
 186 390 l 1
 227 389 317 389 377 389 c 0
 438 389 526 389 567 390 c 1
 567 431 l 2
 567 521 564 602 559 682 c 1
 574 681 594 680 610 680 c 0
 626 680 647 681 661 682 c 1
 656 602 653 490 653 400 c 2
 653 300 l 2
 653 210 656 78 661 -2 c 1
EndSplineSet
Substitution2: "Podtablica 'c2sc' Wersaliki na kapitaliki w +AUIA-aci+AUQA-skie w tablicy 8" h.sc
Substitution2: "Podtablica 'aalt' Dost+ARkA-p do wszystkich alternatyw w +AUIA-aci+AUQA-skie w tablicy 0" h.sc
EndChar

StartChar: I
Encoding: 73 73 44
Width: 286
GlyphClass: 1
Flags: MW
HStem: -2 21G 662 20G
VStem: 100 86<300 400>
LayerCount: 2
Fore
SplineSet
194 -2 m 1
 180 -1 159 0 144 0 c 0
 128 0 107 -1 92 -2 c 1
 97 78 100 210 100 300 c 2
 100 400 l 2
 100 490 97 602 92 682 c 1
 107 681 128 680 144 680 c 0
 159 680 180 681 194 682 c 1
 189 602 186 490 186 400 c 2
 186 300 l 2
 186 211 189 78 194 -2 c 1
EndSplineSet
Substitution2: "Podtablica 'c2sc' Wersaliki na kapitaliki w +AUIA-aci+AUQA-skie w tablicy 8" i.sc
Substitution2: "Podtablica 'aalt' Dost+ARkA-p do wszystkich alternatyw w +AUIA-aci+AUQA-skie w tablicy 0" i.sc
EndChar

StartChar: J
Encoding: 74 74 45
Width: 294
GlyphClass: 1
Flags: MW
HStem: -145 32<-22.5 24.5 -27.5 61> 662 20G
VStem: 112 86<312 350 350 400 312 445>
LayerCount: 2
Fore
SplineSet
204 682 m 1
 199 602 198 490 198 400 c 2
 198 350 l 2
 198 274 202 167 202 120 c 0
 202 -39 141 -145 -19 -145 c 0
 -26 -145 -34 -145 -41 -144 c 1
 -50 -116 l 1
 -47 -111 l 1
 -41 -112 -32 -113 -23 -113 c 0
 72 -113 112 -37 112 126 c 2
 112 400 l 2
 112 490 108 602 102 682 c 1
 117 681 137 680 153 680 c 0
 169 680 190 681 204 682 c 1
EndSplineSet
Substitution2: "Podtablica 'c2sc' Wersaliki na kapitaliki w +AUIA-aci+AUQA-skie w tablicy 8" j.sc
Substitution2: "Podtablica 'aalt' Dost+ARkA-p do wszystkich alternatyw w +AUIA-aci+AUQA-skie w tablicy 0" j.sc
EndChar

StartChar: K
Encoding: 75 75 46
Width: 613
GlyphClass: 1
Flags: MW
HStem: -4 21G -2 21G 0 21G<136 151.5 547.5 563> 347 22<185 188> 660 20G<136 151.5 500 514> 662 20G<587 587>
VStem: 100 85<300 347 255.5 369 369 400>
LayerCount: 2
Fore
SplineSet
607 3 m 1x36
 605 -1 l 1
 586 0 570 0 556 0 c 0x36
 539 0 502 -2 484 -4 c 1x96
 401 108 283 253 204 339 c 0
 198 345 191 347 185 347 c 1
 185 300 l 2
 185 211 188 78 193 -2 c 1
 180 -1 159 0 144 0 c 0
 128 0 107 -1 92 -2 c 1
 97 78 100 210 100 300 c 2
 100 400 l 2
 100 490 97 602 92 682 c 1
 107 681 128 680 144 680 c 0
 159 680 180 681 193 682 c 1
 188 602 185 490 185 400 c 2
 185 369 l 1
 191 369 201 371 207 374 c 0
 293 453 423 587 500 680 c 1x56
 528 680 566 681 587 682 c 1
 590 679 l 1x3a
 499 601 355 460 277 382 c 1
 377 262 515 97 607 3 c 1x36
EndSplineSet
Substitution2: "Podtablica 'c2sc' Wersaliki na kapitaliki w +AUIA-aci+AUQA-skie w tablicy 8" k.sc
Substitution2: "Podtablica 'aalt' Dost+ARkA-p do wszystkich alternatyw w +AUIA-aci+AUQA-skie w tablicy 0" k.sc
EndChar

StartChar: L
Encoding: 76 76 47
Width: 475
GlyphClass: 1
Flags: MW
HStem: -2 44 662 20G
VStem: 100 86<300 400>
LayerCount: 2
Fore
SplineSet
464 -2 m 1
 389 -1 281 1 196 1 c 0
 172 1 115 -1 92 -2 c 1
 97 78 100 210 100 300 c 2
 100 400 l 2
 100 490 97 602 92 682 c 1
 107 681 128 680 144 680 c 0
 159 680 180 681 194 682 c 1
 189 602 186 490 186 400 c 2
 186 300 l 2
 186 210 188 82 190 42 c 1
 278 42 381 46 464 59 c 1
 463 43 463 34 463 28 c 0
 463 22 463 13 464 -2 c 1
EndSplineSet
Substitution2: "Podtablica 'c2sc' Wersaliki na kapitaliki w +AUIA-aci+AUQA-skie w tablicy 8" l.sc
Substitution2: "Podtablica 'aalt' Dost+ARkA-p do wszystkich alternatyw w +AUIA-aci+AUQA-skie w tablicy 0" l.sc
EndChar

StartChar: M
Encoding: 77 77 48
Width: 916
GlyphClass: 1
Flags: MW
HStem: -2 21G 1 21G<428 444 428 428> 676 20G<147 163 163 163 765 781 781 781>
VStem: 50 808<4.29497e+009 4.29497e+009>
LayerCount: 2
Fore
SplineSet
858 -2 m 1xb0
 844 -1 822 0 806 0 c 0
 790 0 773 -1 754 -2 c 1xb0
 749 123 730 344 712 502 c 1
 708 502 l 1
 656 415 513 153 444 1 c 1
 428 1 l 1x70
 368 145 243 370 185 473 c 0
 180 482 176 492 172 500 c 1
 168 500 l 1
 147 329 125 111 125 -2 c 1
 115 -1 99 0 88 0 c 0
 78 0 63 -1 50 -2 c 1
 88 213 129 490 147 696 c 1
 163 696 l 1
 253 525 404 243 460 146 c 1
 464 146 l 1
 517 239 667 508 765 696 c 1
 781 696 l 1
 803 420 837 103 858 -2 c 1xb0
EndSplineSet
Substitution2: "Podtablica 'c2sc' Wersaliki na kapitaliki w +AUIA-aci+AUQA-skie w tablicy 8" m.sc
Substitution2: "Podtablica 'aalt' Dost+ARkA-p do wszystkich alternatyw w +AUIA-aci+AUQA-skie w tablicy 0" m.sc
EndChar

StartChar: N
Encoding: 78 78 49
Width: 748
GlyphClass: 1
Flags: MW
HStem: -8 21G<636 652 636 636> -2 21G 662 20G 671 20G<97 113 113 113>
VStem: 101 45<350 400 400 463> 603 45<199 250 250 330>
LayerCount: 2
Fore
SplineSet
652 -8 m 1xac
 636 -8 l 1x9c
 539 110 346 318 169 495 c 0
 162 502 156 509 149 519 c 1
 146 518 l 1
 146 350 l 2
 146 230 152 78 164 -2 c 1
 153 -1 137 0 127 0 c 0
 116 0 101 -1 88 -2 c 1
 98 78 101 230 101 350 c 2
 101 400 l 2
 101 526 99 641 97 691 c 1
 113 691 l 1x5c
 251 535 456 316 583 191 c 0
 589 185 594 178 601 170 c 1
 603 171 l 1
 603 342 l 2
 603 462 597 602 586 682 c 1
 599 681 612 680 623 680 c 0
 633 680 649 681 661 682 c 1
 653 602 648 450 648 330 c 2
 648 250 l 2
 648 148 650 54 652 -8 c 1xac
EndSplineSet
Substitution2: "Podtablica 'c2sc' Wersaliki na kapitaliki w +AUIA-aci+AUQA-skie w tablicy 8" n.sc
Substitution2: "Podtablica 'aalt' Dost+ARkA-p do wszystkich alternatyw w +AUIA-aci+AUQA-skie w tablicy 0" n.sc
EndChar

StartChar: O
Encoding: 79 79 50
Width: 840
GlyphClass: 1
Flags: MW
HStem: -17 39<343.5 495.5 343.5 527> 660 37<343.5 495.5>
VStem: 60 101<235.5 447.5 235.5 449> 679 101<235 444.5>
LayerCount: 2
Fore
SplineSet
780 340 m 0
 780 125 635 -17 419 -17 c 0
 205 -17 60 122 60 340 c 0
 60 558 205 697 419 697 c 0
 640 697 780 560 780 340 c 0
679 340 m 0
 679 549 572 660 419 660 c 0
 268 660 161 555 161 340 c 0
 161 131 268 22 419 22 c 0
 572 22 679 130 679 340 c 0
EndSplineSet
Substitution2: "Podtablica Podstawienie pojedyncze w tablicy 30" ordmasculine
Substitution2: "Podtablica 'sups' Frakcja g+APMA-rna w +AUIA-aci+AUQA-skie w tablicy 22" ordmasculine
Substitution2: "Podtablica 'c2sc' Wersaliki na kapitaliki w +AUIA-aci+AUQA-skie w tablicy 8" o.sc
AlternateSubs2: "Podtablica 'aalt' Dost+ARkA-p do wszystkich alternatyw w +AUIA-aci+AUQA-skie w tablicy 1" o.sc ordmasculine
EndChar

StartChar: P
Encoding: 80 80 51
Width: 556
GlyphClass: 1
Flags: MW
HStem: -2 21G 304 37<186 225 225 231 186 225> 646 34 646 37<243.5 355.5>
VStem: 100 86<300 304 254.5 341 341 400> 412 98<437 562>
LayerCount: 2
Fore
SplineSet
510 509 m 0xdc
 510 332 351 304 231 304 c 2
 186 304 l 1
 186 298 l 2
 186 211 189 78 194 -2 c 1
 180 -1 159 0 144 0 c 0
 128 0 107 -1 92 -2 c 1
 97 78 100 210 100 300 c 2
 100 400 l 2
 100 490 97 602 92 682 c 1
 126 681 162 680 186 680 c 0xec
 207 680 232 681 256 682 c 0
 279 682 301 683 315 683 c 0
 396 683 510 663 510 509 c 0xdc
412 508 m 0
 412 616 340 646 254 646 c 0
 233 646 209 644 189 641 c 1
 187 580 186 461 186 400 c 2
 186 341 l 1
 225 341 l 2
 326 341 412 366 412 508 c 0
EndSplineSet
Substitution2: "Podtablica 'c2sc' Wersaliki na kapitaliki w +AUIA-aci+AUQA-skie w tablicy 8" p.sc
Substitution2: "Podtablica 'aalt' Dost+ARkA-p do wszystkich alternatyw w +AUIA-aci+AUQA-skie w tablicy 0" p.sc
EndChar

StartChar: Q
Encoding: 81 81 52
Width: 840
GlyphClass: 1
Flags: MW
HStem: -14 35<343.5 419 419 436> 660 37<343.5 495.5>
VStem: 60 101<235.5 447.5 235.5 449> 679 100<254 444.5>
LayerCount: 2
Fore
SplineSet
845 -123 m 1
 809 -141 770 -165 751 -180 c 1
 664 -129 529 -59 436 -14 c 1
 419 -14 l 2
 201 -14 60 124 60 340 c 0
 60 558 205 697 419 697 c 0
 640 697 779 560 779 340 c 0
 779 168 679 42 547 12 c 1
 547 9 l 1
 633 -34 751 -85 845 -117 c 1
 845 -123 l 1
679 340 m 0
 679 549 572 660 419 660 c 0
 268 660 161 555 161 340 c 0
 161 131 268 21 419 21 c 0
 572 21 679 130 679 340 c 0
EndSplineSet
Substitution2: "Podtablica 'c2sc' Wersaliki na kapitaliki w +AUIA-aci+AUQA-skie w tablicy 8" q.sc
Substitution2: "Podtablica 'aalt' Dost+ARkA-p do wszystkich alternatyw w +AUIA-aci+AUQA-skie w tablicy 0" q.sc
EndChar

StartChar: R
Encoding: 82 82 53
Width: 583
GlyphClass: 1
Flags: MW
HStem: -4 21G -2 21G 0 21G<135 151 518 533> 331 30<184 188.5> 646 34 646 37<233 345.5>
VStem: 100 84<300 331 255.5 361 361 400> 400 95<461.5 571.5>
LayerCount: 2
Fore
SplineSet
578 3 m 1x37
 575 -1 l 1
 554 0 540 0 526 0 c 0x37
 510 0 473 -2 458 -4 c 1x97
 414 62 280 240 202 326 c 0
 199 330 193 331 184 331 c 1
 184 300 l 2
 184 211 187 78 192 -2 c 1
 179 -1 159 0 143 0 c 0
 127 0 107 -1 92 -2 c 1
 97 78 100 210 100 300 c 2
 100 400 l 2
 100 490 99 602 95 682 c 1
 128 681 153 680 176 680 c 0x5b
 193 680 213 681 233 682 c 0
 254 682 274 683 289 683 c 0
 402 683 495 646 495 527 c 0
 495 396 390 348 294 338 c 1
 341 276 516 70 578 3 c 1x37
400 516 m 0
 400 627 314 646 240 646 c 0
 226 646 207 645 189 642 c 1
 185 581 184 462 184 400 c 2
 184 361 l 1
 219 361 l 2
 311 361 400 385 400 516 c 0
EndSplineSet
Substitution2: "Podtablica 'c2sc' Wersaliki na kapitaliki w +AUIA-aci+AUQA-skie w tablicy 8" r.sc
Substitution2: "Podtablica 'aalt' Dost+ARkA-p do wszystkich alternatyw w +AUIA-aci+AUQA-skie w tablicy 0" r.sc
EndChar

StartChar: S
Encoding: 83 83 54
Width: 495
GlyphClass: 1
Flags: MW
HStem: -14 41<182 256.5 182 281.5> 657 38<232 303>
VStem: 60 85<498 565> 362 86<136 204> 389 16<573 574>
LayerCount: 2
Fore
SplineSet
448 197 m 0xf0
 448 75 350 -14 213 -14 c 0
 148 -14 74 3 40 21 c 1
 43 49 51 93 58 126 c 1
 74 128 l 1
 94 57 145 27 219 27 c 0
 294 27 362 69 362 162 c 0xf0
 362 246 311 278 222 315 c 0
 143 349 60 387 60 507 c 0
 60 623 157 695 279 695 c 0
 338 695 395 679 431 663 c 1
 421 638 411 606 405 574 c 1
 389 573 l 1xe8
 374 623 338 657 268 657 c 0
 196 657 145 613 145 537 c 0
 145 459 193 427 262 399 c 0
 372 354 448 316 448 197 c 0xf0
EndSplineSet
Substitution2: "Podtablica 'c2sc' Wersaliki na kapitaliki w +AUIA-aci+AUQA-skie w tablicy 8" s.sc
Substitution2: "Podtablica 'aalt' Dost+ARkA-p do wszystkich alternatyw w +AUIA-aci+AUQA-skie w tablicy 0" s.sc
EndChar

StartChar: T
Encoding: 84 84 55
Width: 528
GlyphClass: 1
Flags: MW
HStem: -2 21G 637 45
VStem: 221 86<300 518>
LayerCount: 2
Fore
SplineSet
520 623 m 1
 475 630 383 637 310 637 c 1
 308 597 307 545 307 518 c 2
 307 300 l 2
 307 211 310 78 315 -2 c 1
 300 -1 280 0 264 0 c 0
 248 0 227 -1 213 -2 c 1
 218 78 221 210 221 300 c 2
 221 518 l 2
 221 546 220 598 218 637 c 1
 146 637 54 630 8 623 c 1
 9 636 9 645 9 653 c 0
 9 661 9 668 8 682 c 1
 68 679 180 678 264 678 c 0
 350 678 462 679 520 682 c 1
 519 668 519 661 519 653 c 0
 519 645 519 636 520 623 c 1
EndSplineSet
Substitution2: "Podtablica 'c2sc' Wersaliki na kapitaliki w +AUIA-aci+AUQA-skie w tablicy 8" t.sc
Substitution2: "Podtablica 'aalt' Dost+ARkA-p do wszystkich alternatyw w +AUIA-aci+AUQA-skie w tablicy 0" t.sc
EndChar

StartChar: U
Encoding: 85 85 56
Width: 744
GlyphClass: 1
Flags: MW
HStem: -17 47<298 442.5> 662 20G
VStem: 94 86<241 499> 604 51<294 392.5 268 397.5>
LayerCount: 2
Fore
SplineSet
664 682 m 1
 658 591 655 490 655 295 c 0
 655 241 647 187 632 145 c 0
 597 47 514 -17 371 -17 c 0
 176 -17 91 62 91 266 c 0
 91 328 94 394 94 444 c 0
 94 554 92 624 88 682 c 1
 103 681 124 680 140 680 c 0
 156 680 177 681 195 682 c 1
 188 618 180 478 180 330 c 0
 180 152 204 30 392 30 c 0
 509 30 567 89 592 182 c 0
 603 222 604 264 604 324 c 0
 604 471 600 599 591 682 c 1
 605 681 617 680 628 680 c 0
 638 680 654 681 664 682 c 1
EndSplineSet
Substitution2: "Podtablica 'c2sc' Wersaliki na kapitaliki w +AUIA-aci+AUQA-skie w tablicy 8" u.sc
Substitution2: "Podtablica 'aalt' Dost+ARkA-p do wszystkich alternatyw w +AUIA-aci+AUQA-skie w tablicy 0" u.sc
EndChar

StartChar: V
Encoding: 86 86 57
Width: 650
GlyphClass: 1
Flags: MW
HStem: -2 21G -2 104 662 20G<14 14 640 640>
VStem: 11 631<680 680>
LayerCount: 2
Fore
SplineSet
642 680 m 1xb0
 578 540 428 180 355 -2 c 1
 346 -1 334 0 322 0 c 0
 311 0 299 -1 288 -2 c 1
 241 130 105 466 11 680 c 1
 14 682 l 1
 32 681 54 680 70 680 c 0
 86 680 106 681 121 682 c 1
 177 514 283 244 345 102 c 1
 348 102 l 1x70
 408 235 526 542 567 682 c 1
 578 681 589 680 600 680 c 0
 610 680 630 681 640 682 c 1
 642 680 l 1xb0
EndSplineSet
Substitution2: "Podtablica 'c2sc' Wersaliki na kapitaliki w +AUIA-aci+AUQA-skie w tablicy 8" v.sc
Substitution2: "Podtablica 'aalt' Dost+ARkA-p do wszystkich alternatyw w +AUIA-aci+AUQA-skie w tablicy 0" v.sc
EndChar

StartChar: W
Encoding: 87 87 58
Width: 1000
GlyphClass: 1
Flags: MW
HStem: -2 21G -2 107 558 124 662 20G<22 22 988 988>
VStem: 19 971<680 680>
LayerCount: 2
Fore
SplineSet
990 680 m 1x98
 937 540 813 178 755 -2 c 1
 745 -1 730 0 718 0 c 0
 706 0 691 -1 681 -2 c 1
 632 164 549 421 499 558 c 1
 497 558 l 1xa8
 441 405 363 175 305 -2 c 1
 298 -1 280 0 269 0 c 0
 257 0 243 -1 232 -2 c 1
 182 178 75 525 19 680 c 1
 22 682 l 1
 45 680 64 680 79 680 c 0
 94 680 111 681 126 682 c 1
 165 528 240 267 294 105 c 1
 296 105 l 1
 342 236 436 528 481 682 c 1
 494 681 507 680 518 680 c 0
 529 680 542 681 553 682 c 1
 605 504 694 233 742 105 c 1
 745 105 l 1x58
 788 234 883 544 915 682 c 1
 924 681 938 680 949 680 c 0
 959 680 979 681 988 682 c 1
 990 680 l 1x98
EndSplineSet
Substitution2: "Podtablica 'c2sc' Wersaliki na kapitaliki w +AUIA-aci+AUQA-skie w tablicy 8" w.sc
Substitution2: "Podtablica 'aalt' Dost+ARkA-p do wszystkich alternatyw w +AUIA-aci+AUQA-skie w tablicy 0" w.sc
EndChar

StartChar: X
Encoding: 88 88 59
Width: 591
GlyphClass: 1
Flags: MW
HStem: -2 21G<32 32 560 560> 1 21G<28 28 564 564> 659 20G<45 45 549 549> 662 20G<49 49 545 545>
VStem: 28 536<1 1>
LayerCount: 2
Fore
SplineSet
564 1 m 1xa8
 560 -2 l 1
 544 -1 515 0 499 0 c 0xa8
 483 0 462 -1 445 -2 c 1
 400 89 341 198 284 296 c 1
 281 296 l 1
 218 198 156 96 104 -2 c 1
 95 -1 83 0 72 0 c 0x98
 62 0 45 -1 32 -2 c 1
 28 1 l 1
 110 117 195 240 258 339 c 1
 191 450 110 581 45 679 c 1
 49 682 l 1
 63 681 93 680 109 680 c 0
 126 680 147 681 161 682 c 1
 200 604 256 501 311 410 c 1
 314 410 l 1
 372 502 434 605 474 682 c 1
 484 681 498 680 507 680 c 0x58
 517 680 535 681 545 682 c 1
 549 679 l 1
 477 583 390 453 335 370 c 1
 410 244 488 118 564 1 c 1xa8
EndSplineSet
Substitution2: "Podtablica 'c2sc' Wersaliki na kapitaliki w +AUIA-aci+AUQA-skie w tablicy 8" x.sc
Substitution2: "Podtablica 'aalt' Dost+ARkA-p do wszystkich alternatyw w +AUIA-aci+AUQA-skie w tablicy 0" x.sc
EndChar

StartChar: Y
Encoding: 89 89 60
Width: 588
GlyphClass: 1
Flags: MW
HStem: -2 21G 662 20G<14 14 573 573>
VStem: 252 86<250 280 280 280>
LayerCount: 2
Fore
SplineSet
576 680 m 1
 522 603 382 375 338 290 c 1
 338 250 l 2
 338 160 340 78 346 -2 c 1
 333 -1 311 0 296 0 c 0
 280 0 260 -1 244 -2 c 1
 250 78 252 160 252 250 c 2
 252 280 l 1
 200 371 73 586 11 680 c 1
 14 682 l 1
 37 681 61 680 77 680 c 0
 94 680 112 681 126 682 c 1
 172 588 246 453 313 339 c 1
 316 339 l 1
 375 438 464 601 499 682 c 1
 508 681 521 680 532 680 c 0
 543 680 564 681 573 682 c 1
 576 680 l 1
EndSplineSet
Substitution2: "Podtablica 'c2sc' Wersaliki na kapitaliki w +AUIA-aci+AUQA-skie w tablicy 8" y.sc
Substitution2: "Podtablica 'aalt' Dost+ARkA-p do wszystkich alternatyw w +AUIA-aci+AUQA-skie w tablicy 0" y.sc
EndChar

StartChar: Z
Encoding: 90 90 61
Width: 609
GlyphClass: 1
Flags: MW
HStem: -2 48 637 45 666 16<582 584>
VStem: 12 572
LayerCount: 2
Fore
SplineSet
584 666 m 1xb0
 504 574 225 170 148 48 c 1
 175 46 203 46 239 46 c 0
 341 46 506 51 582 61 c 1
 581 44 581 35 581 29 c 0
 581 22 581 14 582 -2 c 1
 497 -1 356 1 280 1 c 0
 177 1 83 0 14 -2 c 1
 12 14 l 1
 164 218 383 536 447 636 c 1
 423 637 403 637 364 637 c 0
 292 637 139 632 68 623 c 1
 69 639 69 648 69 654 c 0
 69 660 69 666 68 682 c 1
 124 681 265 679 392 679 c 0
 475 679 547 681 582 682 c 1xd0
 584 666 l 1xb0
EndSplineSet
Substitution2: "Podtablica 'c2sc' Wersaliki na kapitaliki w +AUIA-aci+AUQA-skie w tablicy 8" z.sc
Substitution2: "Podtablica 'aalt' Dost+ARkA-p do wszystkich alternatyw w +AUIA-aci+AUQA-skie w tablicy 0" z.sc
EndChar

StartChar: bracketleft
Encoding: 91 91 62
Width: 293
GlyphClass: 1
Flags: MW
HStem: -91 30 737 30
VStem: 83 61<200 201 201 477>
LayerCount: 2
Fore
SplineSet
248 -91 m 1
 78 -91 l 1
 81 4 83 101 83 200 c 2
 83 478 l 2
 83 575 81 672 78 767 c 1
 248 767 l 1
 248 741 l 1
 146 733 l 1
 144 651 144 564 144 477 c 2
 144 201 l 2
 144 112 144 25 146 -57 c 1
 248 -65 l 1
 248 -91 l 1
EndSplineSet
Substitution2: "Podtablica 'salt' Alternatywy stylistyczne w +AUIA-aci+AUQA-skie w tablicy 29" bracketleft.alt
EndChar

StartChar: backslash
Encoding: 92 92 63
Width: 500
GlyphClass: 1
Flags: MW
HStem: -129 897<56 447>
VStem: 7 489
LayerCount: 2
Fore
SplineSet
496 -122 m 1
 447 -129 l 1
 411 -48 356 65 313 152 c 2
 155 469 l 2
 110 559 50 679 7 761 c 1
 56 768 l 1
 93 687 147 574 190 487 c 2
 348 170 l 2
 393 80 453 -40 496 -122 c 1
EndSplineSet
EndChar

StartChar: bracketright
Encoding: 93 93 64
Width: 293
GlyphClass: 1
Flags: MW
HStem: -91 29 738 29
VStem: 149 61<201 477 477 478>
LayerCount: 2
Fore
SplineSet
215 -91 m 1
 45 -91 l 1
 45 -66 l 1
 147 -58 l 1
 149 25 149 112 149 201 c 2
 149 477 l 2
 149 564 149 651 147 734 c 1
 45 742 l 1
 45 767 l 1
 215 767 l 1
 212 672 210 575 210 478 c 2
 210 200 l 2
 210 101 212 4 215 -91 c 1
EndSplineSet
Substitution2: "Podtablica 'salt' Alternatywy stylistyczne w +AUIA-aci+AUQA-skie w tablicy 29" bracketright.alt
EndChar

StartChar: asciicircum
Encoding: 94 94 65
Width: 480
GlyphClass: 1
Flags: MW
HStem: 139 377
VStem: 33 414<162 162>
LayerCount: 2
Fore
SplineSet
447 162 m 1
 434 158 416 149 405 139 c 1
 362 226 276 385 240 444 c 1
 204 385 118 226 75 139 c 1
 63 150 46 158 33 162 c 1
 94 256 177 406 237 516 c 1
 243 516 l 1
 303 406 386 256 447 162 c 1
EndSplineSet
EndChar

StartChar: underscore
Encoding: 95 95 66
Width: 500
GlyphClass: 1
Flags: MW
HStem: -130 50<0 500 0 500>
VStem: 0 500<-130 -80 -130 -80>
LayerCount: 2
Fore
SplineSet
500 -130 m 1
 0 -130 l 1
 0 -80 l 1
 500 -80 l 1
 500 -130 l 1
EndSplineSet
EndChar

StartChar: grave
Encoding: 96 96 67
Width: 333
GlyphClass: 1
Flags: MW
HStem: 580 166<78 215 78 189>
VStem: 51 166<583 732>
LayerCount: 2
Fore
SplineSet
217 583 m 1
 215 580 l 1
 189 580 l 1
 156 611 97 669 66 699 c 0
 58 707 51 715 51 723 c 0
 51 741 69 746 87 746 c 0
 105 746 112 737 121 722 c 0
 140 693 182 632 217 583 c 1
EndSplineSet
AlternateSubs2: "Podtablica 'aalt' Dost+ARkA-p do wszystkich alternatyw w +AUIA-aci+AUQA-skie w tablicy 1" quotedbl quotesingle quoteleft quoteright quotedblleft quotedblright quotesinglbase quotedblbase guilsinglleft guilsinglright guillemotleft guillemotright
EndChar

StartChar: a
Encoding: 97 97 68
Width: 497
GlyphClass: 1
Flags: MW
HStem: -8 44<192 211.5> -4 30<385 466.5> 260 21G 448 36<218.5 260>
VStem: 45 85<95.5 163.5> 97 18<345 346> 331 78
LayerCount: 2
Fore
SplineSet
478 6 m 1x76
 460 0 433 -4 410 -4 c 0x76
 360 -4 335 24 330 66 c 1
 297 27 245 -8 178 -8 c 0
 110 -8 45 31 45 122 c 0xba
 45 205 97 244 185 261 c 0
 321 286 331 296 331 317 c 2
 331 330 l 2
 331 400 301 448 219 448 c 0
 162 448 124 410 115 345 c 1
 97 346 l 1
 95 378 89 411 85 430 c 1
 121 463 188 484 249 484 c 0
 393 484 413 406 413 305 c 0
 413 259 409 154 409 104 c 0
 409 56 423 26 463 26 c 0
 470 26 475 26 478 27 c 1
 478 6 l 1x76
332 260 m 1xba
 188 237 130 213 130 132 c 0
 130 59 170 36 214 36 c 0
 259 36 313 66 328 119 c 1
 331 153 332 212 332 260 c 1xba
EndSplineSet
Substitution2: "Podtablica Podstawienie pojedyncze w tablicy 30" ordfeminine
Substitution2: "Podtablica 'sups' Frakcja g+APMA-rna w +AUIA-aci+AUQA-skie w tablicy 22" ordfeminine
Substitution2: "Podtablica 'case' Warianty wersalikowe w +AUIA-aci+AUQA-skie w tablicy 9" A
Substitution2: "Podtablica 'smcp' Tekstowe na kapitaliki w +AUIA-aci+AUQA-skie w tablicy 5" a.sc
AlternateSubs2: "Podtablica 'aalt' Dost+ARkA-p do wszystkich alternatyw w +AUIA-aci+AUQA-skie w tablicy 1" a.sc A ordfeminine
EndChar

StartChar: b
Encoding: 98 98 69
Width: 603
GlyphClass: 1
Flags: MW
HStem: -9 34<283.5 356 259.5 397> 0 21G<81 105 81 81> 435 49<297.5 368>
VStem: 88 79<373 402 402 403 373 447> 457 92<178.5 285.5>
LayerCount: 2
Fore
SplineSet
549 238 m 0xb8
 549 116 475 -9 319 -9 c 0
 248 -9 193 13 157 49 c 1xb8
 140 35 119 15 105 0 c 1
 81 0 l 1x78
 87 77 88 210 88 300 c 2
 88 402 l 2
 88 492 86 670 81 748 c 1
 93 747 113 746 129 746 c 0
 145 746 165 747 177 748 c 1
 169 670 167 492 167 403 c 2
 167 373 l 1
 171 373 l 1
 196 424 250 484 345 484 c 0
 493 484 549 360 549 238 c 0xb8
457 236 m 0
 457 335 419 435 317 435 c 0
 249 435 199 388 180 328 c 0
 168 290 166 245 166 200 c 0
 166 93 214 25 305 25 c 0
 407 25 457 121 457 236 c 0
EndSplineSet
Substitution2: "Podtablica 'case' Warianty wersalikowe w +AUIA-aci+AUQA-skie w tablicy 9" B
Substitution2: "Podtablica 'smcp' Tekstowe na kapitaliki w +AUIA-aci+AUQA-skie w tablicy 5" b.sc
AlternateSubs2: "Podtablica 'aalt' Dost+ARkA-p do wszystkich alternatyw w +AUIA-aci+AUQA-skie w tablicy 1" b.sc B
EndChar

StartChar: c
Encoding: 99 99 70
Width: 496
GlyphClass: 1
Flags: MW
HStem: -13 43<261.5 331> 447 35<254.5 345.5 245.5 346.5>
VStem: 54 93<173.5 290 173.5 321.5> 432 15<356 357>
LayerCount: 2
Fore
SplineSet
469 92 m 1
 464 80 460 51 459 38 c 1
 424 7 365 -13 297 -13 c 0
 178 -13 54 56 54 235 c 0
 54 408 181 482 310 482 c 0
 381 482 444 462 471 441 c 1
 462 420 452 385 447 357 c 1
 432 356 l 1
 420 412 379 447 314 447 c 0
 195 447 147 345 147 235 c 0
 147 112 206 30 317 30 c 0
 378 30 428 54 458 97 c 1
 469 92 l 1
EndSplineSet
Substitution2: "Podtablica 'case' Warianty wersalikowe w +AUIA-aci+AUQA-skie w tablicy 9" C
Substitution2: "Podtablica 'smcp' Tekstowe na kapitaliki w +AUIA-aci+AUQA-skie w tablicy 5" c.sc
AlternateSubs2: "Podtablica 'aalt' Dost+ARkA-p do wszystkich alternatyw w +AUIA-aci+AUQA-skie w tablicy 1" c.sc C
EndChar

StartChar: d
Encoding: 100 100 71
Width: 604
GlyphClass: 1
Flags: MW
HStem: -9 43<241 312> -2 21G 445 38<246.5 324 203.5 349.5>
VStem: 54 93<184 295 184 300> 435 79<396 402>
LayerCount: 2
Fore
SplineSet
523 -2 m 1x78
 511 -1 491 0 476 0 c 0
 460 0 444 -1 432 -2 c 1x78
 434 29 435 62 435 97 c 1
 433 97 l 1
 414 55 364 -9 260 -9 c 0xb8
 115 -9 54 111 54 237 c 0
 54 363 125 483 282 483 c 0
 366 483 413 439 433 396 c 1
 435 396 l 1
 435 411 l 2
 435 501 433 670 428 748 c 1
 439 747 459 746 475 746 c 0
 491 746 511 747 523 748 c 1
 518 670 514 492 514 402 c 2
 514 300 l 2
 514 208 515 72 523 -2 c 1x78
437 238 m 0
 437 338 402 445 297 445 c 0
 196 445 147 355 147 235 c 0
 147 133 190 34 292 34 c 0xb8
 385 34 437 123 437 238 c 0
EndSplineSet
Substitution2: "Podtablica 'case' Warianty wersalikowe w +AUIA-aci+AUQA-skie w tablicy 9" D
Substitution2: "Podtablica 'smcp' Tekstowe na kapitaliki w +AUIA-aci+AUQA-skie w tablicy 5" d.sc
AlternateSubs2: "Podtablica 'aalt' Dost+ARkA-p do wszystkich alternatyw w +AUIA-aci+AUQA-skie w tablicy 1" d.sc D
EndChar

StartChar: e
Encoding: 101 101 72
Width: 542
GlyphClass: 1
Flags: MW
HStem: -15 41<260.5 329.5> 241 36<149 260 260 263 147 260> 450 34<238.5 338.5>
VStem: 54 92<161 216.5 161 302.5> 406 85<279 315>
LayerCount: 2
Fore
SplineSet
491 279 m 0
 491 270 490 256 488 245 c 1
 482 239 l 1
 404 240 316 241 263 241 c 2
 147 241 l 1
 146 231 146 221 146 212 c 0
 146 110 204 26 317 26 c 0
 377 26 433 50 466 91 c 1
 476 86 l 1
 471 70 467 45 466 33 c 1
 426 4 362 -15 297 -15 c 0
 151 -15 54 76 54 230 c 0
 54 375 141 484 290 484 c 0
 431 484 491 389 491 279 c 0
406 279 m 1
 406 351 389 450 288 450 c 0
 189 450 153 349 149 277 c 1
 260 277 l 2
 302 277 374 278 406 279 c 1
EndSplineSet
Substitution2: "Podtablica 'case' Warianty wersalikowe w +AUIA-aci+AUQA-skie w tablicy 9" E
Substitution2: "Podtablica 'smcp' Tekstowe na kapitaliki w +AUIA-aci+AUQA-skie w tablicy 5" e.sc
AlternateSubs2: "Podtablica 'aalt' Dost+ARkA-p do wszystkich alternatyw w +AUIA-aci+AUQA-skie w tablicy 1" e.sc E
EndChar

StartChar: f
Encoding: 102 102 73
Width: 272
GlyphClass: 1
Flags: MW
HStem: -2 21G 432 36<11 91 11 91 173 285> 698 60<235 260.5>
VStem: 91 72<492 618.5> 92 80<250 317 220 332> 304 11<663 664>
LayerCount: 2
Fore
SplineSet
344 743 m 1xec
 334 724 321 690 315 664 c 1
 304 663 l 1
 294 683 275 698 246 698 c 0
 184 698 163 642 163 595 c 0
 163 559 171 504 173 468 c 1xf4
 285 468 l 1
 285 432 l 1
 173 432 l 1
 172 390 172 347 172 317 c 2
 172 250 l 2
 172 190 174 57 180 -2 c 1
 168 -1 147 0 131 0 c 0
 115 0 95 -1 84 -2 c 1
 90 55 92 190 92 250 c 2
 92 317 l 2
 92 347 92 390 91 432 c 1
 11 432 l 1
 11 468 l 1xec
 91 468 l 1
 91 492 l 2xf4
 91 633 173 758 297 758 c 0
 315 758 334 754 342 749 c 1
 344 743 l 1xec
EndSplineSet
Substitution2: "Podtablica 'case' Warianty wersalikowe w +AUIA-aci+AUQA-skie w tablicy 9" F
Substitution2: "Podtablica 'smcp' Tekstowe na kapitaliki w +AUIA-aci+AUQA-skie w tablicy 5" f.sc
AlternateSubs2: "Podtablica 'aalt' Dost+ARkA-p do wszystkich alternatyw w +AUIA-aci+AUQA-skie w tablicy 1" f.sc F
EndChar

StartChar: g
Encoding: 103 103 74
Width: 505
GlyphClass: 1
Flags: MW
HStem: -276 31<210.5 283.5 210.5 327> 4 65 164 31<242 284.5 212.5 306> 432 32<387.5 501 387.5 398> 449 33<208.5 264.5 195.5 285.5>
VStem: 29 70<-157.5 -94.5> 56 85<277.5 355.5> 355 83<288 350 274 364.5> 412 82<-128 -65>
LayerCount: 2
Fore
SplineSet
141 116 m 0xf3
 141 77 180 71 296 69 c 0
 416 67 494 34 494 -70 c 0
 494 -186 408 -276 246 -276 c 0
 143 -276 29 -234 29 -109 c 0
 29 -80 36 -52 48 -32 c 1xec80
 69 -17 108 2 138 14 c 1
 138 17 l 1
 98 27 70 52 70 88 c 0
 70 143 114 168 157 175 c 1
 157 177 l 1
 102 195 56 241 56 313 c 0
 56 434 140 482 251 482 c 0xeb
 278 482 314 477 339 471 c 0
 357 467 378 464 397 464 c 2
 501 468 l 1
 501 432 l 1
 398 432 l 1
 397 430 l 1
 423 410 438 375 438 325 c 0
 438 223 361 164 251 164 c 0
 233 164 219 165 206 166 c 0
 172 170 141 150 141 116 c 0xf3
355 325 m 0xeb
 355 404 323 449 248 449 c 0
 169 449 141 394 141 317 c 0
 141 238 177 195 248 195 c 0
 321 195 355 251 355 325 c 0xeb
412 -106 m 0xec80
 412 -24 360 1 247 4 c 0
 223 5 193 7 172 9 c 1
 130 -6 99 -45 99 -105 c 0
 99 -210 176 -245 245 -245 c 0
 322 -245 412 -205 412 -106 c 0xec80
EndSplineSet
Substitution2: "Podtablica 'case' Warianty wersalikowe w +AUIA-aci+AUQA-skie w tablicy 9" G
Substitution2: "Podtablica 'smcp' Tekstowe na kapitaliki w +AUIA-aci+AUQA-skie w tablicy 5" g.sc
AlternateSubs2: "Podtablica 'aalt' Dost+ARkA-p do wszystkich alternatyw w +AUIA-aci+AUQA-skie w tablicy 1" g.sc G
EndChar

StartChar: h
Encoding: 104 104 75
Width: 572
GlyphClass: 1
Flags: MW
HStem: -2 21G 430 50<294.5 348.5>
VStem: 87 79<385 402 385 402 385 447> 410 80
LayerCount: 2
Fore
SplineSet
166 402 m 2
 166 385 l 1
 170 385 l 1
 205 445 261 480 328 480 c 0
 457 480 492 403 492 308 c 0
 492 275 490 229 490 182 c 2
 490 170 l 2
 490 126 492 38 495 -2 c 1
 485 -1 465 0 449 0 c 0
 433 0 412 -1 402 -2 c 1
 406 60 410 175 410 250 c 2
 410 280 l 2
 410 351 394 430 303 430 c 0
 220 430 167 371 167 266 c 2
 167 200 l 2
 167 140 169 55 174 -2 c 1
 164 -1 143 0 127 0 c 0
 112 0 91 -1 80 -2 c 1
 84 78 87 210 87 300 c 2
 87 402 l 2
 87 492 84 670 80 748 c 1
 91 747 112 746 127 746 c 0
 143 746 164 747 176 748 c 1
 169 670 166 493 166 402 c 2
EndSplineSet
Substitution2: "Podtablica 'case' Warianty wersalikowe w +AUIA-aci+AUQA-skie w tablicy 9" H
Substitution2: "Podtablica 'smcp' Tekstowe na kapitaliki w +AUIA-aci+AUQA-skie w tablicy 5" h.sc
AlternateSubs2: "Podtablica 'aalt' Dost+ARkA-p do wszystkich alternatyw w +AUIA-aci+AUQA-skie w tablicy 1" h.sc H
EndChar

StartChar: i
Encoding: 105 105 76
Width: 255
GlyphClass: 1
Flags: MW
HStem: -2 21G 451 20G 594 106<113.5 142.5>
VStem: 75 106<632.5 661.5> 88 80<225 266 195 296>
LayerCount: 2
Fore
SplineSet
181 647 m 0xf0
 181 618 157 594 128 594 c 0
 99 594 75 618 75 647 c 0
 75 676 99 700 128 700 c 0
 157 700 181 676 181 647 c 0xf0
175 -2 m 1xe8
 164 -1 144 0 128 0 c 0
 112 0 91 -1 81 -2 c 1
 86 53 88 165 88 225 c 2
 88 266 l 2
 88 326 86 414 81 471 c 1
 91 470 112 469 128 469 c 0
 144 469 164 470 175 471 c 1
 170 412 168 326 168 266 c 2
 168 225 l 2
 168 165 170 55 175 -2 c 1xe8
EndSplineSet
Substitution2: "Podtablica 'case' Warianty wersalikowe w +AUIA-aci+AUQA-skie w tablicy 13" Idotaccent
Substitution2: "Podtablica 'case' Warianty wersalikowe w +AUIA-aci+AUQA-skie w tablicy 11" I
Substitution2: "Podtablica 'smcp' Tekstowe na kapitaliki w +AUIA-aci+AUQA-skie w tablicy 7" idotaccent.sc
Substitution2: "Podtablica 'smcp' Tekstowe na kapitaliki w +AUIA-aci+AUQA-skie w tablicy 6" i.sc
AlternateSubs2: "Podtablica 'aalt' Dost+ARkA-p do wszystkich alternatyw w +AUIA-aci+AUQA-skie w tablicy 1" i.sc idotaccent.sc I Idotaccent
EndChar

StartChar: j
Encoding: 106 106 77
Width: 255
GlyphClass: 1
Flags: MW
HStem: -277 21G<-27 -27> 451 20G 594 106<113.5 142.5>
VStem: 75 106<632.5 661.5> 88 80<186.5 201 201 225 225 232.5>
LayerCount: 2
Fore
SplineSet
181 647 m 0xf0
 181 618 157 594 128 594 c 0
 99 594 75 618 75 647 c 0
 75 676 99 700 128 700 c 0
 157 700 181 676 181 647 c 0xf0
172 -9 m 0xe8
 172 -195 94 -267 -27 -277 c 1
 -39 -251 l 1
 -36 -247 l 1
 44 -238 88 -195 88 -28 c 2
 88 201 l 2
 88 264 86 414 81 471 c 1
 92 470 112 469 128 469 c 0
 144 469 165 470 175 471 c 1
 170 412 168 326 168 266 c 2
 168 225 l 2
 168 148 172 51 172 -9 c 0xe8
EndSplineSet
Substitution2: "Podtablica 'case' Warianty wersalikowe w +AUIA-aci+AUQA-skie w tablicy 9" J
Substitution2: "Podtablica 'smcp' Tekstowe na kapitaliki w +AUIA-aci+AUQA-skie w tablicy 5" j.sc
AlternateSubs2: "Podtablica 'aalt' Dost+ARkA-p do wszystkich alternatyw w +AUIA-aci+AUQA-skie w tablicy 1" j.sc J
EndChar

StartChar: k
Encoding: 107 107 78
Width: 494
GlyphClass: 1
Flags: MW
HStem: -4 21G -2 21G 0 21G<121 136.5 437.5 453> 243 23<168 171.5> 449 20G<381 394 466 466> 452 20G<464 464>
VStem: 88 80<300 402>
LayerCount: 2
Fore
SplineSet
490 4 m 1x36
 489 -1 l 1
 474 0 460 0 446 0 c 0x36
 429 0 395 -2 380 -4 c 1x96
 324 74 232 187 190 234 c 0
 181 242 175 243 168 243 c 1
 168 225 l 2
 168 163 170 55 175 -2 c 1
 165 -1 144 0 129 0 c 0
 113 0 92 -1 81 -2 c 1
 85 78 88 210 88 300 c 2
 88 402 l 2
 88 492 85 670 81 748 c 1
 92 747 113 746 129 746 c 0
 144 746 164 747 176 748 c 1
 169 669 168 492 168 402 c 2
 168 266 l 1
 182 266 194 269 209 281 c 0
 254 317 342 411 381 469 c 1
 407 469 445 470 464 472 c 1
 466 469 l 1x5a
 400 412 313 329 259 274 c 1
 331 184 420 79 490 4 c 1x36
EndSplineSet
Substitution2: "Podtablica 'case' Warianty wersalikowe w +AUIA-aci+AUQA-skie w tablicy 9" K
Substitution2: "Podtablica 'smcp' Tekstowe na kapitaliki w +AUIA-aci+AUQA-skie w tablicy 5" k.sc
AlternateSubs2: "Podtablica 'aalt' Dost+ARkA-p do wszystkich alternatyw w +AUIA-aci+AUQA-skie w tablicy 1" k.sc K
EndChar

StartChar: l
Encoding: 108 108 79
Width: 257
GlyphClass: 1
Flags: MW
HStem: -2 21G
VStem: 88 81<300 419>
LayerCount: 2
Fore
SplineSet
176 -2 m 1
 165 -1 144 0 129 0 c 0
 113 0 92 -1 81 -2 c 1
 85 78 88 210 88 300 c 2
 88 419 l 2
 88 509 85 678 81 748 c 1
 92 747 113 746 129 746 c 0
 144 746 165 747 176 748 c 1
 172 678 169 509 169 419 c 2
 169 300 l 2
 169 210 172 79 176 -2 c 1
EndSplineSet
Substitution2: "Podtablica 'case' Warianty wersalikowe w +AUIA-aci+AUQA-skie w tablicy 9" L
Substitution2: "Podtablica 'smcp' Tekstowe na kapitaliki w +AUIA-aci+AUQA-skie w tablicy 5" l.sc
AlternateSubs2: "Podtablica 'aalt' Dost+ARkA-p do wszystkich alternatyw w +AUIA-aci+AUQA-skie w tablicy 1" l.sc L
EndChar

StartChar: m
Encoding: 109 109 80
Width: 865
GlyphClass: 1
Flags: MW
HStem: -2 21G 430 50<295 336.5 593.5 644.5> 451 20G
VStem: 86 80<225 266 266 267 170 296> 393 79<225 267 195 292 195 327> 703 80
LayerCount: 2
Fore
SplineSet
788 -2 m 1xdc
 779 -1 759 0 743 0 c 0
 727 0 706 -1 696 -2 c 1
 700 62 703 175 703 250 c 2
 703 280 l 2
 703 350 691 430 598 430 c 0
 528 430 472 369 472 267 c 2
 472 225 l 2
 472 165 473 57 479 -2 c 1
 469 -1 448 0 433 0 c 0
 417 0 396 -1 386 -2 c 1
 392 55 393 165 393 225 c 2
 393 292 l 2
 393 362 378 430 295 430 c 0xdc
 218 430 166 369 166 267 c 2
 166 200 l 2
 166 140 168 55 173 -2 c 1
 162 -1 142 0 126 0 c 0
 110 0 90 -1 79 -2 c 1
 84 54 86 165 86 225 c 2
 86 266 l 2
 86 326 84 404 79 471 c 1
 97 470 110 469 126 469 c 0
 139 469 155 470 168 471 c 1xbc
 166 445 165 418 165 385 c 1
 169 385 l 1
 204 445 260 480 330 480 c 0
 403 480 451 445 466 378 c 1
 502 441 561 480 626 480 c 0
 753 480 785 399 785 308 c 0
 785 275 783 229 783 182 c 2
 783 170 l 2
 783 126 785 40 788 -2 c 1xdc
EndSplineSet
Substitution2: "Podtablica 'case' Warianty wersalikowe w +AUIA-aci+AUQA-skie w tablicy 9" M
Substitution2: "Podtablica 'smcp' Tekstowe na kapitaliki w +AUIA-aci+AUQA-skie w tablicy 5" m.sc
AlternateSubs2: "Podtablica 'aalt' Dost+ARkA-p do wszystkich alternatyw w +AUIA-aci+AUQA-skie w tablicy 1" m.sc M
EndChar

StartChar: n
Encoding: 110 110 81
Width: 570
GlyphClass: 1
Flags: MW
HStem: -2 21G 430 50<294 348> 451 20G
VStem: 86 80<225 266 266 267 170 296> 408 80
LayerCount: 2
Fore
SplineSet
493 -2 m 1xd8
 484 -1 463 0 448 0 c 0
 432 0 411 -1 402 -2 c 1
 406 60 408 175 408 250 c 2
 408 280 l 2
 408 350 394 430 302 430 c 0xd8
 216 430 166 369 166 267 c 2
 166 200 l 2
 166 140 168 55 173 -2 c 1
 162 -1 142 0 126 0 c 0
 110 0 90 -1 79 -2 c 1
 84 54 86 165 86 225 c 2
 86 266 l 2
 86 326 84 405 79 471 c 1
 97 470 110 469 126 469 c 0
 139 469 155 470 168 471 c 1xb8
 166 445 165 418 165 386 c 1
 169 386 l 1
 204 445 261 480 327 480 c 0
 455 480 491 404 491 308 c 0
 491 275 488 229 488 182 c 2
 488 170 l 2
 488 126 490 38 493 -2 c 1xd8
EndSplineSet
Substitution2: "Podtablica 'case' Warianty wersalikowe w +AUIA-aci+AUQA-skie w tablicy 9" N
Substitution2: "Podtablica 'smcp' Tekstowe na kapitaliki w +AUIA-aci+AUQA-skie w tablicy 5" n.sc
AlternateSubs2: "Podtablica 'aalt' Dost+ARkA-p do wszystkich alternatyw w +AUIA-aci+AUQA-skie w tablicy 1" n.sc N
EndChar

StartChar: o
Encoding: 111 111 82
Width: 599
GlyphClass: 1
Flags: MW
HStem: -15 34<241.5 358 241.5 374.5> 450 34<241.5 358>
VStem: 54 93<187 283.5 187 304> 453 92<185 283.5>
LayerCount: 2
Fore
SplineSet
545 234 m 0
 545 89 449 -15 300 -15 c 0
 120 -15 54 110 54 234 c 0
 54 374 142 484 300 484 c 0
 463 484 545 383 545 234 c 0
453 234 m 0
 453 333 416 450 300 450 c 0
 183 450 147 333 147 234 c 0
 147 140 183 19 300 19 c 0
 416 19 453 136 453 234 c 0
EndSplineSet
Substitution2: "Podtablica Podstawienie pojedyncze w tablicy 30" ordmasculine
Substitution2: "Podtablica 'sups' Frakcja g+APMA-rna w +AUIA-aci+AUQA-skie w tablicy 22" ordmasculine
Substitution2: "Podtablica 'case' Warianty wersalikowe w +AUIA-aci+AUQA-skie w tablicy 9" O
Substitution2: "Podtablica 'smcp' Tekstowe na kapitaliki w +AUIA-aci+AUQA-skie w tablicy 5" o.sc
AlternateSubs2: "Podtablica 'aalt' Dost+ARkA-p do wszystkich alternatyw w +AUIA-aci+AUQA-skie w tablicy 1" o.sc O ordmasculine
EndChar

StartChar: p
Encoding: 112 112 83
Width: 602
GlyphClass: 1
Flags: MW
HStem: -13 39<280 354 257.5 398> 435 49<292.5 365.5> 451 20G
VStem: 86 79 455 93<178.5 285.5>
LayerCount: 2
Fore
SplineSet
320 -13 m 0xd8
 240 -13 192 22 169 56 c 1
 165 56 l 1
 165 -2 l 2
 165 -100 167 -200 173 -279 c 1
 162 -278 142 -277 126 -277 c 0
 110 -277 89 -278 77 -279 c 1
 82 -200 86 0 86 100 c 2
 86 201 l 2
 86 261 83 404 78 471 c 1
 96 470 109 469 125 469 c 0
 138 469 155 470 168 471 c 1xb8
 166 445 163 401 163 377 c 1
 168 377 l 1
 190 421 242 484 343 484 c 0
 491 484 548 362 548 238 c 0
 548 114 476 -13 320 -13 c 0xd8
455 236 m 0
 455 335 417 435 314 435 c 0
 247 435 194 388 176 327 c 0
 165 291 163 249 163 203 c 0
 163 94 212 26 303 26 c 0
 405 26 455 121 455 236 c 0
EndSplineSet
Substitution2: "Podtablica 'case' Warianty wersalikowe w +AUIA-aci+AUQA-skie w tablicy 9" P
Substitution2: "Podtablica 'smcp' Tekstowe na kapitaliki w +AUIA-aci+AUQA-skie w tablicy 5" p.sc
AlternateSubs2: "Podtablica 'aalt' Dost+ARkA-p do wszystkich alternatyw w +AUIA-aci+AUQA-skie w tablicy 1" p.sc P
EndChar

StartChar: q
Encoding: 113 113 84
Width: 600
GlyphClass: 1
Flags: MW
HStem: -9 43<241 312> 445 38<246.5 323.5 203.5 349.5> 451 20G
VStem: 54 93<184 295 184 300> 436 79<50 97 97 97>
LayerCount: 2
Fore
SplineSet
437 396 m 1xd8
 437 425 436 448 434 471 c 1
 448 470 464 469 480 469 c 0
 493 469 511 470 523 471 c 1xb8
 517 404 515 260 515 200 c 2
 515 100 l 2
 515 0 517 -200 523 -279 c 1
 513 -278 493 -277 477 -277 c 0
 461 -277 441 -278 428 -279 c 1
 434 -200 436 -100 436 0 c 2
 436 97 l 1
 433 97 l 1
 414 55 364 -9 260 -9 c 0
 115 -9 54 111 54 237 c 0
 54 363 125 483 282 483 c 0
 365 483 412 438 433 396 c 1
 437 396 l 1xd8
437 238 m 0
 437 338 402 445 297 445 c 0
 196 445 147 355 147 235 c 0
 147 133 190 34 292 34 c 0
 385 34 437 123 437 238 c 0
EndSplineSet
Substitution2: "Podtablica 'case' Warianty wersalikowe w +AUIA-aci+AUQA-skie w tablicy 9" Q
Substitution2: "Podtablica 'smcp' Tekstowe na kapitaliki w +AUIA-aci+AUQA-skie w tablicy 5" q.sc
AlternateSubs2: "Podtablica 'aalt' Dost+ARkA-p do wszystkich alternatyw w +AUIA-aci+AUQA-skie w tablicy 1" q.sc Q
EndChar

StartChar: r
Encoding: 114 114 85
Width: 342
GlyphClass: 1
Flags: MW
HStem: -2 21G 412 59 412 66<276.5 283>
VStem: 86 80<225 265 193 266 193 296>
LayerCount: 2
Fore
SplineSet
356 466 m 1xd0
 349 451 338 418 334 398 c 1
 328 397 l 1
 314 408 293 412 273 412 c 0xb0
 202 412 166 344 166 265 c 2
 166 223 l 2
 166 163 168 55 173 -2 c 1
 162 -1 142 0 126 0 c 0
 110 0 89 -1 79 -2 c 1
 84 53 86 165 86 225 c 2
 86 266 l 2
 86 326 84 413 79 471 c 1
 89 470 110 469 126 469 c 0
 142 469 158 470 167 471 c 1xd0
 164 445 162 397 162 368 c 1
 166 368 l 1
 201 443 248 478 305 478 c 0xb0
 323 478 342 475 354 471 c 1
 356 466 l 1xd0
EndSplineSet
Substitution2: "Podtablica 'case' Warianty wersalikowe w +AUIA-aci+AUQA-skie w tablicy 9" R
Substitution2: "Podtablica 'smcp' Tekstowe na kapitaliki w +AUIA-aci+AUQA-skie w tablicy 5" r.sc
AlternateSubs2: "Podtablica 'aalt' Dost+ARkA-p do wszystkich alternatyw w +AUIA-aci+AUQA-skie w tablicy 1" r.sc R
EndChar

StartChar: s
Encoding: 115 115 86
Width: 398
GlyphClass: 1
Flags: MW
HStem: -11 35<151 201.5 151 212> 449 33<192 241 180.5 242.5> 462 20G<180.5 241>
VStem: 57 71<344.5 395.5> 274 77<96.5 143.5> 302 14<378 378>
LayerCount: 2
Fore
SplineSet
351 148 m 0xd8
 351 45 264 -11 160 -11 c 0
 112 -11 58 4 35 17 c 1
 37 38 44 71 53 101 c 1
 67 101 l 1
 81 48 127 24 175 24 c 0
 228 24 274 51 274 114 c 0xd8
 274 173 239 191 167 216 c 0
 108 237 57 262 57 346 c 0
 57 445 143 482 218 482 c 0xd4
 264 482 311 472 337 460 c 1
 329 439 321 403 316 378 c 1xb4
 302 378 l 1xd4
 291 421 270 449 215 449 c 0
 169 449 128 427 128 371 c 0
 128 318 166 297 223 279 c 0
 304 253 351 220 351 148 c 0xd8
EndSplineSet
Substitution2: "Podtablica 'case' Warianty wersalikowe w +AUIA-aci+AUQA-skie w tablicy 9" S
Substitution2: "Podtablica 'smcp' Tekstowe na kapitaliki w +AUIA-aci+AUQA-skie w tablicy 5" s.sc
AlternateSubs2: "Podtablica 'aalt' Dost+ARkA-p do wszystkich alternatyw w +AUIA-aci+AUQA-skie w tablicy 1" s.sc S
EndChar

StartChar: t
Encoding: 116 116 87
Width: 305
GlyphClass: 1
Flags: MW
HStem: -7 45<147.5 245.5> 432 36<12 91 12 92 173 295>
VStem: 85 81<116.5 152.5> 92 81<468 478>
LayerCount: 2
Fore
SplineSet
299 24 m 1xe0
 266 3 220 -7 185 -7 c 0
 110 -7 85 38 85 116 c 0
 85 189 91 315 91 432 c 1
 12 432 l 1
 12 468 l 1xe0
 92 468 l 1
 92 488 92 530 90 571 c 1
 113 578 155 595 174 608 c 1
 180 605 l 1
 176 565 173 498 173 468 c 1xd0
 295 468 l 1
 295 432 l 1
 172 432 l 1
 168 346 166 237 166 152 c 0
 166 81 177 38 235 38 c 0
 256 38 281 44 293 50 c 1
 297 48 l 1
 299 24 l 1xe0
EndSplineSet
Substitution2: "Podtablica 'case' Warianty wersalikowe w +AUIA-aci+AUQA-skie w tablicy 9" T
Substitution2: "Podtablica 'smcp' Tekstowe na kapitaliki w +AUIA-aci+AUQA-skie w tablicy 5" t.sc
AlternateSubs2: "Podtablica 'aalt' Dost+ARkA-p do wszystkich alternatyw w +AUIA-aci+AUQA-skie w tablicy 1" t.sc T
EndChar

StartChar: u
Encoding: 117 117 88
Width: 569
GlyphClass: 1
Flags: MW
HStem: -11 50<220 272.5> -2 21G 451 20G
VStem: 81 80 404 80<202 203 203 244 173 269 173 299>
LayerCount: 2
Fore
SplineSet
491 -2 m 1x78
 473 -1 459 0 444 0 c 0
 430 0 414 -1 402 -2 c 1x78
 404 24 405 53 405 82 c 1
 401 82 l 1
 365 25 307 -11 238 -11 c 0
 110 -11 78 64 78 160 c 0
 78 193 81 240 81 287 c 2
 81 299 l 2
 81 343 79 431 76 471 c 1
 85 470 106 469 122 469 c 0
 138 469 158 470 168 471 c 1
 164 409 161 294 161 219 c 2
 161 189 l 2
 161 119 174 39 266 39 c 0xb8
 356 39 404 106 404 202 c 2
 404 269 l 2
 404 329 402 414 397 471 c 1
 407 470 428 469 444 469 c 0
 459 469 479 470 491 471 c 1
 486 415 484 304 484 244 c 2
 484 203 l 2
 484 143 486 64 491 -2 c 1x78
EndSplineSet
Substitution2: "Podtablica 'case' Warianty wersalikowe w +AUIA-aci+AUQA-skie w tablicy 9" U
Substitution2: "Podtablica 'smcp' Tekstowe na kapitaliki w +AUIA-aci+AUQA-skie w tablicy 5" u.sc
AlternateSubs2: "Podtablica 'aalt' Dost+ARkA-p do wszystkich alternatyw w +AUIA-aci+AUQA-skie w tablicy 1" u.sc U
EndChar

StartChar: v
Encoding: 118 118 89
Width: 467
GlyphClass: 1
Flags: MW
HStem: -2 21G -2 85 451 20G<12 12 455 455>
VStem: 9 449<469 469>
LayerCount: 2
Fore
SplineSet
458 469 m 1xb0
 391 314 293 79 265 -2 c 1
 257 -1 239 0 230 0 c 0
 221 0 208 -1 197 -2 c 1
 173 70 72 319 9 469 c 1
 12 471 l 1
 33 469 51 469 62 469 c 0
 76 469 95 470 107 471 c 1
 143 354 201 201 249 83 c 1
 252 83 l 1x70
 296 180 371 383 395 470 c 1
 406 469 415 469 424 469 c 0
 431 469 446 470 455 471 c 1
 458 469 l 1xb0
EndSplineSet
Substitution2: "Podtablica 'case' Warianty wersalikowe w +AUIA-aci+AUQA-skie w tablicy 9" V
Substitution2: "Podtablica 'smcp' Tekstowe na kapitaliki w +AUIA-aci+AUQA-skie w tablicy 5" v.sc
AlternateSubs2: "Podtablica 'aalt' Dost+ARkA-p do wszystkich alternatyw w +AUIA-aci+AUQA-skie w tablicy 1" v.sc V
EndChar

StartChar: w
Encoding: 119 119 90
Width: 761
GlyphClass: 1
Flags: MW
HStem: -2 93 364 106 450 20G 451 20G<15 15 746 746>
VStem: 12 737<469 469>
LayerCount: 2
Fore
SplineSet
749 469 m 1x98
 685 323 594 93 561 -2 c 1
 555 -1 538 0 528 0 c 0
 518 0 504 -1 496 -2 c 1
 478 64 426 224 377 364 c 1
 373 364 l 1xc8
 336 266 274 91 243 -2 c 1
 236 -1 218 0 210 0 c 0
 200 0 186 -1 178 -2 c 1
 157 74 70 318 12 469 c 1
 15 471 l 1
 29 470 48 469 58 469 c 0
 73 469 94 469 107 471 c 1x98
 139 356 191 202 232 91 c 1
 235 91 l 1
 269 182 338 384 360 470 c 1
 370 469 382 468 391 468 c 0
 400 468 415 469 424 470 c 1xa8
 456 357 508 202 549 91 c 1
 552 91 l 1
 588 181 662 380 686 471 c 1
 697 470 707 469 714 469 c 0
 725 469 737 470 746 471 c 1
 749 469 l 1x98
EndSplineSet
Substitution2: "Podtablica 'case' Warianty wersalikowe w +AUIA-aci+AUQA-skie w tablicy 9" W
Substitution2: "Podtablica 'smcp' Tekstowe na kapitaliki w +AUIA-aci+AUQA-skie w tablicy 5" w.sc
AlternateSubs2: "Podtablica 'aalt' Dost+ARkA-p do wszystkich alternatyw w +AUIA-aci+AUQA-skie w tablicy 1" w.sc W
EndChar

StartChar: x
Encoding: 120 120 91
Width: 479
GlyphClass: 1
Flags: MW
HStem: 0 21G<16 16 50 61.5 395.5 408 463 463> 255 21G 451 20G<27 27 449 449>
VStem: 16 447<0 0>
LayerCount: 2
Fore
SplineSet
463 0 m 1
 460 -2 l 1
 444 -1 414 0 402 0 c 0
 389 0 368 -1 353 -2 c 1
 314 63 268 131 222 197 c 1
 176 134 124 57 88 -2 c 1
 79 -1 67 0 56 0 c 0
 44 0 27 -1 18 -2 c 1
 16 0 l 1
 75 69 141 150 200 227 c 1
 149 302 81 397 24 469 c 1
 27 471 l 1
 43 470 68 469 85 469 c 0
 98 469 119 470 131 471 c 1
 168 410 210 344 251 284 c 1
 297 343 353 425 381 471 c 1
 389 470 401 469 410 469 c 0
 421 469 438 470 449 471 c 1
 452 469 l 1
 399 411 330 327 273 255 c 1
 331 171 397 83 463 0 c 1
EndSplineSet
Substitution2: "Podtablica 'case' Warianty wersalikowe w +AUIA-aci+AUQA-skie w tablicy 9" X
Substitution2: "Podtablica 'smcp' Tekstowe na kapitaliki w +AUIA-aci+AUQA-skie w tablicy 5" x.sc
AlternateSubs2: "Podtablica 'aalt' Dost+ARkA-p do wszystkich alternatyw w +AUIA-aci+AUQA-skie w tablicy 1" x.sc X
EndChar

StartChar: y
Encoding: 121 121 92
Width: 476
GlyphClass: 1
Flags: MW
HStem: -277 21G<78 78 114 123.5> 451 20G<12 12 464 464>
VStem: 9 458<469 469>
LayerCount: 2
Fore
SplineSet
467 469 m 1
 417 361 338 184 259 0 c 0
 220 -89 176 -202 151 -279 c 1
 142 -278 128 -277 119 -277 c 0
 109 -277 94 -278 81 -279 c 1
 78 -277 l 1
 132 -179 184 -68 209 -5 c 1
 181 68 74 326 9 469 c 1
 12 471 l 1
 31 469 54 469 65 469 c 0
 79 469 98 470 110 471 c 1
 146 359 214 185 253 93 c 1
 256 93 l 1
 297 183 376 383 402 471 c 1
 413 470 425 469 433 469 c 0
 441 469 455 470 464 471 c 1
 467 469 l 1
EndSplineSet
Substitution2: "Podtablica 'case' Warianty wersalikowe w +AUIA-aci+AUQA-skie w tablicy 9" Y
Substitution2: "Podtablica 'smcp' Tekstowe na kapitaliki w +AUIA-aci+AUQA-skie w tablicy 5" y.sc
AlternateSubs2: "Podtablica 'aalt' Dost+ARkA-p do wszystkich alternatyw w +AUIA-aci+AUQA-skie w tablicy 1" y.sc Y
EndChar

StartChar: z
Encoding: 122 122 93
Width: 456
GlyphClass: 1
Flags: MW
HStem: -1 21G 1 39<181 210> 430 41 455 16<431 433>
VStem: 7 426
LayerCount: 2
Fore
SplineSet
433 455 m 1x58
 319 308 187 128 127 41 c 1
 144 40 168 40 194 40 c 0
 271 40 361 45 432 56 c 1
 431 43 431 34 431 27 c 0
 431 20 431 12 432 -1 c 1
 348 0 236 1 184 1 c 0x68
 114 1 44 0 8 -2 c 1
 7 14 l 1
 107 137 265 347 317 428 c 1
 303 429 279 430 258 430 c 0
 191 430 111 426 57 416 c 1
 58 431 58 440 58 447 c 0
 58 453 58 459 57 471 c 1
 115 469 218 468 303 468 c 0
 353 468 404 469 431 471 c 1xa8
 433 455 l 1x58
EndSplineSet
Substitution2: "Podtablica 'case' Warianty wersalikowe w +AUIA-aci+AUQA-skie w tablicy 9" Z
Substitution2: "Podtablica 'smcp' Tekstowe na kapitaliki w +AUIA-aci+AUQA-skie w tablicy 5" z.sc
AlternateSubs2: "Podtablica 'aalt' Dost+ARkA-p do wszystkich alternatyw w +AUIA-aci+AUQA-skie w tablicy 1" z.sc Z
EndChar

StartChar: braceleft
Encoding: 123 123 94
Width: 293
GlyphClass: 1
Flags: MW
HStem: -91 24 742 24
VStem: 10 54<337 339 337 349 337 349> 90 61
LayerCount: 2
Fore
SplineSet
253 -91 m 1
 169 -91 l 2
 93 -91 85 -61 87 19 c 2
 93 227 l 2xd0
 95 286 76 325 10 327 c 1
 10 349 l 1xf0
 76 351 95 390 93 449 c 2
 87 657 l 2
 85 737 93 767 169 767 c 2
 253 767 l 1
 253 745 l 1
 214 740 l 2
 161 735 151 718 151 648 c 2
 151 465 l 2
 151 389 126 360 64 339 c 1
 64 337 l 1
 126 316 151 287 151 211 c 2
 151 28 l 2
 151 -42 161 -59 214 -64 c 2
 253 -69 l 1
 253 -91 l 1
EndSplineSet
Substitution2: "Podtablica 'salt' Alternatywy stylistyczne w +AUIA-aci+AUQA-skie w tablicy 29" braceleft.alt
EndChar

StartChar: bar
Encoding: 124 124 95
Width: 262
GlyphClass: 1
Flags: MW
HStem: -111 884<105 105 155 155>
VStem: 111 39<118 546>
LayerCount: 2
Fore
SplineSet
155 -111 m 1
 146 -110 138 -110 130 -110 c 0
 123 -110 115 -110 105 -111 c 1
 108 -63 111 43 111 118 c 2
 111 546 l 2
 111 621 108 725 105 773 c 1
 115 772 123 772 130 772 c 0
 138 772 146 772 155 773 c 1
 152 725 150 621 150 546 c 2
 150 118 l 2
 150 41 152 -63 155 -111 c 1
EndSplineSet
EndChar

StartChar: braceright
Encoding: 125 125 96
Width: 293
GlyphClass: 1
Flags: MW
HStem: -91 24 742 24
VStem: 142 61 229 54<337 339 339 339>
LayerCount: 2
Fore
SplineSet
40 -91 m 1
 40 -69 l 1
 79 -64 l 2
 132 -59 142 -42 142 28 c 2
 142 211 l 2
 142 287 167 316 229 337 c 1
 229 339 l 1
 167 360 142 389 142 465 c 2
 142 648 l 2
 142 718 132 735 79 740 c 2
 40 745 l 1
 40 767 l 1
 124 767 l 2
 200 767 208 737 206 657 c 2
 200 449 l 2xe0
 198 390 217 351 283 349 c 1
 283 327 l 1xf0
 217 325 198 286 200 227 c 2
 206 19 l 2
 208 -61 200 -91 124 -91 c 2
 40 -91 l 1
EndSplineSet
Substitution2: "Podtablica 'salt' Alternatywy stylistyczne w +AUIA-aci+AUQA-skie w tablicy 29" braceright.alt
EndChar

StartChar: asciitilde
Encoding: 126 126 97
Width: 480
GlyphClass: 1
Flags: MW
HStem: 244 44<326 367.5 326 371> 253 21G<21 21> 323 43<110 152>
VStem: 21 437<253 359>
LayerCount: 2
Fore
SplineSet
458 359 m 1xb0
 444 308 410 244 332 244 c 0xb0
 304 244 272 253 232 284 c 0
 190 315 167 323 137 323 c 0
 83 323 61 280 48 243 c 1
 21 253 l 1x70
 35 303 69 366 147 366 c 0
 175 366 205 360 249 326 c 0
 288 297 311 288 341 288 c 0
 394 288 419 330 432 367 c 1
 458 359 l 1xb0
EndSplineSet
EndChar

StartChar: Agrave
Encoding: 192 192 99
Width: 655
GlyphClass: 1
Flags: MW
HStem: 0 21G<10 10 43.5 55.5 573.5 589 644 644> 263 43 733 166<229 366 229 340>
VStem: 10 634<0 0> 202 166<736 885>
LayerCount: 2
Fore
SplineSet
644 0 m 1xd0
 641 -2 l 1
 624 -1 597 0 581 0 c 0
 566 0 548 -1 531 -2 c 1
 511 66 474 169 438 263 c 1
 403 264 349 264 305 264 c 0
 264 264 226 264 185 263 c 1
 142 161 104 60 86 -2 c 1
 75 -1 61 0 50 0 c 0
 37 0 21 -1 12 -2 c 1
 10 0 l 1
 121 227 237 469 340 701 c 1
 356 701 l 1
 446 468 594 105 644 0 c 1xd0
422 306 m 1
 402 361 351 496 320 572 c 1
 290 508 232 379 202 306 c 1
 231 305 275 305 309 305 c 0
 346 305 394 305 422 306 c 1
368 736 m 1x28
 366 733 l 1
 340 733 l 1
 307 764 248 822 217 852 c 0
 209 860 202 868 202 876 c 0
 202 894 220 899 238 899 c 0
 256 899 263 890 272 875 c 0
 291 846 333 785 368 736 c 1x28
EndSplineSet
Substitution2: "Podtablica 'c2sc' Wersaliki na kapitaliki w +AUIA-aci+AUQA-skie w tablicy 8" agrave.sc
Substitution2: "Podtablica 'aalt' Dost+ARkA-p do wszystkich alternatyw w +AUIA-aci+AUQA-skie w tablicy 0" agrave.sc
EndChar

StartChar: Aacute
Encoding: 193 193 100
Width: 655
GlyphClass: 1
Flags: MW
HStem: 0 21G<10 10 43.5 55.5 573.5 589 644 644> 263 43 731 166<311 449 311 449>
VStem: 10 634<0 0> 309 166<734 883>
LayerCount: 2
Fore
SplineSet
644 0 m 1xd0
 641 -2 l 1
 624 -1 597 0 581 0 c 0
 566 0 548 -1 531 -2 c 1
 511 66 474 169 438 263 c 1
 403 264 349 264 305 264 c 0
 264 264 226 264 185 263 c 1
 142 161 104 60 86 -2 c 1
 75 -1 61 0 50 0 c 0
 37 0 21 -1 12 -2 c 1
 10 0 l 1
 121 227 237 469 340 701 c 1
 356 701 l 1
 446 468 594 105 644 0 c 1xd0
422 306 m 1
 402 361 351 496 320 572 c 1
 290 508 232 379 202 306 c 1
 231 305 275 305 309 305 c 0
 346 305 394 305 422 306 c 1
475 874 m 0x28
 475 866 469 858 460 850 c 0
 430 820 370 762 337 731 c 1
 311 731 l 1
 309 734 l 1
 344 783 387 844 405 873 c 0
 414 888 421 897 440 897 c 0
 458 897 475 892 475 874 c 0x28
EndSplineSet
Substitution2: "Podtablica 'c2sc' Wersaliki na kapitaliki w +AUIA-aci+AUQA-skie w tablicy 8" aacute.sc
Substitution2: "Podtablica 'aalt' Dost+ARkA-p do wszystkich alternatyw w +AUIA-aci+AUQA-skie w tablicy 0" aacute.sc
EndChar

StartChar: Acircumflex
Encoding: 194 194 101
Width: 655
GlyphClass: 1
Flags: MW
HStem: 0 21G<10 10 43.5 55.5 573.5 589 644 644> 263 43 745 170<233 357 339 463>
VStem: 10 634<0 0> 204 288<751 755 751 755>
LayerCount: 2
Fore
SplineSet
644 0 m 1xd0
 641 -2 l 1
 624 -1 597 0 581 0 c 0
 566 0 548 -1 531 -2 c 1
 511 66 474 169 438 263 c 1
 403 264 349 264 305 264 c 0
 264 264 226 264 185 263 c 1
 142 161 104 60 86 -2 c 1
 75 -1 61 0 50 0 c 0
 37 0 21 -1 12 -2 c 1
 10 0 l 1
 121 227 237 469 340 701 c 1
 356 701 l 1
 446 468 594 105 644 0 c 1xd0
422 306 m 1
 402 361 351 496 320 572 c 1
 290 508 232 379 202 306 c 1
 231 305 275 305 309 305 c 0
 346 305 394 305 422 306 c 1
492 751 m 1x28
 463 745 l 1
 348 849 l 1
 233 745 l 1
 204 751 l 1
 204 755 l 1
 241 795 298 862 339 915 c 1
 357 915 l 1
 398 862 455 795 492 755 c 1
 492 751 l 1x28
EndSplineSet
Substitution2: "Podtablica 'c2sc' Wersaliki na kapitaliki w +AUIA-aci+AUQA-skie w tablicy 8" acircumflex.sc
Substitution2: "Podtablica 'aalt' Dost+ARkA-p do wszystkich alternatyw w +AUIA-aci+AUQA-skie w tablicy 0" acircumflex.sc
EndChar

StartChar: Atilde
Encoding: 195 195 102
Width: 655
GlyphClass: 1
Flags: MW
HStem: 0 21G<10 10 43.5 55.5 573.5 589 644 644> 263 43 757 51<424 443.5> 819 51<252 273> 843 20G<490 490>
VStem: 10 634<0 0> 182 331<770 856>
LayerCount: 2
Fore
SplineSet
644 0 m 1xc4
 641 -2 l 1
 624 -1 597 0 581 0 c 0
 566 0 548 -1 531 -2 c 1
 511 66 474 169 438 263 c 1
 403 264 349 264 305 264 c 0
 264 264 226 264 185 263 c 1
 142 161 104 60 86 -2 c 1
 75 -1 61 0 50 0 c 0
 37 0 21 -1 12 -2 c 1
 10 0 l 1
 121 227 237 469 340 701 c 1
 356 701 l 1
 446 468 594 105 644 0 c 1xc4
422 306 m 1
 402 361 351 496 320 572 c 1
 290 508 232 379 202 306 c 1
 231 305 275 305 309 305 c 0
 346 305 394 305 422 306 c 1
513 856 m 1x2a
 498 799 469 757 418 757 c 0x2a
 388 757 363 769 330 791 c 0
 303 810 282 819 264 819 c 0
 236 819 218 805 204 762 c 1
 182 770 l 1
 199 826 223 870 281 870 c 0x32
 309 870 335 859 368 837 c 0
 393 820 415 808 433 808 c 0
 463 808 476 825 490 863 c 1
 513 856 l 1x2a
EndSplineSet
Substitution2: "Podtablica 'c2sc' Wersaliki na kapitaliki w +AUIA-aci+AUQA-skie w tablicy 8" atilde.sc
Substitution2: "Podtablica 'aalt' Dost+ARkA-p do wszystkich alternatyw w +AUIA-aci+AUQA-skie w tablicy 0" atilde.sc
EndChar

StartChar: Adieresis
Encoding: 196 196 103
Width: 655
GlyphClass: 1
Flags: MW
HStem: 0 21G<10 10 43.5 55.5 573.5 589 644 644> 263 43 767 93<239 265 429.5 455.5>
VStem: 10 634<0 0> 205 94<801 827 801 827> 395 95<801 827 801 827>
LayerCount: 2
Fore
SplineSet
644 0 m 1xd0
 641 -2 l 1
 624 -1 597 0 581 0 c 0
 566 0 548 -1 531 -2 c 1
 511 66 474 169 438 263 c 1
 403 264 349 264 305 264 c 0
 264 264 226 264 185 263 c 1
 142 161 104 60 86 -2 c 1
 75 -1 61 0 50 0 c 0
 37 0 21 -1 12 -2 c 1
 10 0 l 1
 121 227 237 469 340 701 c 1
 356 701 l 1
 446 468 594 105 644 0 c 1xd0
422 306 m 1
 402 361 351 496 320 572 c 1
 290 508 232 379 202 306 c 1
 231 305 275 305 309 305 c 0
 346 305 394 305 422 306 c 1
490 814 m 0x2c
 490 788 468 767 443 767 c 0
 416 767 395 787 395 814 c 0
 395 840 416 860 443 860 c 0
 468 860 490 840 490 814 c 0x2c
299 814 m 0
 299 788 278 767 252 767 c 0
 226 767 205 787 205 814 c 0
 205 840 226 860 252 860 c 0
 278 860 299 840 299 814 c 0
EndSplineSet
Substitution2: "Podtablica 'c2sc' Wersaliki na kapitaliki w +AUIA-aci+AUQA-skie w tablicy 8" adieresis.sc
Substitution2: "Podtablica 'aalt' Dost+ARkA-p do wszystkich alternatyw w +AUIA-aci+AUQA-skie w tablicy 0" adieresis.sc
EndChar

StartChar: Amacron
Encoding: 256 256 104
Width: 655
GlyphClass: 1
Flags: MW
HStem: 0 21G<10 10 43.5 55.5 573.5 589 644 644> 263 43 773 41<209 486 209 486>
VStem: 10 634<0 0> 209 277<773 814 773 814>
LayerCount: 2
Fore
SplineSet
644 0 m 1xd0
 641 -2 l 1
 624 -1 597 0 581 0 c 0
 566 0 548 -1 531 -2 c 1
 511 66 474 169 438 263 c 1
 403 264 349 264 305 264 c 0
 264 264 226 264 185 263 c 1
 142 161 104 60 86 -2 c 1
 75 -1 61 0 50 0 c 0
 37 0 21 -1 12 -2 c 1
 10 0 l 1
 121 227 237 469 340 701 c 1
 356 701 l 1
 446 468 594 105 644 0 c 1xd0
422 306 m 1
 402 361 351 496 320 572 c 1
 290 508 232 379 202 306 c 1
 231 305 275 305 309 305 c 0
 346 305 394 305 422 306 c 1
486 773 m 1x28
 209 773 l 1
 209 814 l 1
 486 814 l 1
 486 773 l 1x28
EndSplineSet
Substitution2: "Podtablica 'c2sc' Wersaliki na kapitaliki w +AUIA-aci+AUQA-skie w tablicy 8" amacron.sc
Substitution2: "Podtablica 'aalt' Dost+ARkA-p do wszystkich alternatyw w +AUIA-aci+AUQA-skie w tablicy 0" amacron.sc
EndChar

StartChar: Abreve
Encoding: 258 258 105
Width: 655
GlyphClass: 1
Flags: MW
HStem: 0 21G<10 10 43.5 55.5 573.5 589 644 644> 263 43 753 55<312 386 312 394>
VStem: 10 634<0 0> 210 277<879 881>
LayerCount: 2
Fore
SplineSet
644 0 m 1xd0
 641 -2 l 1
 624 -1 597 0 581 0 c 0
 566 0 548 -1 531 -2 c 1
 511 66 474 169 438 263 c 1
 403 264 349 264 305 264 c 0
 264 264 226 264 185 263 c 1
 142 161 104 60 86 -2 c 1
 75 -1 61 0 50 0 c 0
 37 0 21 -1 12 -2 c 1
 10 0 l 1
 121 227 237 469 340 701 c 1
 356 701 l 1
 446 468 594 105 644 0 c 1xd0
422 306 m 1
 402 361 351 496 320 572 c 1
 290 508 232 379 202 306 c 1
 231 305 275 305 309 305 c 0
 346 305 394 305 422 306 c 1
487 881 m 1x28
 478 811 439 753 349 753 c 0
 259 753 220 810 210 879 c 1
 230 888 l 1
 247 836 275 808 349 808 c 0
 423 808 451 836 467 888 c 1
 487 881 l 1x28
EndSplineSet
Substitution2: "Podtablica 'c2sc' Wersaliki na kapitaliki w +AUIA-aci+AUQA-skie w tablicy 8" abreve.sc
Substitution2: "Podtablica 'aalt' Dost+ARkA-p do wszystkich alternatyw w +AUIA-aci+AUQA-skie w tablicy 0" abreve.sc
EndChar

StartChar: Aring
Encoding: 197 197 106
Width: 655
GlyphClass: 1
Flags: MW
HStem: 0 21G<10 10 44 56.5 574.5 589.5 644 644> 263 43 636 16 823 22<320 367.5>
VStem: 230 43<716 763 716 771> 414 42<712.5 760>
LayerCount: 2
Fore
SplineSet
424 306 m 1
 404 361 353 496 322 572 c 1
 292 508 234 379 204 306 c 1
 233 305 277 305 311 305 c 0
 348 305 396 305 424 306 c 1
383 636 m 1
 469 412 598 98 644 0 c 1
 641 -2 l 1
 625 -1 597 0 582 0 c 0
 567 0 549 -1 532 -2 c 1
 513 66 475 169 439 263 c 1
 404 264 350 264 306 264 c 0
 266 264 227 264 185 263 c 1
 144 162 105 60 86 -2 c 1
 75 -1 62 0 51 0 c 0
 37 0 21 -1 13 -2 c 1
 10 0 l 1
 114 211 215 428 306 633 c 1
 257 644 230 677 230 734 c 0
 230 808 284 845 344 845 c 0
 412 845 456 806 456 739 c 0
 456 682 424 648 383 636 c 1
344 823 m 0
 296 823 273 788 273 738 c 0
 273 694 297 652 344 652 c 0
 390 652 414 687 414 738 c 0
 414 782 391 823 344 823 c 0
EndSplineSet
Substitution2: "Podtablica 'c2sc' Wersaliki na kapitaliki w +AUIA-aci+AUQA-skie w tablicy 8" aring.sc
Substitution2: "Podtablica 'aalt' Dost+ARkA-p do wszystkich alternatyw w +AUIA-aci+AUQA-skie w tablicy 0" aring.sc
EndChar

StartChar: Aogonek
Encoding: 260 260 107
Width: 655
GlyphClass: 1
Flags: MW
HStem: -228 30<517 533.5> 0 21G<10 10 43.5 55.5 567 567 567 581 644 644> 263 43
VStem: 10 634<0 0> 417 56<-154 -118.5>
LayerCount: 2
Fore
SplineSet
606 -198 m 1xe8
 584 -216 550 -228 517 -228 c 0
 465 -228 417 -205 417 -147 c 0xe8
 417 -90 453 -52 530 0 c 1
 510 67 473 169 438 263 c 1
 403 264 349 264 305 264 c 0
 264 264 226 264 185 263 c 1
 142 161 104 60 86 -2 c 1
 75 -1 61 0 50 0 c 0
 37 0 21 -1 12 -2 c 1
 10 0 l 1
 121 227 237 469 340 701 c 1
 356 701 l 1
 446 468 594 105 644 0 c 1xf0
 641 -2 l 1
 624 -1 597 0 581 0 c 2
 567 0 l 1
 500 -55 473 -89 473 -134 c 0
 473 -174 496 -198 538 -198 c 0
 558 -198 577 -192 596 -180 c 1
 606 -198 l 1xe8
422 306 m 1
 402 361 351 496 320 572 c 1
 290 508 232 379 202 306 c 1
 231 305 275 305 309 305 c 0
 346 305 394 305 422 306 c 1
EndSplineSet
Substitution2: "Podtablica 'c2sc' Wersaliki na kapitaliki w +AUIA-aci+AUQA-skie w tablicy 8" aogonek.sc
Substitution2: "Podtablica 'aalt' Dost+ARkA-p do wszystkich alternatyw w +AUIA-aci+AUQA-skie w tablicy 0" aogonek.sc
EndChar

StartChar: AE
Encoding: 198 198 108
Width: 857
GlyphClass: 1
Flags: MW
HStem: -2 44 252 41 337 42<560 618.5> 638 41<564 597.5 549 611.5> 662 20G
VStem: 476 84<227 299 252 299 294 299 299 337 379 411>
LayerCount: 2
Fore
SplineSet
565 679 m 0xf4
 630 679 731 680 797 682 c 1
 796 671 796 662 796 653 c 0xec
 796 645 796 634 797 624 c 1
 754 633 659 638 564 638 c 1xf4
 562 592 560 491 560 411 c 2
 560 379 l 1
 677 379 741 384 778 389 c 1
 777 378 777 368 777 359 c 0
 777 350 777 339 778 329 c 1
 741 335 677 337 560 337 c 1
 560 299 l 2
 560 210 562 81 564 42 c 1
 652 42 730 46 802 59 c 1
 801 43 801 34 801 28 c 0
 801 22 801 13 802 -2 c 1
 741 -1 655 1 570 1 c 0
 544 1 494 -1 470 -2 c 1
 474 78 476 157 476 227 c 2
 476 252 l 1
 439 253 392 253 349 253 c 0
 308 253 262 253 231 252 c 1
 170 162 110 61 78 -2 c 1
 67 -1 54 0 43 0 c 0
 32 0 15 -1 5 -2 c 1
 2 0 l 1
 150 212 331 477 467 682 c 1xec
 494 680 533 679 565 679 c 0xf4
476 294 m 1
 476 617 l 1
 472 617 l 1
 412 531 312 381 258 295 c 1
 286 293 327 293 361 293 c 0
 398 293 443 293 476 294 c 1
EndSplineSet
Ligature2: "Podtablica 'dpng' Diphthongs (Obsolete) w +AUIA-aci+AUQA-skie w tablicy 23" A E
Substitution2: "Podtablica 'c2sc' Wersaliki na kapitaliki w +AUIA-aci+AUQA-skie w tablicy 8" ae.sc
Substitution2: "Podtablica 'aalt' Dost+ARkA-p do wszystkich alternatyw w +AUIA-aci+AUQA-skie w tablicy 0" ae.sc
EndChar

StartChar: Cacute
Encoding: 262 262 109
Width: 682
GlyphClass: 1
Flags: MW
HStem: -15 47<364.5 475> 655 39<359.5 479.5 324 485> 733 166<391 529 391 529>
VStem: 61 103<234 453 234 456> 389 166<736 885> 616 16<559 561> 639 9<108 112>
LayerCount: 2
Fore
SplineSet
656 648 m 1
 646 623 639 595 632 561 c 1
 616 559 l 1xd4
 594 616 533 655 437 655 c 0
 282 655 164 563 164 343 c 0
 164 125 285 32 444 32 c 0
 529 32 598 65 639 112 c 1
 648 108 l 1
 647 91 643 56 639 44 c 1xd2
 602 14 524 -15 426 -15 c 0
 211 -15 61 115 61 343 c 0
 61 569 213 694 435 694 c 0
 524 694 603 673 656 648 c 1
555 876 m 0x28
 555 868 549 860 540 852 c 0
 510 822 450 764 417 733 c 1
 391 733 l 1
 389 736 l 1
 424 785 467 846 485 875 c 0
 494 890 501 899 520 899 c 0
 538 899 555 894 555 876 c 0x28
EndSplineSet
Substitution2: "Podtablica 'c2sc' Wersaliki na kapitaliki w +AUIA-aci+AUQA-skie w tablicy 8" cacute.sc
Substitution2: "Podtablica 'aalt' Dost+ARkA-p do wszystkich alternatyw w +AUIA-aci+AUQA-skie w tablicy 0" cacute.sc
EndChar

StartChar: Ccircumflex
Encoding: 264 264 110
Width: 682
GlyphClass: 1
Flags: MW
HStem: -15 47<364.5 475> 655 39<359.5 479.5 324 485> 745 170<309 433 415 539>
VStem: 61 103<234 453 234 456> 280 288<751 755 751 755> 616 16<559 561> 639 9<108 112>
LayerCount: 2
Fore
SplineSet
656 648 m 1
 646 623 639 595 632 561 c 1
 616 559 l 1xd4
 594 616 533 655 437 655 c 0
 282 655 164 563 164 343 c 0
 164 125 285 32 444 32 c 0
 529 32 598 65 639 112 c 1
 648 108 l 1
 647 91 643 56 639 44 c 1xd2
 602 14 524 -15 426 -15 c 0
 211 -15 61 115 61 343 c 0
 61 569 213 694 435 694 c 0
 524 694 603 673 656 648 c 1
568 751 m 1x28
 539 745 l 1
 424 849 l 1
 309 745 l 1
 280 751 l 1
 280 755 l 1
 317 795 374 862 415 915 c 1
 433 915 l 1
 474 862 531 795 568 755 c 1
 568 751 l 1x28
EndSplineSet
Substitution2: "Podtablica 'c2sc' Wersaliki na kapitaliki w +AUIA-aci+AUQA-skie w tablicy 8" ccircumflex.sc
Substitution2: "Podtablica 'aalt' Dost+ARkA-p do wszystkich alternatyw w +AUIA-aci+AUQA-skie w tablicy 0" ccircumflex.sc
EndChar

StartChar: Ccaron
Encoding: 268 268 111
Width: 682
GlyphClass: 1
Flags: MW
HStem: -15 47<364.5 475> 655 39<359.5 479.5 324 485> 876 20G<279 279 569 569> 881 20G<308 308 540 540>
VStem: 61 103<234 453 234 456> 279 290<892 896 892 896> 616 16<559 561> 639 9<108 112>
LayerCount: 2
Fore
SplineSet
656 648 m 1xca
 646 623 639 595 632 561 c 1
 616 559 l 1xca
 594 616 533 655 437 655 c 0
 282 655 164 563 164 343 c 0
 164 125 285 32 444 32 c 0
 529 32 598 65 639 112 c 1
 648 108 l 1
 647 91 643 56 639 44 c 1xc9
 602 14 524 -15 426 -15 c 0
 211 -15 61 115 61 343 c 0
 61 569 213 694 435 694 c 0
 524 694 603 673 656 648 c 1xca
569 892 m 1x14
 532 851 475 784 433 730 c 1
 415 730 l 1
 373 784 316 851 279 892 c 1
 279 896 l 1x14
 308 901 l 1
 424 798 l 1
 540 901 l 1x24
 569 896 l 1
 569 892 l 1x14
EndSplineSet
Substitution2: "Podtablica 'c2sc' Wersaliki na kapitaliki w +AUIA-aci+AUQA-skie w tablicy 8" ccaron.sc
Substitution2: "Podtablica 'aalt' Dost+ARkA-p do wszystkich alternatyw w +AUIA-aci+AUQA-skie w tablicy 0" ccaron.sc
EndChar

StartChar: Cdotaccent
Encoding: 266 266 112
Width: 682
GlyphClass: 1
Flags: MW
HStem: -15 47<364.5 475> 655 39<359.5 479.5 324 485> 761 105<410.5 439.5>
VStem: 61 103<234 453 234 456> 373 104<798.5 828> 616 16<559 561> 639 9<108 112>
LayerCount: 2
Fore
SplineSet
656 648 m 1
 646 623 639 595 632 561 c 1
 616 559 l 1xd4
 594 616 533 655 437 655 c 0
 282 655 164 563 164 343 c 0
 164 125 285 32 444 32 c 0
 529 32 598 65 639 112 c 1
 648 108 l 1
 647 91 643 56 639 44 c 1xd2
 602 14 524 -15 426 -15 c 0
 211 -15 61 115 61 343 c 0
 61 569 213 694 435 694 c 0
 524 694 603 673 656 648 c 1
425 866 m 0x28
 454 866 477 843 477 813 c 0
 477 784 454 761 425 761 c 0
 396 761 373 784 373 813 c 0
 373 843 396 866 425 866 c 0x28
EndSplineSet
Substitution2: "Podtablica 'c2sc' Wersaliki na kapitaliki w +AUIA-aci+AUQA-skie w tablicy 8" cdotaccent.sc
Substitution2: "Podtablica 'aalt' Dost+ARkA-p do wszystkich alternatyw w +AUIA-aci+AUQA-skie w tablicy 0" cdotaccent.sc
EndChar

StartChar: Ccedilla
Encoding: 199 199 113
Width: 682
GlyphClass: 1
Flags: MW
HStem: -237 26<402.5 420.5 393.5 445> -106 28<409.5 459> -15 47<426 475> -14 46 655 39<359.5 479.5 324 485>
VStem: 61 103<234 453 234 456> 475 55<-176 -134.5> 616 16<559 561> 639 9<108 112>
LayerCount: 2
Fore
SplineSet
398 -14 m 1xde80
 199 -4 61 124 61 343 c 0
 61 569 213 694 435 694 c 0
 524 694 603 673 656 648 c 1
 646 623 639 595 632 561 c 1
 616 559 l 1xef
 594 616 533 655 437 655 c 0
 282 655 164 563 164 343 c 0
 164 125 285 32 444 32 c 0
 529 32 598 65 639 112 c 1
 648 108 l 1
 647 91 643 56 639 44 c 1
 602 14 524 -15 426 -15 c 1xee80
 404 -81 l 1
 418 -79 432 -78 440 -78 c 0
 478 -78 530 -96 530 -149 c 0
 530 -212 476 -237 414 -237 c 0
 391 -237 356 -232 332 -226 c 1
 337 -202 l 1
 353 -207 384 -211 403 -211 c 0
 438 -211 475 -199 475 -153 c 0
 475 -116 446 -106 419 -106 c 0
 400 -106 381 -109 362 -114 c 1
 357 -101 l 1
 372 -80 386 -43 398 -14 c 1xde80
EndSplineSet
Substitution2: "Podtablica 'c2sc' Wersaliki na kapitaliki w +AUIA-aci+AUQA-skie w tablicy 8" ccedilla.sc
Substitution2: "Podtablica 'aalt' Dost+ARkA-p do wszystkich alternatyw w +AUIA-aci+AUQA-skie w tablicy 0" ccedilla.sc
EndChar

StartChar: Dcaron
Encoding: 270 270 114
Width: 782
GlyphClass: 1
Flags: MW
HStem: -2 39<335 389 293.5 446.5> 643 39<334 419.5> 876 20G<217 217 507 507> 881 20G<246 246 478 478>
VStem: 100 87<280 281 281 400> 217 290<892 896 892 896> 618 103<223 469.5>
LayerCount: 2
Fore
SplineSet
721 354 m 0xca
 721 90 534 -2 359 -2 c 0
 311 -2 240 0 195 0 c 0
 168 0 125 -1 92 -2 c 1
 97 81 100 190 100 280 c 2
 100 400 l 2
 100 490 97 599 92 682 c 1
 117 681 163 680 195 680 c 0
 243 680 309 682 359 682 c 0
 597 682 721 596 721 354 c 0xca
618 354 m 0
 618 585 501 643 338 643 c 0
 287 643 234 639 192 632 c 1
 188 570 187 468 187 400 c 2
 187 281 l 2
 187 216 188 107 192 47 c 1
 222 41 270 37 317 37 c 0
 461 37 618 92 618 354 c 0
507 892 m 1x14
 470 851 413 784 371 730 c 1
 353 730 l 1
 311 784 254 851 217 892 c 1
 217 896 l 1x14
 246 901 l 1
 362 798 l 1
 478 901 l 1x24
 507 896 l 1
 507 892 l 1x14
EndSplineSet
Substitution2: "Podtablica 'c2sc' Wersaliki na kapitaliki w +AUIA-aci+AUQA-skie w tablicy 8" dcaron.sc
Substitution2: "Podtablica 'aalt' Dost+ARkA-p do wszystkich alternatyw w +AUIA-aci+AUQA-skie w tablicy 0" dcaron.sc
EndChar

StartChar: Dcroat
Encoding: 272 272 115
Width: 782
GlyphClass: 1
Flags: MW
HStem: -2 39<334 389 293.5 446.5> 338 35<81.5 100 187 206.5> 643 39<333.5 419.5>
VStem: 100 87<280 338 245.5 338 373 400> 618 103<223 469.5>
LayerCount: 2
Fore
SplineSet
100 280 m 2
 100 338 l 1
 63 338 42 337 15 336 c 1
 16 344 16 351 16 357 c 0
 16 362 16 368 15 375 c 1
 42 374 63 373 100 373 c 1
 100 402 l 2
 100 491 97 596 92 682 c 1
 117 681 163 680 195 680 c 0
 244 680 308 682 359 682 c 0
 597 682 721 596 721 354 c 0
 721 90 534 -2 359 -2 c 0
 309 -2 240 0 195 0 c 0
 168 0 125 -1 92 -2 c 1
 97 81 100 195 100 280 c 2
187 400 m 2
 187 373 l 1
 226 373 283 374 335 375 c 1
 334 368 334 362 334 357 c 0
 334 351 334 344 335 336 c 1
 283 337 226 338 187 338 c 1
 187 279 l 2
 187 212 188 107 192 47 c 1
 222 41 270 37 317 37 c 0
 461 37 618 92 618 354 c 0
 618 585 501 643 338 643 c 0
 287 643 234 639 192 632 c 1
 188 570 187 468 187 400 c 2
EndSplineSet
Substitution2: "Podtablica 'c2sc' Wersaliki na kapitaliki w +AUIA-aci+AUQA-skie w tablicy 8" dcroat.sc
Substitution2: "Podtablica 'aalt' Dost+ARkA-p do wszystkich alternatyw w +AUIA-aci+AUQA-skie w tablicy 0" dcroat.sc
EndChar

StartChar: Eth
Encoding: 208 208 116
Width: 782
GlyphClass: 1
Flags: MW
HStem: -2 39<334 389 293.5 446.5> 338 35<81.5 100 187 206.5> 643 39<333.5 419.5>
VStem: 100 87<280 338 245.5 338 373 400> 618 103<223 469.5>
LayerCount: 2
Fore
SplineSet
100 280 m 2
 100 338 l 1
 63 338 42 337 15 336 c 1
 16 344 16 351 16 357 c 0
 16 362 16 368 15 375 c 1
 42 374 63 373 100 373 c 1
 100 402 l 2
 100 491 97 596 92 682 c 1
 117 681 163 680 195 680 c 0
 244 680 308 682 359 682 c 0
 597 682 721 596 721 354 c 0
 721 90 534 -2 359 -2 c 0
 309 -2 240 0 195 0 c 0
 168 0 125 -1 92 -2 c 1
 97 81 100 195 100 280 c 2
187 400 m 2
 187 373 l 1
 226 373 283 374 335 375 c 1
 334 368 334 362 334 357 c 0
 334 351 334 344 335 336 c 1
 283 337 226 338 187 338 c 1
 187 279 l 2
 187 212 188 107 192 47 c 1
 222 41 270 37 317 37 c 0
 461 37 618 92 618 354 c 0
 618 585 501 643 338 643 c 0
 287 643 234 639 192 632 c 1
 188 570 187 468 187 400 c 2
EndSplineSet
Substitution2: "Podtablica 'c2sc' Wersaliki na kapitaliki w +AUIA-aci+AUQA-skie w tablicy 8" eth.sc
Substitution2: "Podtablica 'aalt' Dost+ARkA-p do wszystkich alternatyw w +AUIA-aci+AUQA-skie w tablicy 0" eth.sc
EndChar

StartChar: Egrave
Encoding: 200 200 117
Width: 483
GlyphClass: 1
Flags: MW
HStem: -2 44 337 42<186 244.5> 638 44 733 166<139 276 139 250>
VStem: 100 86<300 337 379 400 400 411> 112 166<736 885>
LayerCount: 2
Fore
SplineSet
429 -2 m 1xe8
 367 -1 281 1 196 1 c 0
 171 1 115 -1 92 -2 c 1
 97 78 100 210 100 300 c 2
 100 400 l 2
 100 490 97 602 92 682 c 1
 115 681 160 679 191 679 c 0
 257 679 358 680 424 682 c 1
 423 671 423 662 423 653 c 0
 423 645 423 634 424 624 c 1
 381 633 285 638 190 638 c 1
 188 592 186 491 186 411 c 2
 186 379 l 1
 303 379 368 384 405 389 c 1
 404 378 404 368 404 359 c 0
 404 350 404 339 405 329 c 1
 368 335 303 337 186 337 c 1
 186 299 l 2
 186 210 188 81 190 42 c 1
 278 42 357 46 429 59 c 1
 428 43 428 34 428 28 c 0
 428 22 428 13 429 -2 c 1xe8
278 736 m 1x14
 276 733 l 1
 250 733 l 1
 217 764 158 822 127 852 c 0
 119 860 112 868 112 876 c 0
 112 894 130 899 148 899 c 0
 166 899 173 890 182 875 c 0
 201 846 243 785 278 736 c 1x14
EndSplineSet
Substitution2: "Podtablica 'c2sc' Wersaliki na kapitaliki w +AUIA-aci+AUQA-skie w tablicy 8" egrave.sc
Substitution2: "Podtablica 'aalt' Dost+ARkA-p do wszystkich alternatyw w +AUIA-aci+AUQA-skie w tablicy 0" egrave.sc
EndChar

StartChar: Eacute
Encoding: 201 201 118
Width: 483
GlyphClass: 1
Flags: MW
HStem: -2 44 337 42<186 244.5> 638 44 733 166<237 375 237 375>
VStem: 100 86<300 337 379 400 400 411> 235 166<736 885>
LayerCount: 2
Fore
SplineSet
429 -2 m 1
 367 -1 281 1 196 1 c 0
 171 1 115 -1 92 -2 c 1
 97 78 100 210 100 300 c 2
 100 400 l 2
 100 490 97 602 92 682 c 1
 115 681 160 679 191 679 c 0
 257 679 358 680 424 682 c 1
 423 671 423 662 423 653 c 0
 423 645 423 634 424 624 c 1
 381 633 285 638 190 638 c 1
 188 592 186 491 186 411 c 2
 186 379 l 1
 303 379 368 384 405 389 c 1
 404 378 404 368 404 359 c 0
 404 350 404 339 405 329 c 1
 368 335 303 337 186 337 c 1
 186 299 l 2
 186 210 188 81 190 42 c 1
 278 42 357 46 429 59 c 1
 428 43 428 34 428 28 c 0
 428 22 428 13 429 -2 c 1
401 876 m 0x14
 401 868 395 860 386 852 c 0
 356 822 296 764 263 733 c 1
 237 733 l 1
 235 736 l 1
 270 785 313 846 331 875 c 0
 340 890 347 899 366 899 c 0
 384 899 401 894 401 876 c 0x14
EndSplineSet
Substitution2: "Podtablica 'c2sc' Wersaliki na kapitaliki w +AUIA-aci+AUQA-skie w tablicy 8" eacute.sc
Substitution2: "Podtablica 'aalt' Dost+ARkA-p do wszystkich alternatyw w +AUIA-aci+AUQA-skie w tablicy 0" eacute.sc
EndChar

StartChar: Ecircumflex
Encoding: 202 202 119
Width: 483
GlyphClass: 1
Flags: MW
HStem: -2 44 337 42<186 244.5> 638 44 745 170<143 267 249 373>
VStem: 100 86<300 337 379 400 400 411> 114 288<751 755 751 755>
LayerCount: 2
Fore
SplineSet
429 -2 m 1xe8
 367 -1 281 1 196 1 c 0
 171 1 115 -1 92 -2 c 1
 97 78 100 210 100 300 c 2
 100 400 l 2
 100 490 97 602 92 682 c 1
 115 681 160 679 191 679 c 0
 257 679 358 680 424 682 c 1
 423 671 423 662 423 653 c 0
 423 645 423 634 424 624 c 1
 381 633 285 638 190 638 c 1
 188 592 186 491 186 411 c 2
 186 379 l 1
 303 379 368 384 405 389 c 1
 404 378 404 368 404 359 c 0
 404 350 404 339 405 329 c 1
 368 335 303 337 186 337 c 1
 186 299 l 2
 186 210 188 81 190 42 c 1
 278 42 357 46 429 59 c 1
 428 43 428 34 428 28 c 0
 428 22 428 13 429 -2 c 1xe8
402 751 m 1x14
 373 745 l 1
 258 849 l 1
 143 745 l 1
 114 751 l 1
 114 755 l 1
 151 795 208 862 249 915 c 1
 267 915 l 1
 308 862 365 795 402 755 c 1
 402 751 l 1x14
EndSplineSet
Substitution2: "Podtablica 'c2sc' Wersaliki na kapitaliki w +AUIA-aci+AUQA-skie w tablicy 8" ecircumflex.sc
Substitution2: "Podtablica 'aalt' Dost+ARkA-p do wszystkich alternatyw w +AUIA-aci+AUQA-skie w tablicy 0" ecircumflex.sc
EndChar

StartChar: Ecaron
Encoding: 282 282 120
Width: 483
GlyphClass: 1
Flags: MW
HStem: -2 44 337 42<186 244.5> 638 44 877 20G<117 117 407 407> 882 20G<146 146 378 378>
VStem: 100 86<300 337 379 400 400 411> 117 290<893 897 893 897>
LayerCount: 2
Fore
SplineSet
429 -2 m 1xe4
 367 -1 281 1 196 1 c 0
 171 1 115 -1 92 -2 c 1
 97 78 100 210 100 300 c 2
 100 400 l 2
 100 490 97 602 92 682 c 1
 115 681 160 679 191 679 c 0
 257 679 358 680 424 682 c 1
 423 671 423 662 423 653 c 0
 423 645 423 634 424 624 c 1
 381 633 285 638 190 638 c 1
 188 592 186 491 186 411 c 2
 186 379 l 1
 303 379 368 384 405 389 c 1
 404 378 404 368 404 359 c 0
 404 350 404 339 405 329 c 1
 368 335 303 337 186 337 c 1
 186 299 l 2
 186 210 188 81 190 42 c 1
 278 42 357 46 429 59 c 1
 428 43 428 34 428 28 c 0
 428 22 428 13 429 -2 c 1xe4
407 893 m 1x0a
 370 852 313 785 271 731 c 1
 253 731 l 1
 211 785 154 852 117 893 c 1
 117 897 l 1x0a
 146 902 l 1
 262 799 l 1
 378 902 l 1x12
 407 897 l 1
 407 893 l 1x0a
EndSplineSet
Substitution2: "Podtablica 'c2sc' Wersaliki na kapitaliki w +AUIA-aci+AUQA-skie w tablicy 8" ecaron.sc
Substitution2: "Podtablica 'aalt' Dost+ARkA-p do wszystkich alternatyw w +AUIA-aci+AUQA-skie w tablicy 0" ecaron.sc
EndChar

StartChar: Edieresis
Encoding: 203 203 121
Width: 483
GlyphClass: 1
Flags: MW
HStem: -2 44 337 42<186 244.5> 638 44 768 93<149 175 339.5 365.5>
VStem: 100 86<300 337 379 400 400 411> 115 94<802 828 802 828> 305 95<802 828 802 828>
LayerCount: 2
Fore
SplineSet
429 -2 m 1xe8
 367 -1 281 1 196 1 c 0
 171 1 115 -1 92 -2 c 1
 97 78 100 210 100 300 c 2
 100 400 l 2
 100 490 97 602 92 682 c 1
 115 681 160 679 191 679 c 0
 257 679 358 680 424 682 c 1
 423 671 423 662 423 653 c 0
 423 645 423 634 424 624 c 1
 381 633 285 638 190 638 c 1
 188 592 186 491 186 411 c 2
 186 379 l 1
 303 379 368 384 405 389 c 1
 404 378 404 368 404 359 c 0
 404 350 404 339 405 329 c 1
 368 335 303 337 186 337 c 1
 186 299 l 2
 186 210 188 81 190 42 c 1
 278 42 357 46 429 59 c 1
 428 43 428 34 428 28 c 0
 428 22 428 13 429 -2 c 1xe8
400 815 m 0x16
 400 789 378 768 353 768 c 0
 326 768 305 788 305 815 c 0
 305 841 326 861 353 861 c 0
 378 861 400 841 400 815 c 0x16
209 815 m 0
 209 789 188 768 162 768 c 0
 136 768 115 788 115 815 c 0
 115 841 136 861 162 861 c 0
 188 861 209 841 209 815 c 0
EndSplineSet
Substitution2: "Podtablica 'c2sc' Wersaliki na kapitaliki w +AUIA-aci+AUQA-skie w tablicy 8" edieresis.sc
Substitution2: "Podtablica 'aalt' Dost+ARkA-p do wszystkich alternatyw w +AUIA-aci+AUQA-skie w tablicy 0" edieresis.sc
EndChar

StartChar: Emacron
Encoding: 274 274 122
Width: 483
GlyphClass: 1
Flags: MW
HStem: -2 44 337 42<186 244.5> 638 44 773 41<120 397 120 397>
VStem: 100 86<300 337 379 400 400 411> 120 277<773 814 773 814>
LayerCount: 2
Fore
SplineSet
429 -2 m 1xe8
 367 -1 281 1 196 1 c 0
 171 1 115 -1 92 -2 c 1
 97 78 100 210 100 300 c 2
 100 400 l 2
 100 490 97 602 92 682 c 1
 115 681 160 679 191 679 c 0
 257 679 358 680 424 682 c 1
 423 671 423 662 423 653 c 0
 423 645 423 634 424 624 c 1
 381 633 285 638 190 638 c 1
 188 592 186 491 186 411 c 2
 186 379 l 1
 303 379 368 384 405 389 c 1
 404 378 404 368 404 359 c 0
 404 350 404 339 405 329 c 1
 368 335 303 337 186 337 c 1
 186 299 l 2
 186 210 188 81 190 42 c 1
 278 42 357 46 429 59 c 1
 428 43 428 34 428 28 c 0
 428 22 428 13 429 -2 c 1xe8
397 773 m 1x14
 120 773 l 1
 120 814 l 1
 397 814 l 1
 397 773 l 1x14
EndSplineSet
Substitution2: "Podtablica 'c2sc' Wersaliki na kapitaliki w +AUIA-aci+AUQA-skie w tablicy 8" emacron.sc
Substitution2: "Podtablica 'aalt' Dost+ARkA-p do wszystkich alternatyw w +AUIA-aci+AUQA-skie w tablicy 0" emacron.sc
EndChar

StartChar: Ebreve
Encoding: 276 276 123
Width: 483
GlyphClass: 1
Flags: MW
HStem: -2 44 337 42<186 244.5> 638 44 752 55<224 298 224 306>
VStem: 100 86<300 337 379 400 400 411> 122 277<878 880>
LayerCount: 2
Fore
SplineSet
429 -2 m 1xe8
 367 -1 281 1 196 1 c 0
 171 1 115 -1 92 -2 c 1
 97 78 100 210 100 300 c 2
 100 400 l 2
 100 490 97 602 92 682 c 1
 115 681 160 679 191 679 c 0
 257 679 358 680 424 682 c 1
 423 671 423 662 423 653 c 0
 423 645 423 634 424 624 c 1
 381 633 285 638 190 638 c 1
 188 592 186 491 186 411 c 2
 186 379 l 1
 303 379 368 384 405 389 c 1
 404 378 404 368 404 359 c 0
 404 350 404 339 405 329 c 1
 368 335 303 337 186 337 c 1
 186 299 l 2
 186 210 188 81 190 42 c 1
 278 42 357 46 429 59 c 1
 428 43 428 34 428 28 c 0
 428 22 428 13 429 -2 c 1xe8
399 880 m 1x14
 390 810 351 752 261 752 c 0
 171 752 132 809 122 878 c 1
 142 887 l 1
 159 835 187 807 261 807 c 0
 335 807 363 835 379 887 c 1
 399 880 l 1x14
EndSplineSet
Substitution2: "Podtablica 'c2sc' Wersaliki na kapitaliki w +AUIA-aci+AUQA-skie w tablicy 8" ebreve.sc
Substitution2: "Podtablica 'aalt' Dost+ARkA-p do wszystkich alternatyw w +AUIA-aci+AUQA-skie w tablicy 0" ebreve.sc
EndChar

StartChar: Edotaccent
Encoding: 278 278 124
Width: 483
GlyphClass: 1
Flags: MW
HStem: -2 44 337 42<186 244.5> 638 44 762 105<254.5 283.5>
VStem: 100 86<300 337 379 400 400 411> 217 104<799.5 829>
LayerCount: 2
Fore
SplineSet
429 -2 m 1
 367 -1 281 1 196 1 c 0
 171 1 115 -1 92 -2 c 1
 97 78 100 210 100 300 c 2
 100 400 l 2
 100 490 97 602 92 682 c 1
 115 681 160 679 191 679 c 0
 257 679 358 680 424 682 c 1
 423 671 423 662 423 653 c 0
 423 645 423 634 424 624 c 1
 381 633 285 638 190 638 c 1
 188 592 186 491 186 411 c 2
 186 379 l 1
 303 379 368 384 405 389 c 1
 404 378 404 368 404 359 c 0
 404 350 404 339 405 329 c 1
 368 335 303 337 186 337 c 1
 186 299 l 2
 186 210 188 81 190 42 c 1
 278 42 357 46 429 59 c 1
 428 43 428 34 428 28 c 0
 428 22 428 13 429 -2 c 1
269 867 m 0x14
 298 867 321 844 321 814 c 0
 321 785 298 762 269 762 c 0
 240 762 217 785 217 814 c 0
 217 844 240 867 269 867 c 0x14
EndSplineSet
Substitution2: "Podtablica 'c2sc' Wersaliki na kapitaliki w +AUIA-aci+AUQA-skie w tablicy 8" edotaccent.sc
Substitution2: "Podtablica 'aalt' Dost+ARkA-p do wszystkich alternatyw w +AUIA-aci+AUQA-skie w tablicy 0" edotaccent.sc
EndChar

StartChar: Eogonek
Encoding: 280 280 125
Width: 483
GlyphClass: 1
Flags: MW
HStem: -228 30<331 347.5> -2 44 337 42<186 244.5> 638 44
VStem: 100 86<300 337 379 400 400 411> 231 56<-154 -118.5>
LayerCount: 2
Fore
SplineSet
420 -198 m 1
 398 -216 364 -228 331 -228 c 0
 279 -228 231 -205 231 -147 c 0
 231 -90 267 -52 344 0 c 1
 298 0 247 1 196 1 c 0
 171 1 115 -1 92 -2 c 1
 97 78 100 210 100 300 c 2
 100 400 l 2
 100 490 97 602 92 682 c 1
 115 681 160 679 191 679 c 0
 257 679 358 680 424 682 c 1
 423 671 423 662 423 653 c 0
 423 645 423 634 424 624 c 1
 381 633 285 638 190 638 c 1
 188 592 186 491 186 411 c 2
 186 379 l 1
 303 379 368 384 405 389 c 1
 404 378 404 368 404 359 c 0
 404 350 404 339 405 329 c 1
 368 335 303 337 186 337 c 1
 186 299 l 2
 186 210 188 81 190 42 c 1
 278 42 357 46 429 59 c 1
 428 43 428 34 428 28 c 0
 428 22 428 13 429 -2 c 1
 414 -2 397 -1 380 -1 c 1
 314 -55 287 -89 287 -134 c 0
 287 -174 310 -198 352 -198 c 0
 372 -198 391 -192 410 -180 c 1
 420 -198 l 1
EndSplineSet
Substitution2: "Podtablica 'c2sc' Wersaliki na kapitaliki w +AUIA-aci+AUQA-skie w tablicy 8" eogonek.sc
Substitution2: "Podtablica 'aalt' Dost+ARkA-p do wszystkich alternatyw w +AUIA-aci+AUQA-skie w tablicy 0" eogonek.sc
EndChar

StartChar: Gcircumflex
Encoding: 284 284 126
Width: 755
GlyphClass: 1
Flags: MW
HStem: -14 44<357.5 478 357.5 486> 657 39<356 488> 745 170<316 440 422 546>
VStem: 61 103<245.5 448 245.5 451.5> 287 288<751 755 751 755> 590 84<58 163> 627 16<561 563>
LayerCount: 2
Fore
SplineSet
439 696 m 0xd4
 540 696 627 671 667 650 c 1
 658 625 650 597 643 563 c 1
 627 561 l 1xd2
 605 618 538 657 438 657 c 0
 274 657 164 555 164 341 c 0
 164 150 265 30 450 30 c 0
 506 30 559 40 590 58 c 1
 590 149 588 230 579 297 c 1
 597 296 615 295 631 295 c 0
 647 295 666 296 680 297 c 1
 676 248 674 187 674 139 c 0
 674 102 676 58 678 29 c 1
 675 25 l 1
 628 8 531 -14 441 -14 c 0
 206 -14 61 107 61 341 c 0
 61 562 202 696 439 696 c 0xd4
575 751 m 1x28
 546 745 l 1
 431 849 l 1
 316 745 l 1
 287 751 l 1
 287 755 l 1
 324 795 381 862 422 915 c 1
 440 915 l 1
 481 862 538 795 575 755 c 1
 575 751 l 1x28
EndSplineSet
Substitution2: "Podtablica 'c2sc' Wersaliki na kapitaliki w +AUIA-aci+AUQA-skie w tablicy 8" gcircumflex.sc
Substitution2: "Podtablica 'aalt' Dost+ARkA-p do wszystkich alternatyw w +AUIA-aci+AUQA-skie w tablicy 0" gcircumflex.sc
EndChar

StartChar: Gbreve
Encoding: 286 286 127
Width: 755
GlyphClass: 1
Flags: MW
HStem: -14 44<357.5 478 357.5 486> 657 39<356 488> 752 55<394 468 394 476>
VStem: 61 103<245.5 448 245.5 451.5> 292 277<878 880> 590 84<58 163> 627 16<561 563>
LayerCount: 2
Fore
SplineSet
439 696 m 0xd4
 540 696 627 671 667 650 c 1
 658 625 650 597 643 563 c 1
 627 561 l 1xd2
 605 618 538 657 438 657 c 0
 274 657 164 555 164 341 c 0
 164 150 265 30 450 30 c 0
 506 30 559 40 590 58 c 1
 590 149 588 230 579 297 c 1
 597 296 615 295 631 295 c 0
 647 295 666 296 680 297 c 1
 676 248 674 187 674 139 c 0
 674 102 676 58 678 29 c 1
 675 25 l 1
 628 8 531 -14 441 -14 c 0
 206 -14 61 107 61 341 c 0
 61 562 202 696 439 696 c 0xd4
569 880 m 1x28
 560 810 521 752 431 752 c 0
 341 752 302 809 292 878 c 1
 312 887 l 1
 329 835 357 807 431 807 c 0
 505 807 533 835 549 887 c 1
 569 880 l 1x28
EndSplineSet
Substitution2: "Podtablica 'c2sc' Wersaliki na kapitaliki w +AUIA-aci+AUQA-skie w tablicy 8" gbreve.sc
Substitution2: "Podtablica 'aalt' Dost+ARkA-p do wszystkich alternatyw w +AUIA-aci+AUQA-skie w tablicy 0" gbreve.sc
EndChar

StartChar: Gdotaccent
Encoding: 288 288 128
Width: 755
GlyphClass: 1
Flags: MW
HStem: -14 44<357.5 478 357.5 486> 657 39<356 488> 761 105<413.5 442.5>
VStem: 61 103<245.5 448 245.5 451.5> 376 104<798.5 828> 590 84<58 163> 627 16<561 563>
LayerCount: 2
Fore
SplineSet
439 696 m 0xd4
 540 696 627 671 667 650 c 1
 658 625 650 597 643 563 c 1
 627 561 l 1xd2
 605 618 538 657 438 657 c 0
 274 657 164 555 164 341 c 0
 164 150 265 30 450 30 c 0
 506 30 559 40 590 58 c 1
 590 149 588 230 579 297 c 1
 597 296 615 295 631 295 c 0
 647 295 666 296 680 297 c 1
 676 248 674 187 674 139 c 0
 674 102 676 58 678 29 c 1
 675 25 l 1
 628 8 531 -14 441 -14 c 0
 206 -14 61 107 61 341 c 0
 61 562 202 696 439 696 c 0xd4
428 866 m 0x28
 457 866 480 843 480 813 c 0
 480 784 457 761 428 761 c 0
 399 761 376 784 376 813 c 0
 376 843 399 866 428 866 c 0x28
EndSplineSet
Substitution2: "Podtablica 'c2sc' Wersaliki na kapitaliki w +AUIA-aci+AUQA-skie w tablicy 8" gdotaccent.sc
Substitution2: "Podtablica 'aalt' Dost+ARkA-p do wszystkich alternatyw w +AUIA-aci+AUQA-skie w tablicy 0" gdotaccent.sc
EndChar

StartChar: Gcommaaccent
Encoding: 290 290 129
Width: 755
GlyphClass: 1
Flags: MW
HStem: -243 21G<394 394> -63 20G<399 433> -14 44<357.5 478 357.5 486> 657 39<356 488>
VStem: 61 103<245.5 448 245.5 451.5> 436 50<-158 -129> 590 84<58 163> 627 16<561 563>
LayerCount: 2
Fore
SplineSet
439 696 m 0x3a
 540 696 627 671 667 650 c 1
 658 625 650 597 643 563 c 1
 627 561 l 1x39
 605 618 538 657 438 657 c 0
 274 657 164 555 164 341 c 0
 164 150 265 30 450 30 c 0
 506 30 559 40 590 58 c 1
 590 149 588 230 579 297 c 1
 597 296 615 295 631 295 c 0
 647 295 666 296 680 297 c 1
 676 248 674 187 674 139 c 0
 674 102 676 58 678 29 c 1
 675 25 l 1
 628 8 531 -14 441 -14 c 0
 206 -14 61 107 61 341 c 0
 61 562 202 696 439 696 c 0x3a
375 -231 m 1xc4
 375 -225 l 1
 410 -208 436 -179 436 -144 c 0
 436 -114 421 -87 382 -87 c 0
 377 -87 368 -88 363 -89 c 1
 360 -80 l 1
 372 -66 389 -51 399 -43 c 1
 467 -43 486 -92 486 -128 c 0
 486 -188 433 -231 394 -243 c 1
 375 -231 l 1xc4
EndSplineSet
Substitution2: "Podtablica 'c2sc' Wersaliki na kapitaliki w +AUIA-aci+AUQA-skie w tablicy 8" gcommaaccent.sc
Substitution2: "Podtablica 'aalt' Dost+ARkA-p do wszystkich alternatyw w +AUIA-aci+AUQA-skie w tablicy 0" gcommaaccent.sc
EndChar

StartChar: Hcircumflex
Encoding: 292 292 130
Width: 754
GlyphClass: 1
Flags: MW
HStem: -2 21G 344 46<186 186> 662 20G 745 170<264 388 370 494>
VStem: 100 86<300 344 390 400 400 431> 235 288<751 755 751 755> 567 86<299 300 300 344 344 344 390 400>
LayerCount: 2
Fore
SplineSet
661 -2 m 1
 647 -1 626 0 610 0 c 0
 594 0 574 -1 559 -2 c 1
 564 78 567 209 567 299 c 2
 567 344 l 1
 526 345 446 345 377 345 c 0
 308 345 227 345 186 344 c 1
 186 299 l 2
 186 210 189 78 194 -2 c 1
 180 -1 159 0 144 0 c 0
 128 0 107 -1 92 -2 c 1
 97 78 100 210 100 300 c 2
 100 400 l 2
 100 490 97 602 92 682 c 1
 107 681 128 680 144 680 c 0
 159 680 180 681 194 682 c 1
 189 602 186 521 186 431 c 2
 186 390 l 1
 227 389 317 389 377 389 c 0
 438 389 526 389 567 390 c 1
 567 431 l 2
 567 521 564 602 559 682 c 1
 574 681 594 680 610 680 c 0
 626 680 647 681 661 682 c 1
 656 602 653 490 653 400 c 2
 653 300 l 2
 653 210 656 78 661 -2 c 1
523 751 m 1x14
 494 745 l 1
 379 849 l 1
 264 745 l 1
 235 751 l 1
 235 755 l 1
 272 795 329 862 370 915 c 1
 388 915 l 1
 429 862 486 795 523 755 c 1
 523 751 l 1x14
EndSplineSet
Substitution2: "Podtablica 'c2sc' Wersaliki na kapitaliki w +AUIA-aci+AUQA-skie w tablicy 8" hcircumflex.sc
Substitution2: "Podtablica 'aalt' Dost+ARkA-p do wszystkich alternatyw w +AUIA-aci+AUQA-skie w tablicy 0" hcircumflex.sc
EndChar

StartChar: Hbar
Encoding: 294 294 131
Width: 754
GlyphClass: 1
Flags: MW
HStem: -2 21G 344 46<186 186> 474 38<186 566 186 567 186 566> 662 20G
VStem: 100 86<300 344 390 400 400 431 431 445> 567 86<299 300 300 344 344 344 390 400>
LayerCount: 2
Fore
SplineSet
661 -2 m 1
 647 -1 626 0 610 0 c 0
 594 0 574 -1 559 -2 c 1
 564 78 567 209 567 299 c 2
 567 344 l 1
 526 345 446 345 377 345 c 0
 308 345 227 345 186 344 c 1
 186 299 l 2
 186 210 189 78 194 -2 c 1
 180 -1 159 0 144 0 c 0
 128 0 107 -1 92 -2 c 1
 97 78 100 210 100 300 c 2
 100 400 l 2
 100 490 97 602 92 682 c 1
 107 681 128 680 144 680 c 0
 159 680 180 681 194 682 c 1
 190 626 187 571 186 512 c 1
 566 512 l 1
 565 571 562 626 559 682 c 1
 574 681 594 680 610 680 c 0
 626 680 647 681 661 682 c 1
 656 602 653 490 653 400 c 2
 653 300 l 2
 653 210 656 78 661 -2 c 1
567 431 m 1
 567 474 l 1
 186 474 l 1
 186 431 l 1
 186 390 l 1
 227 389 317 389 377 389 c 0
 438 389 526 389 567 390 c 1
 567 431 l 1
EndSplineSet
Substitution2: "Podtablica 'c2sc' Wersaliki na kapitaliki w +AUIA-aci+AUQA-skie w tablicy 8" hbar.sc
Substitution2: "Podtablica 'aalt' Dost+ARkA-p do wszystkich alternatyw w +AUIA-aci+AUQA-skie w tablicy 0" hbar.sc
EndChar

StartChar: Igrave
Encoding: 204 204 132
Width: 286
GlyphClass: 1
Flags: MW
HStem: -2 21G 662 20G 733 166<54 191 54 165>
VStem: 27 166<736 885> 100 86<300 400>
LayerCount: 2
Fore
SplineSet
194 -2 m 1xc8
 180 -1 159 0 144 0 c 0
 128 0 107 -1 92 -2 c 1
 97 78 100 210 100 300 c 2
 100 400 l 2
 100 490 97 602 92 682 c 1
 107 681 128 680 144 680 c 0
 159 680 180 681 194 682 c 1
 189 602 186 490 186 400 c 2
 186 300 l 2
 186 211 189 78 194 -2 c 1xc8
193 736 m 1x30
 191 733 l 1
 165 733 l 1
 132 764 73 822 42 852 c 0
 34 860 27 868 27 876 c 0
 27 894 45 899 63 899 c 0
 81 899 88 890 97 875 c 0
 116 846 158 785 193 736 c 1x30
EndSplineSet
Substitution2: "Podtablica 'c2sc' Wersaliki na kapitaliki w +AUIA-aci+AUQA-skie w tablicy 8" igrave.sc
Substitution2: "Podtablica 'aalt' Dost+ARkA-p do wszystkich alternatyw w +AUIA-aci+AUQA-skie w tablicy 0" igrave.sc
EndChar

StartChar: Iacute
Encoding: 205 205 133
Width: 286
GlyphClass: 1
Flags: MW
HStem: -2 21G 662 20G 733 166<94 232 94 232>
VStem: 92 166<736 885> 100 86<300 400>
LayerCount: 2
Fore
SplineSet
194 -2 m 1xc8
 180 -1 159 0 144 0 c 0
 128 0 107 -1 92 -2 c 1
 97 78 100 210 100 300 c 2
 100 400 l 2
 100 490 97 602 92 682 c 1
 107 681 128 680 144 680 c 0
 159 680 180 681 194 682 c 1
 189 602 186 490 186 400 c 2
 186 300 l 2
 186 211 189 78 194 -2 c 1xc8
258 876 m 0x30
 258 868 252 860 243 852 c 0
 213 822 153 764 120 733 c 1
 94 733 l 1
 92 736 l 1
 127 785 170 846 188 875 c 0
 197 890 204 899 223 899 c 0
 241 899 258 894 258 876 c 0x30
EndSplineSet
Substitution2: "Podtablica 'c2sc' Wersaliki na kapitaliki w +AUIA-aci+AUQA-skie w tablicy 8" iacute.sc
Substitution2: "Podtablica 'aalt' Dost+ARkA-p do wszystkich alternatyw w +AUIA-aci+AUQA-skie w tablicy 0" iacute.sc
EndChar

StartChar: Icircumflex
Encoding: 206 206 134
Width: 286
GlyphClass: 1
Flags: MW
HStem: -2 21G 662 20G 745 170<27 151 133 257>
VStem: -2 288<751 755 751 755> 100 86<300 400>
LayerCount: 2
Fore
SplineSet
194 -2 m 1xc8
 180 -1 159 0 144 0 c 0
 128 0 107 -1 92 -2 c 1
 97 78 100 210 100 300 c 2
 100 400 l 2
 100 490 97 602 92 682 c 1
 107 681 128 680 144 680 c 0
 159 680 180 681 194 682 c 1
 189 602 186 490 186 400 c 2
 186 300 l 2
 186 211 189 78 194 -2 c 1xc8
286 751 m 1x30
 257 745 l 1
 142 849 l 1
 27 745 l 1
 -2 751 l 1
 -2 755 l 1
 35 795 92 862 133 915 c 1
 151 915 l 1
 192 862 249 795 286 755 c 1
 286 751 l 1x30
EndSplineSet
Substitution2: "Podtablica 'c2sc' Wersaliki na kapitaliki w +AUIA-aci+AUQA-skie w tablicy 8" icircumflex.sc
Substitution2: "Podtablica 'aalt' Dost+ARkA-p do wszystkich alternatyw w +AUIA-aci+AUQA-skie w tablicy 0" icircumflex.sc
EndChar

StartChar: Itilde
Encoding: 296 296 135
Width: 286
GlyphClass: 1
Flags: MW
HStem: -2 21G 662 20G 757 51<220 239.5> 819 51<48 69> 843 20G<286 286>
VStem: -22 331<770 856> 100 86<300 400>
LayerCount: 2
Fore
SplineSet
194 -2 m 1xc2
 180 -1 159 0 144 0 c 0
 128 0 107 -1 92 -2 c 1
 97 78 100 210 100 300 c 2
 100 400 l 2
 100 490 97 602 92 682 c 1
 107 681 128 680 144 680 c 0
 159 680 180 681 194 682 c 1
 189 602 186 490 186 400 c 2
 186 300 l 2
 186 211 189 78 194 -2 c 1xc2
309 856 m 1x2c
 294 799 265 757 214 757 c 0x2c
 184 757 159 769 126 791 c 0
 99 810 78 819 60 819 c 0
 32 819 14 805 0 762 c 1
 -22 770 l 1
 -5 826 19 870 77 870 c 0x34
 105 870 131 859 164 837 c 0
 189 820 211 808 229 808 c 0
 259 808 272 825 286 863 c 1
 309 856 l 1x2c
EndSplineSet
Substitution2: "Podtablica 'c2sc' Wersaliki na kapitaliki w +AUIA-aci+AUQA-skie w tablicy 8" itilde.sc
Substitution2: "Podtablica 'aalt' Dost+ARkA-p do wszystkich alternatyw w +AUIA-aci+AUQA-skie w tablicy 0" itilde.sc
EndChar

StartChar: Idieresis
Encoding: 207 207 136
Width: 286
GlyphClass: 1
Flags: MW
HStem: -2 21G 662 20G 766 93<35 61 225.5 251.5>
VStem: 1 94<800 826 800 826> 100 86<300 400> 191 95<800 826 800 826>
LayerCount: 2
Fore
SplineSet
194 -2 m 1
 180 -1 159 0 144 0 c 0
 128 0 107 -1 92 -2 c 1
 97 78 100 210 100 300 c 2
 100 400 l 2
 100 490 97 602 92 682 c 1
 107 681 128 680 144 680 c 0
 159 680 180 681 194 682 c 1
 189 602 186 490 186 400 c 2
 186 300 l 2
 186 211 189 78 194 -2 c 1
286 813 m 0x34
 286 787 264 766 239 766 c 0
 212 766 191 786 191 813 c 0
 191 839 212 859 239 859 c 0
 264 859 286 839 286 813 c 0x34
95 813 m 0
 95 787 74 766 48 766 c 0
 22 766 1 786 1 813 c 0
 1 839 22 859 48 859 c 0
 74 859 95 839 95 813 c 0
EndSplineSet
Substitution2: "Podtablica 'c2sc' Wersaliki na kapitaliki w +AUIA-aci+AUQA-skie w tablicy 8" idieresis.sc
Substitution2: "Podtablica 'aalt' Dost+ARkA-p do wszystkich alternatyw w +AUIA-aci+AUQA-skie w tablicy 0" idieresis.sc
EndChar

StartChar: Imacron
Encoding: 298 298 137
Width: 286
GlyphClass: 1
Flags: MW
HStem: -2 21G 662 20G 773 41<4 281 4 281>
VStem: 4 277<773 814 773 814> 100 86<300 400>
LayerCount: 2
Fore
SplineSet
194 -2 m 1xc8
 180 -1 159 0 144 0 c 0
 128 0 107 -1 92 -2 c 1
 97 78 100 210 100 300 c 2
 100 400 l 2
 100 490 97 602 92 682 c 1
 107 681 128 680 144 680 c 0
 159 680 180 681 194 682 c 1
 189 602 186 490 186 400 c 2
 186 300 l 2
 186 211 189 78 194 -2 c 1xc8
281 773 m 1x30
 4 773 l 1
 4 814 l 1
 281 814 l 1
 281 773 l 1x30
EndSplineSet
Substitution2: "Podtablica 'c2sc' Wersaliki na kapitaliki w +AUIA-aci+AUQA-skie w tablicy 8" imacron.sc
Substitution2: "Podtablica 'aalt' Dost+ARkA-p do wszystkich alternatyw w +AUIA-aci+AUQA-skie w tablicy 0" imacron.sc
EndChar

StartChar: Idotaccent
Encoding: 304 304 138
Width: 286
GlyphClass: 1
Flags: MW
HStem: -2 21G 662 20G 761 105<129.5 158.5>
VStem: 92 104<798.5 828> 100 86<300 400>
LayerCount: 2
Fore
SplineSet
194 -2 m 1xc8
 180 -1 159 0 144 0 c 0
 128 0 107 -1 92 -2 c 1
 97 78 100 210 100 300 c 2
 100 400 l 2
 100 490 97 602 92 682 c 1
 107 681 128 680 144 680 c 0
 159 680 180 681 194 682 c 1
 189 602 186 490 186 400 c 2
 186 300 l 2
 186 211 189 78 194 -2 c 1xc8
144 866 m 0x30
 173 866 196 843 196 813 c 0
 196 784 173 761 144 761 c 0
 115 761 92 784 92 813 c 0
 92 843 115 866 144 866 c 0x30
EndSplineSet
EndChar

StartChar: Iogonek
Encoding: 302 302 139
Width: 286
GlyphClass: 1
Flags: MW
HStem: -228 30<117 133.5> -2 21G 662 20G
VStem: 17 56<-154 -118.5> 100 86<300 400>
LayerCount: 2
Fore
SplineSet
206 -198 m 1
 184 -216 150 -228 117 -228 c 0
 65 -228 17 -205 17 -147 c 0
 17 -90 53 -52 131 0 c 1
 117 0 103 -1 92 -2 c 1
 97 78 100 210 100 300 c 2
 100 400 l 2
 100 490 97 602 92 682 c 1
 107 681 128 680 144 680 c 0
 159 680 180 681 194 682 c 1
 189 602 186 490 186 400 c 2
 186 300 l 2
 186 211 189 78 194 -2 c 1
 186 -1 176 -1 166 0 c 1
 100 -55 73 -89 73 -134 c 0
 73 -174 96 -198 138 -198 c 0
 158 -198 177 -192 196 -180 c 1
 206 -198 l 1
EndSplineSet
Substitution2: "Podtablica 'c2sc' Wersaliki na kapitaliki w +AUIA-aci+AUQA-skie w tablicy 8" iogonek.sc
Substitution2: "Podtablica 'aalt' Dost+ARkA-p do wszystkich alternatyw w +AUIA-aci+AUQA-skie w tablicy 0" iogonek.sc
EndChar

StartChar: Jcircumflex
Encoding: 308 308 140
Width: 294
GlyphClass: 1
Flags: MW
HStem: -145 32<-22.5 24.5 -27.5 61> 662 20G 745 170<35 159 141 265>
VStem: 6 288<751 755 751 755> 112 86<312 350 350 400 312 445>
LayerCount: 2
Fore
SplineSet
204 682 m 1xc8
 199 602 198 490 198 400 c 2
 198 350 l 2
 198 274 202 167 202 120 c 0
 202 -39 141 -145 -19 -145 c 0
 -26 -145 -34 -145 -41 -144 c 1
 -50 -116 l 1
 -47 -111 l 1
 -41 -112 -32 -113 -23 -113 c 0
 72 -113 112 -37 112 126 c 2
 112 400 l 2
 112 490 108 602 102 682 c 1
 117 681 137 680 153 680 c 0
 169 680 190 681 204 682 c 1xc8
294 751 m 1x30
 265 745 l 1
 150 849 l 1
 35 745 l 1
 6 751 l 1
 6 755 l 1
 43 795 100 862 141 915 c 1
 159 915 l 1
 200 862 257 795 294 755 c 1
 294 751 l 1x30
EndSplineSet
Substitution2: "Podtablica 'c2sc' Wersaliki na kapitaliki w +AUIA-aci+AUQA-skie w tablicy 8" jcircumflex.sc
Substitution2: "Podtablica 'aalt' Dost+ARkA-p do wszystkich alternatyw w +AUIA-aci+AUQA-skie w tablicy 0" jcircumflex.sc
EndChar

StartChar: Kcommaaccent
Encoding: 310 310 141
Width: 613
GlyphClass: 1
Flags: MW
HStem: -243 21G<275 275> -63 20G<280 314> -4 21G -2 21G 0 21G<136 151.5 547.5 563> 347 22<185 188> 660 20G<136 151.5 500 514> 662 20G<587 587>
VStem: 100 85<300 347 255.5 369 369 400> 317 50<-158 -129>
LayerCount: 2
Fore
SplineSet
607 3 m 1x0d80
 605 -1 l 1
 586 0 570 0 556 0 c 0x0d80
 539 0 502 -2 484 -4 c 1x2580
 401 108 283 253 204 339 c 0
 198 345 191 347 185 347 c 1
 185 300 l 2
 185 211 188 78 193 -2 c 1
 180 -1 159 0 144 0 c 0
 128 0 107 -1 92 -2 c 1
 97 78 100 210 100 300 c 2
 100 400 l 2
 100 490 97 602 92 682 c 1
 107 681 128 680 144 680 c 0
 159 680 180 681 193 682 c 1
 188 602 185 490 185 400 c 2
 185 369 l 1
 191 369 201 371 207 374 c 0
 293 453 423 587 500 680 c 1x1580
 528 680 566 681 587 682 c 1
 590 679 l 1x0e80
 499 601 355 460 277 382 c 1
 377 262 515 97 607 3 c 1x0d80
256 -231 m 1xc040
 256 -225 l 1
 291 -208 317 -179 317 -144 c 0
 317 -114 302 -87 263 -87 c 0
 258 -87 249 -88 244 -89 c 1
 241 -80 l 1
 253 -66 270 -51 280 -43 c 1
 348 -43 367 -92 367 -128 c 0
 367 -188 314 -231 275 -243 c 1
 256 -231 l 1xc040
EndSplineSet
Substitution2: "Podtablica 'c2sc' Wersaliki na kapitaliki w +AUIA-aci+AUQA-skie w tablicy 8" kcommaaccent.sc
Substitution2: "Podtablica 'aalt' Dost+ARkA-p do wszystkich alternatyw w +AUIA-aci+AUQA-skie w tablicy 0" kcommaaccent.sc
EndChar

StartChar: Lacute
Encoding: 313 313 142
Width: 475
GlyphClass: 1
Flags: MW
HStem: -2 44 662 20G 733 166<131 269 131 269>
VStem: 100 86<300 400> 129 166<736 885>
LayerCount: 2
Fore
SplineSet
464 -2 m 1xd0
 389 -1 281 1 196 1 c 0
 172 1 115 -1 92 -2 c 1
 97 78 100 210 100 300 c 2
 100 400 l 2
 100 490 97 602 92 682 c 1
 107 681 128 680 144 680 c 0
 159 680 180 681 194 682 c 1
 189 602 186 490 186 400 c 2
 186 300 l 2
 186 210 188 82 190 42 c 1
 278 42 381 46 464 59 c 1
 463 43 463 34 463 28 c 0
 463 22 463 13 464 -2 c 1xd0
295 876 m 0x28
 295 868 289 860 280 852 c 0
 250 822 190 764 157 733 c 1
 131 733 l 1
 129 736 l 1
 164 785 207 846 225 875 c 0
 234 890 241 899 260 899 c 0
 278 899 295 894 295 876 c 0x28
EndSplineSet
Substitution2: "Podtablica 'c2sc' Wersaliki na kapitaliki w +AUIA-aci+AUQA-skie w tablicy 8" lacute.sc
Substitution2: "Podtablica 'aalt' Dost+ARkA-p do wszystkich alternatyw w +AUIA-aci+AUQA-skie w tablicy 0" lacute.sc
EndChar

StartChar: Lcaron
Encoding: 317 317 143
Width: 475
GlyphClass: 1
Flags: MW
HStem: -2 44 483 21G<303 303> 662 20G 663 20G<308 342>
VStem: 100 86<300 400> 345 50<568 597>
LayerCount: 2
Fore
SplineSet
464 -2 m 1xa8
 389 -1 281 1 196 1 c 0
 172 1 115 -1 92 -2 c 1
 97 78 100 210 100 300 c 2
 100 400 l 2
 100 490 97 602 92 682 c 1
 107 681 128 680 144 680 c 0
 159 680 180 681 194 682 c 1
 189 602 186 490 186 400 c 2
 186 300 l 2
 186 210 188 82 190 42 c 1
 278 42 381 46 464 59 c 1
 463 43 463 34 463 28 c 0
 463 22 463 13 464 -2 c 1xa8
284 495 m 1x54
 284 501 l 1
 319 518 345 547 345 582 c 0
 345 612 330 639 291 639 c 0
 286 639 277 638 272 637 c 1
 269 646 l 1
 281 660 298 675 308 683 c 1
 376 683 395 634 395 598 c 0
 395 538 342 495 303 483 c 1
 284 495 l 1x54
EndSplineSet
Substitution2: "Podtablica 'c2sc' Wersaliki na kapitaliki w +AUIA-aci+AUQA-skie w tablicy 8" lcaron.sc
Substitution2: "Podtablica 'aalt' Dost+ARkA-p do wszystkich alternatyw w +AUIA-aci+AUQA-skie w tablicy 0" lcaron.sc
EndChar

StartChar: Lcommaaccent
Encoding: 315 315 144
Width: 475
GlyphClass: 1
Flags: MW
HStem: -243 21G<230 230> -63 20G<235 269> -2 44 662 20G
VStem: 100 86<300 400> 272 50<-158 -129>
LayerCount: 2
Fore
SplineSet
464 -2 m 1
 389 -1 281 1 196 1 c 0
 172 1 115 -1 92 -2 c 1
 97 78 100 210 100 300 c 2
 100 400 l 2
 100 490 97 602 92 682 c 1
 107 681 128 680 144 680 c 0
 159 680 180 681 194 682 c 1
 189 602 186 490 186 400 c 2
 186 300 l 2
 186 210 188 82 190 42 c 1
 278 42 381 46 464 59 c 1
 463 43 463 34 463 28 c 0
 463 22 463 13 464 -2 c 1
211 -231 m 1xc4
 211 -225 l 1
 246 -208 272 -179 272 -144 c 0
 272 -114 257 -87 218 -87 c 0
 213 -87 204 -88 199 -89 c 1
 196 -80 l 1
 208 -66 225 -51 235 -43 c 1
 303 -43 322 -92 322 -128 c 0
 322 -188 269 -231 230 -243 c 1
 211 -231 l 1xc4
EndSplineSet
Substitution2: "Podtablica 'c2sc' Wersaliki na kapitaliki w +AUIA-aci+AUQA-skie w tablicy 8" lcommaaccent.sc
Substitution2: "Podtablica 'aalt' Dost+ARkA-p do wszystkich alternatyw w +AUIA-aci+AUQA-skie w tablicy 0" lcommaaccent.sc
EndChar

StartChar: Lslash
Encoding: 321 321 145
Width: 476
GlyphClass: 1
Flags: MW
HStem: -2 45 307 21G 457 20G 662 20G
VStem: 100 87<291 300 300 321 321 321 364 370 255 410 411 455>
LayerCount: 2
Fore
SplineSet
465 -2 m 1
 390 -1 282 1 197 1 c 0
 172 1 115 -1 92 -2 c 1
 97 78 100 210 100 291 c 2
 100 321 l 1
 69 302 39 283 23 272 c 1
 17 284 9 297 2 307 c 1
 26 319 63 341 100 364 c 1
 100 410 l 2
 100 500 98 592 92 682 c 1
 109 681 127 680 144 680 c 0
 161 680 178 681 195 682 c 1
 189 593 187 503 187 411 c 1
 220 432 253 453 287 477 c 1
 292 464 300 453 308 443 c 1
 267 419 227 395 187 370 c 1
 187 300 l 2
 187 210 189 82 191 43 c 1
 279 43 382 47 465 60 c 1
 464 44 464 34 464 28 c 0
 464 22 464 13 465 -2 c 1
EndSplineSet
Substitution2: "Podtablica 'c2sc' Wersaliki na kapitaliki w +AUIA-aci+AUQA-skie w tablicy 8" lslash.sc
Substitution2: "Podtablica 'aalt' Dost+ARkA-p do wszystkich alternatyw w +AUIA-aci+AUQA-skie w tablicy 0" lslash.sc
EndChar

StartChar: Ldot
Encoding: 319 319 146
Width: 475
GlyphClass: 1
Flags: MW
HStem: -2 44 379 105<359.5 388.5> 662 20G
VStem: 100 86<300 400> 322 104<416.5 446>
LayerCount: 2
Fore
SplineSet
464 -2 m 1
 389 -1 281 1 196 1 c 0
 172 1 115 -1 92 -2 c 1
 97 78 100 210 100 300 c 2
 100 400 l 2
 100 490 97 602 92 682 c 1
 107 681 128 680 144 680 c 0
 159 680 180 681 194 682 c 1
 189 602 186 490 186 400 c 2
 186 300 l 2
 186 210 188 82 190 42 c 1
 278 42 381 46 464 59 c 1
 463 43 463 34 463 28 c 0
 463 22 463 13 464 -2 c 1
374 484 m 0x48
 403 484 426 461 426 431 c 0
 426 402 403 379 374 379 c 0
 345 379 322 402 322 431 c 0
 322 461 345 484 374 484 c 0x48
EndSplineSet
Substitution2: "Podtablica 'c2sc' Wersaliki na kapitaliki w +AUIA-aci+AUQA-skie w tablicy 8" ldot.sc
Substitution2: "Podtablica 'aalt' Dost+ARkA-p do wszystkich alternatyw w +AUIA-aci+AUQA-skie w tablicy 0" ldot.sc
EndChar

StartChar: Nacute
Encoding: 323 323 147
Width: 748
GlyphClass: 1
Flags: MW
HStem: -8 21G<636 652 636 636> -2 21G 662 20G 671 20G<97 113 113 113> 732 166<352 490 352 490>
VStem: 101 45<350 400 400 463> 350 166<735 884> 603 45<199 250 250 330>
LayerCount: 2
Fore
SplineSet
652 -8 m 1xa5
 636 -8 l 1x95
 539 110 346 318 169 495 c 0
 162 502 156 509 149 519 c 1
 146 518 l 1
 146 350 l 2
 146 230 152 78 164 -2 c 1
 153 -1 137 0 127 0 c 0
 116 0 101 -1 88 -2 c 1
 98 78 101 230 101 350 c 2
 101 400 l 2
 101 526 99 641 97 691 c 1
 113 691 l 1x55
 251 535 456 316 583 191 c 0
 589 185 594 178 601 170 c 1
 603 171 l 1
 603 342 l 2
 603 462 597 602 586 682 c 1
 599 681 612 680 623 680 c 0
 633 680 649 681 661 682 c 1
 653 602 648 450 648 330 c 2
 648 250 l 2
 648 148 650 54 652 -8 c 1xa5
516 875 m 0x0a
 516 867 510 859 501 851 c 0
 471 821 411 763 378 732 c 1
 352 732 l 1
 350 735 l 1
 385 784 428 845 446 874 c 0
 455 889 462 898 481 898 c 0
 499 898 516 893 516 875 c 0x0a
EndSplineSet
Substitution2: "Podtablica 'c2sc' Wersaliki na kapitaliki w +AUIA-aci+AUQA-skie w tablicy 8" nacute.sc
Substitution2: "Podtablica 'aalt' Dost+ARkA-p do wszystkich alternatyw w +AUIA-aci+AUQA-skie w tablicy 0" nacute.sc
EndChar

StartChar: Ncaron
Encoding: 327 327 148
Width: 748
GlyphClass: 1
Flags: MW
HStem: -8 21G<636 652 636 636> -2 21G 662 20G 671 20G<97 113 113 113> 876 20G<231 231 521 521> 881 20G<260 260 492 492>
VStem: 101 45<350 400 400 463> 231 290<892 896 892 896> 603 45<199 250 250 330>
LayerCount: 2
Fore
SplineSet
652 -8 m 1xa280
 636 -8 l 1x9280
 539 110 346 318 169 495 c 0
 162 502 156 509 149 519 c 1
 146 518 l 1
 146 350 l 2
 146 230 152 78 164 -2 c 1
 153 -1 137 0 127 0 c 0
 116 0 101 -1 88 -2 c 1
 98 78 101 230 101 350 c 2
 101 400 l 2
 101 526 99 641 97 691 c 1
 113 691 l 1x5280
 251 535 456 316 583 191 c 0
 589 185 594 178 601 170 c 1
 603 171 l 1
 603 342 l 2
 603 462 597 602 586 682 c 1
 599 681 612 680 623 680 c 0
 633 680 649 681 661 682 c 1
 653 602 648 450 648 330 c 2
 648 250 l 2
 648 148 650 54 652 -8 c 1xa280
521 892 m 1x05
 484 851 427 784 385 730 c 1
 367 730 l 1
 325 784 268 851 231 892 c 1
 231 896 l 1x05
 260 901 l 1
 376 798 l 1
 492 901 l 1x09
 521 896 l 1
 521 892 l 1x05
EndSplineSet
Substitution2: "Podtablica 'c2sc' Wersaliki na kapitaliki w +AUIA-aci+AUQA-skie w tablicy 8" ncaron.sc
Substitution2: "Podtablica 'aalt' Dost+ARkA-p do wszystkich alternatyw w +AUIA-aci+AUQA-skie w tablicy 0" ncaron.sc
EndChar

StartChar: Ntilde
Encoding: 209 209 149
Width: 748
GlyphClass: 1
Flags: MW
HStem: -8 21G<636 652 636 636> -2 21G 662 20G 671 20G<97 113 113 113> 757 51<457 476.5> 819 51<285 306> 843 20G<523 523>
VStem: 101 45<350 400 400 463> 215 331<770 856> 603 45<199 250 250 330>
LayerCount: 2
Fore
SplineSet
652 -8 m 1xa140
 636 -8 l 1x9140
 539 110 346 318 169 495 c 0
 162 502 156 509 149 519 c 1
 146 518 l 1
 146 350 l 2
 146 230 152 78 164 -2 c 1
 153 -1 137 0 127 0 c 0
 116 0 101 -1 88 -2 c 1
 98 78 101 230 101 350 c 2
 101 400 l 2
 101 526 99 641 97 691 c 1
 113 691 l 1x5140
 251 535 456 316 583 191 c 0
 589 185 594 178 601 170 c 1
 603 171 l 1
 603 342 l 2
 603 462 597 602 586 682 c 1
 599 681 612 680 623 680 c 0
 633 680 649 681 661 682 c 1
 653 602 648 450 648 330 c 2
 648 250 l 2
 648 148 650 54 652 -8 c 1xa140
546 856 m 1x0a80
 531 799 502 757 451 757 c 0x0a80
 421 757 396 769 363 791 c 0
 336 810 315 819 297 819 c 0
 269 819 251 805 237 762 c 1
 215 770 l 1
 232 826 256 870 314 870 c 0x0c80
 342 870 368 859 401 837 c 0
 426 820 448 808 466 808 c 0
 496 808 509 825 523 863 c 1
 546 856 l 1x0a80
EndSplineSet
Substitution2: "Podtablica 'c2sc' Wersaliki na kapitaliki w +AUIA-aci+AUQA-skie w tablicy 8" ntilde.sc
Substitution2: "Podtablica 'aalt' Dost+ARkA-p do wszystkich alternatyw w +AUIA-aci+AUQA-skie w tablicy 0" ntilde.sc
EndChar

StartChar: Ncommaaccent
Encoding: 325 325 150
Width: 748
GlyphClass: 1
Flags: MW
HStem: -243 21G<325 325> -63 20G<330 364> -8 21G<636 652 636 636> -2 21G 662 20G 671 20G<97 113 113 113>
VStem: 101 45<350 400 400 463> 367 50<-158 -129> 603 45<199 250 250 330>
LayerCount: 2
Fore
SplineSet
652 -8 m 1x2a80
 636 -8 l 1x2680
 539 110 346 318 169 495 c 0
 162 502 156 509 149 519 c 1
 146 518 l 1
 146 350 l 2
 146 230 152 78 164 -2 c 1
 153 -1 137 0 127 0 c 0
 116 0 101 -1 88 -2 c 1
 98 78 101 230 101 350 c 2
 101 400 l 2
 101 526 99 641 97 691 c 1
 113 691 l 1x1680
 251 535 456 316 583 191 c 0
 589 185 594 178 601 170 c 1
 603 171 l 1
 603 342 l 2
 603 462 597 602 586 682 c 1
 599 681 612 680 623 680 c 0
 633 680 649 681 661 682 c 1
 653 602 648 450 648 330 c 2
 648 250 l 2
 648 148 650 54 652 -8 c 1x2a80
306 -231 m 1xc1
 306 -225 l 1
 341 -208 367 -179 367 -144 c 0
 367 -114 352 -87 313 -87 c 0
 308 -87 299 -88 294 -89 c 1
 291 -80 l 1
 303 -66 320 -51 330 -43 c 1
 398 -43 417 -92 417 -128 c 0
 417 -188 364 -231 325 -243 c 1
 306 -231 l 1xc1
EndSplineSet
Substitution2: "Podtablica 'c2sc' Wersaliki na kapitaliki w +AUIA-aci+AUQA-skie w tablicy 8" ncommaaccent.sc
Substitution2: "Podtablica 'aalt' Dost+ARkA-p do wszystkich alternatyw w +AUIA-aci+AUQA-skie w tablicy 0" ncommaaccent.sc
EndChar

StartChar: Ograve
Encoding: 210 210 151
Width: 840
GlyphClass: 1
Flags: MW
HStem: -17 39<343.5 495.5 343.5 527> 660 37<343.5 495.5> 733 166<295 432 295 406>
VStem: 60 101<235.5 447.5 235.5 449> 268 166<736 885> 679 101<235 444.5>
LayerCount: 2
Fore
SplineSet
780 340 m 0
 780 125 635 -17 419 -17 c 0
 205 -17 60 122 60 340 c 0
 60 558 205 697 419 697 c 0
 640 697 780 560 780 340 c 0
679 340 m 0
 679 549 572 660 419 660 c 0
 268 660 161 555 161 340 c 0
 161 131 268 22 419 22 c 0
 572 22 679 130 679 340 c 0
434 736 m 1x28
 432 733 l 1
 406 733 l 1
 373 764 314 822 283 852 c 0
 275 860 268 868 268 876 c 0
 268 894 286 899 304 899 c 0
 322 899 329 890 338 875 c 0
 357 846 399 785 434 736 c 1x28
EndSplineSet
Substitution2: "Podtablica 'c2sc' Wersaliki na kapitaliki w +AUIA-aci+AUQA-skie w tablicy 8" ograve.sc
Substitution2: "Podtablica 'aalt' Dost+ARkA-p do wszystkich alternatyw w +AUIA-aci+AUQA-skie w tablicy 0" ograve.sc
EndChar

StartChar: Oacute
Encoding: 211 211 152
Width: 840
GlyphClass: 1
Flags: MW
HStem: -17 39<343.5 495.5 343.5 527> 660 37<343.5 495.5> 733 166<407 545 407 545>
VStem: 60 101<235.5 447.5 235.5 449> 405 166<736 885> 679 101<235 444.5>
LayerCount: 2
Fore
SplineSet
780 340 m 0
 780 125 635 -17 419 -17 c 0
 205 -17 60 122 60 340 c 0
 60 558 205 697 419 697 c 0
 640 697 780 560 780 340 c 0
679 340 m 0
 679 549 572 660 419 660 c 0
 268 660 161 555 161 340 c 0
 161 131 268 22 419 22 c 0
 572 22 679 130 679 340 c 0
571 876 m 0x28
 571 868 565 860 556 852 c 0
 526 822 466 764 433 733 c 1
 407 733 l 1
 405 736 l 1
 440 785 483 846 501 875 c 0
 510 890 517 899 536 899 c 0
 554 899 571 894 571 876 c 0x28
EndSplineSet
Substitution2: "Podtablica 'c2sc' Wersaliki na kapitaliki w +AUIA-aci+AUQA-skie w tablicy 8" oacute.sc
Substitution2: "Podtablica 'aalt' Dost+ARkA-p do wszystkich alternatyw w +AUIA-aci+AUQA-skie w tablicy 0" oacute.sc
EndChar

StartChar: Ocircumflex
Encoding: 212 212 153
Width: 840
GlyphClass: 1
Flags: MW
HStem: -17 39<343.5 495.5 343.5 527> 660 37<343.5 495.5> 745 170<304 428 410 534>
VStem: 60 101<235.5 447.5 235.5 449> 275 288<751 755 751 755> 679 101<235 444.5>
LayerCount: 2
Fore
SplineSet
780 340 m 0
 780 125 635 -17 419 -17 c 0
 205 -17 60 122 60 340 c 0
 60 558 205 697 419 697 c 0
 640 697 780 560 780 340 c 0
679 340 m 0
 679 549 572 660 419 660 c 0
 268 660 161 555 161 340 c 0
 161 131 268 22 419 22 c 0
 572 22 679 130 679 340 c 0
563 751 m 1x28
 534 745 l 1
 419 849 l 1
 304 745 l 1
 275 751 l 1
 275 755 l 1
 312 795 369 862 410 915 c 1
 428 915 l 1
 469 862 526 795 563 755 c 1
 563 751 l 1x28
EndSplineSet
Substitution2: "Podtablica 'c2sc' Wersaliki na kapitaliki w +AUIA-aci+AUQA-skie w tablicy 8" ocircumflex.sc
Substitution2: "Podtablica 'aalt' Dost+ARkA-p do wszystkich alternatyw w +AUIA-aci+AUQA-skie w tablicy 0" ocircumflex.sc
EndChar

StartChar: Otilde
Encoding: 213 213 154
Width: 840
GlyphClass: 1
Flags: MW
HStem: -17 39<343.5 495.5 343.5 527> 660 37<343.5 495.5> 757 51<496 515.5> 819 51<324 345> 843 20G<562 562>
VStem: 60 101<235.5 447.5 235.5 449> 254 331<770 856> 679 101<235 444.5>
LayerCount: 2
Fore
SplineSet
780 340 m 0xc5
 780 125 635 -17 419 -17 c 0
 205 -17 60 122 60 340 c 0
 60 558 205 697 419 697 c 0
 640 697 780 560 780 340 c 0xc5
679 340 m 0
 679 549 572 660 419 660 c 0
 268 660 161 555 161 340 c 0
 161 131 268 22 419 22 c 0
 572 22 679 130 679 340 c 0
585 856 m 1x2a
 570 799 541 757 490 757 c 0x2a
 460 757 435 769 402 791 c 0
 375 810 354 819 336 819 c 0
 308 819 290 805 276 762 c 1
 254 770 l 1
 271 826 295 870 353 870 c 0x32
 381 870 407 859 440 837 c 0
 465 820 487 808 505 808 c 0
 535 808 548 825 562 863 c 1
 585 856 l 1x2a
EndSplineSet
Substitution2: "Podtablica 'c2sc' Wersaliki na kapitaliki w +AUIA-aci+AUQA-skie w tablicy 8" otilde.sc
Substitution2: "Podtablica 'aalt' Dost+ARkA-p do wszystkich alternatyw w +AUIA-aci+AUQA-skie w tablicy 0" otilde.sc
EndChar

StartChar: Odieresis
Encoding: 214 214 155
Width: 840
GlyphClass: 1
Flags: MW
HStem: -17 39<343.5 495.5 343.5 527> 660 37<343.5 495.5> 767 93<311 337 501.5 527.5>
VStem: 60 101<235.5 447.5 235.5 449> 277 94<801 827 801 827> 467 95<801 827 801 827> 679 101<235 444.5>
LayerCount: 2
Fore
SplineSet
780 340 m 0
 780 125 635 -17 419 -17 c 0
 205 -17 60 122 60 340 c 0
 60 558 205 697 419 697 c 0
 640 697 780 560 780 340 c 0
679 340 m 0
 679 549 572 660 419 660 c 0
 268 660 161 555 161 340 c 0
 161 131 268 22 419 22 c 0
 572 22 679 130 679 340 c 0
562 814 m 0x2c
 562 788 540 767 515 767 c 0
 488 767 467 787 467 814 c 0
 467 840 488 860 515 860 c 0
 540 860 562 840 562 814 c 0x2c
371 814 m 0
 371 788 350 767 324 767 c 0
 298 767 277 787 277 814 c 0
 277 840 298 860 324 860 c 0
 350 860 371 840 371 814 c 0
EndSplineSet
Substitution2: "Podtablica 'c2sc' Wersaliki na kapitaliki w +AUIA-aci+AUQA-skie w tablicy 8" odieresis.sc
Substitution2: "Podtablica 'aalt' Dost+ARkA-p do wszystkich alternatyw w +AUIA-aci+AUQA-skie w tablicy 0" odieresis.sc
EndChar

StartChar: Omacron
Encoding: 332 332 156
Width: 840
GlyphClass: 1
Flags: MW
HStem: -17 39<343.5 495.5 343.5 527> 660 37<343.5 495.5> 773 41<282 559 282 559>
VStem: 60 101<235.5 447.5 235.5 449> 282 277<773 814 773 814> 679 101<235 444.5>
LayerCount: 2
Fore
SplineSet
780 340 m 0
 780 125 635 -17 419 -17 c 0
 205 -17 60 122 60 340 c 0
 60 558 205 697 419 697 c 0
 640 697 780 560 780 340 c 0
679 340 m 0
 679 549 572 660 419 660 c 0
 268 660 161 555 161 340 c 0
 161 131 268 22 419 22 c 0
 572 22 679 130 679 340 c 0
559 773 m 1x28
 282 773 l 1
 282 814 l 1
 559 814 l 1
 559 773 l 1x28
EndSplineSet
Substitution2: "Podtablica 'c2sc' Wersaliki na kapitaliki w +AUIA-aci+AUQA-skie w tablicy 8" omacron.sc
Substitution2: "Podtablica 'aalt' Dost+ARkA-p do wszystkich alternatyw w +AUIA-aci+AUQA-skie w tablicy 0" omacron.sc
EndChar

StartChar: Obreve
Encoding: 334 334 157
Width: 840
GlyphClass: 1
Flags: MW
HStem: -17 39<343.5 495.5 343.5 527> 660 37<343.5 495.5> 752 55<383 457 383 465>
VStem: 60 101<235.5 447.5 235.5 449> 281 277<878 880> 679 101<235 444.5>
LayerCount: 2
Fore
SplineSet
780 340 m 0
 780 125 635 -17 419 -17 c 0
 205 -17 60 122 60 340 c 0
 60 558 205 697 419 697 c 0
 640 697 780 560 780 340 c 0
679 340 m 0
 679 549 572 660 419 660 c 0
 268 660 161 555 161 340 c 0
 161 131 268 22 419 22 c 0
 572 22 679 130 679 340 c 0
558 880 m 1x28
 549 810 510 752 420 752 c 0
 330 752 291 809 281 878 c 1
 301 887 l 1
 318 835 346 807 420 807 c 0
 494 807 522 835 538 887 c 1
 558 880 l 1x28
EndSplineSet
Substitution2: "Podtablica 'c2sc' Wersaliki na kapitaliki w +AUIA-aci+AUQA-skie w tablicy 8" obreve.sc
Substitution2: "Podtablica 'aalt' Dost+ARkA-p do wszystkich alternatyw w +AUIA-aci+AUQA-skie w tablicy 0" obreve.sc
EndChar

StartChar: Ohungarumlaut
Encoding: 336 336 158
Width: 840
GlyphClass: 1
Flags: MW
HStem: -17 39<343.5 495.5 343.5 527> 660 37<343.5 495.5> 747 167<326 459 326 459 441 507 441 482>
VStem: 60 101<235.5 447.5 235.5 449> 324 319<750 899> 679 101<235 444.5>
LayerCount: 2
Fore
SplineSet
780 340 m 0
 780 125 635 -17 419 -17 c 0
 205 -17 60 122 60 340 c 0
 60 558 205 697 419 697 c 0
 640 697 780 560 780 340 c 0
679 340 m 0
 679 549 572 660 419 660 c 0
 268 660 161 555 161 340 c 0
 161 131 268 22 419 22 c 0
 572 22 679 130 679 340 c 0
643 889 m 0x28
 643 882 637 874 629 866 c 0
 598 836 539 779 507 747 c 1
 482 747 l 1
 479 750 l 1
 514 799 556 860 574 889 c 0
 583 904 592 914 610 914 c 0
 628 914 643 909 643 889 c 0x28
483 890 m 0
 483 882 477 874 470 866 c 0
 439 835 385 780 351 747 c 1
 326 747 l 1
 324 750 l 1
 356 797 396 859 414 889 c 0
 423 904 432 914 450 914 c 0
 468 914 483 909 483 890 c 0
EndSplineSet
Substitution2: "Podtablica 'c2sc' Wersaliki na kapitaliki w +AUIA-aci+AUQA-skie w tablicy 8" ohungarumlaut.sc
Substitution2: "Podtablica 'aalt' Dost+ARkA-p do wszystkich alternatyw w +AUIA-aci+AUQA-skie w tablicy 0" ohungarumlaut.sc
EndChar

StartChar: Oslash
Encoding: 216 216 159
Width: 840
GlyphClass: 1
Flags: MW
HStem: -17 38<384.5 496.5 384.5 526> 661 36<342 450>
VStem: 60 98<292.5 445 292.5 449> 681 99<235.5 394>
LayerCount: 2
Fore
SplineSet
780 340 m 0
 780 125 633 -17 419 -17 c 0
 340 -17 269 2 211 41 c 1
 181 1 153 -40 130 -75 c 1
 119 -66 101 -53 90 -47 c 1
 115 -18 146 22 178 66 c 1
 105 126 60 221 60 340 c 0
 60 558 206 697 419 697 c 0
 491 697 554 682 608 654 c 1
 633 689 659 726 677 756 c 1
 688 746 703 735 717 727 c 1
 695 700 668 665 644 633 c 1
 730 572 780 471 780 340 c 0
681 340 m 0
 681 448 653 529 606 584 c 1
 506 449 319 190 245 85 c 1
 289 42 350 21 419 21 c 0
 574 21 681 131 681 340 c 0
577 611 m 1
 537 644 481 661 419 661 c 0
 265 661 158 550 158 340 c 0
 158 245 179 166 218 115 c 1
 291 212 482 477 577 611 c 1
EndSplineSet
Substitution2: "Podtablica 'c2sc' Wersaliki na kapitaliki w +AUIA-aci+AUQA-skie w tablicy 8" oslash.sc
Substitution2: "Podtablica 'aalt' Dost+ARkA-p do wszystkich alternatyw w +AUIA-aci+AUQA-skie w tablicy 0" oslash.sc
EndChar

StartChar: OE
Encoding: 338 338 160
Width: 1019
GlyphClass: 1
Flags: MW
HStem: -17 38<340 470> -2 44 337 42<722 780.5> 638 41<726 760 711 773.5> 660 37<340 469 308.5 492> 662 20G
VStem: 60 101<235.5 447 235.5 449> 646 76<254.5 299 299 337 379 411>
LayerCount: 2
Fore
SplineSet
727 679 m 0x73
 793 679 894 680 960 682 c 1
 959 671 959 662 959 653 c 0x67
 959 645 959 634 960 624 c 1
 917 633 821 638 726 638 c 1
 724 592 722 491 722 411 c 2
 722 379 l 1
 839 379 904 384 941 389 c 1
 940 378 940 368 940 359 c 0
 940 350 940 339 941 329 c 1
 904 335 839 337 722 337 c 1
 722 299 l 2
 722 210 724 81 726 42 c 1
 814 42 893 46 965 59 c 1
 964 43 964 34 964 28 c 0
 964 22 964 13 965 -2 c 1
 904 -1 817 1 732 1 c 0
 706 1 653 -1 633 -2 c 1x73
 634 20 635 59 635 86 c 1
 604 32 524 -17 416 -17 c 0
 201 -17 60 122 60 340 c 0
 60 558 201 697 416 697 c 0
 522 697 599 659 635 606 c 1xab
 635 632 634 659 633 682 c 1x67
 655 681 695 679 727 679 c 0x73
646 340 m 0xab
 646 548 568 660 416 660 c 0
 264 660 161 554 161 340 c 0
 161 131 264 21 416 21 c 0
 568 21 646 130 646 340 c 0xab
EndSplineSet
Ligature2: "Podtablica 'dpng' Diphthongs (Obsolete) w +AUIA-aci+AUQA-skie w tablicy 23" O E
Substitution2: "Podtablica 'c2sc' Wersaliki na kapitaliki w +AUIA-aci+AUQA-skie w tablicy 8" oe.sc
Substitution2: "Podtablica 'aalt' Dost+ARkA-p do wszystkich alternatyw w +AUIA-aci+AUQA-skie w tablicy 0" oe.sc
EndChar

StartChar: Racute
Encoding: 340 340 161
Width: 583
GlyphClass: 1
Flags: MW
HStem: -4 21G -2 21G 0 21G<135 151 518 533> 331 30<184 188.5> 646 34 646 37<233 345.5> 733 166<241 379 241 379>
VStem: 100 84<300 331 255.5 361 361 400> 239 166<736 885> 400 95<461.5 571.5>
LayerCount: 2
Fore
SplineSet
578 3 m 1x3540
 575 -1 l 1
 554 0 540 0 526 0 c 0x3540
 510 0 473 -2 458 -4 c 1x9540
 414 62 280 240 202 326 c 0
 199 330 193 331 184 331 c 1
 184 300 l 2
 184 211 187 78 192 -2 c 1
 179 -1 159 0 143 0 c 0
 127 0 107 -1 92 -2 c 1
 97 78 100 210 100 300 c 2
 100 400 l 2
 100 490 99 602 95 682 c 1
 128 681 153 680 176 680 c 0x5940
 193 680 213 681 233 682 c 0
 254 682 274 683 289 683 c 0
 402 683 495 646 495 527 c 0
 495 396 390 348 294 338 c 1
 341 276 516 70 578 3 c 1x3540
400 516 m 0
 400 627 314 646 240 646 c 0
 226 646 207 645 189 642 c 1
 185 581 184 462 184 400 c 2
 184 361 l 1
 219 361 l 2
 311 361 400 385 400 516 c 0
405 876 m 0x0280
 405 868 399 860 390 852 c 0
 360 822 300 764 267 733 c 1
 241 733 l 1
 239 736 l 1
 274 785 317 846 335 875 c 0
 344 890 351 899 370 899 c 0
 388 899 405 894 405 876 c 0x0280
EndSplineSet
Substitution2: "Podtablica 'c2sc' Wersaliki na kapitaliki w +AUIA-aci+AUQA-skie w tablicy 8" racute.sc
Substitution2: "Podtablica 'aalt' Dost+ARkA-p do wszystkich alternatyw w +AUIA-aci+AUQA-skie w tablicy 0" racute.sc
EndChar

StartChar: Rcaron
Encoding: 344 344 162
Width: 583
GlyphClass: 1
Flags: MW
HStem: -4 21G -2 21G 0 21G<135 151 518 533> 331 30<184 188.5> 646 34 646 37<233 345.5> 876 20G<119 119 409 409> 881 20G<148 148 380 380>
VStem: 100 84<300 331 255.5 361 361 400> 119 290<892 896 892 896> 400 95<461.5 571.5>
LayerCount: 2
Fore
SplineSet
578 3 m 1x34a0
 575 -1 l 1
 554 0 540 0 526 0 c 0x34a0
 510 0 473 -2 458 -4 c 1x94a0
 414 62 280 240 202 326 c 0
 199 330 193 331 184 331 c 1
 184 300 l 2
 184 211 187 78 192 -2 c 1
 179 -1 159 0 143 0 c 0
 127 0 107 -1 92 -2 c 1
 97 78 100 210 100 300 c 2
 100 400 l 2
 100 490 99 602 95 682 c 1
 128 681 153 680 176 680 c 0x58a0
 193 680 213 681 233 682 c 0
 254 682 274 683 289 683 c 0
 402 683 495 646 495 527 c 0
 495 396 390 348 294 338 c 1
 341 276 516 70 578 3 c 1x34a0
400 516 m 0
 400 627 314 646 240 646 c 0
 226 646 207 645 189 642 c 1
 185 581 184 462 184 400 c 2
 184 361 l 1
 219 361 l 2
 311 361 400 385 400 516 c 0
409 892 m 1x0140
 372 851 315 784 273 730 c 1
 255 730 l 1
 213 784 156 851 119 892 c 1
 119 896 l 1x0140
 148 901 l 1
 264 798 l 1
 380 901 l 1x0240
 409 896 l 1
 409 892 l 1x0140
EndSplineSet
Substitution2: "Podtablica 'c2sc' Wersaliki na kapitaliki w +AUIA-aci+AUQA-skie w tablicy 8" rcommaaccent.sc
Substitution2: "Podtablica 'aalt' Dost+ARkA-p do wszystkich alternatyw w +AUIA-aci+AUQA-skie w tablicy 0" rcommaaccent.sc
EndChar

StartChar: Rcommaaccent
Encoding: 342 342 163
Width: 583
GlyphClass: 1
Flags: MW
HStem: -243 21G<261 261> -63 20G<266 300> -4 21G -2 21G 0 21G<135 151 518 533> 331 30<184 188.5> 646 34 646 37<233 345.5>
VStem: 100 84<300 331 255.5 361 361 400> 303 50<-158 -129> 400 95<461.5 571.5>
LayerCount: 2
Fore
SplineSet
578 3 m 1x0da0
 575 -1 l 1
 554 0 540 0 526 0 c 0x0da0
 510 0 473 -2 458 -4 c 1x25a0
 414 62 280 240 202 326 c 0
 199 330 193 331 184 331 c 1
 184 300 l 2
 184 211 187 78 192 -2 c 1
 179 -1 159 0 143 0 c 0
 127 0 107 -1 92 -2 c 1
 97 78 100 210 100 300 c 2
 100 400 l 2
 100 490 99 602 95 682 c 1
 128 681 153 680 176 680 c 0x16a0
 193 680 213 681 233 682 c 0
 254 682 274 683 289 683 c 0
 402 683 495 646 495 527 c 0
 495 396 390 348 294 338 c 1
 341 276 516 70 578 3 c 1x0da0
400 516 m 0
 400 627 314 646 240 646 c 0
 226 646 207 645 189 642 c 1
 185 581 184 462 184 400 c 2
 184 361 l 1
 219 361 l 2
 311 361 400 385 400 516 c 0
242 -231 m 1xc040
 242 -225 l 1
 277 -208 303 -179 303 -144 c 0
 303 -114 288 -87 249 -87 c 0
 244 -87 235 -88 230 -89 c 1
 227 -80 l 1
 239 -66 256 -51 266 -43 c 1
 334 -43 353 -92 353 -128 c 0
 353 -188 300 -231 261 -243 c 1
 242 -231 l 1xc040
EndSplineSet
Substitution2: "Podtablica 'c2sc' Wersaliki na kapitaliki w +AUIA-aci+AUQA-skie w tablicy 8" rcaron.sc
Substitution2: "Podtablica 'aalt' Dost+ARkA-p do wszystkich alternatyw w +AUIA-aci+AUQA-skie w tablicy 0" rcaron.sc
EndChar

StartChar: Sacute
Encoding: 346 346 164
Width: 495
GlyphClass: 1
Flags: MW
HStem: -14 41<182 256.5 182 281.5> 657 38<232 303> 733 166<246 384 246 384>
VStem: 60 85<498 565> 244 166<736 885> 362 86<136 204> 389 16<573 574>
LayerCount: 2
Fore
SplineSet
448 197 m 0xd4
 448 75 350 -14 213 -14 c 0
 148 -14 74 3 40 21 c 1
 43 49 51 93 58 126 c 1
 74 128 l 1
 94 57 145 27 219 27 c 0
 294 27 362 69 362 162 c 0xd4
 362 246 311 278 222 315 c 0
 143 349 60 387 60 507 c 0
 60 623 157 695 279 695 c 0
 338 695 395 679 431 663 c 1
 421 638 411 606 405 574 c 1
 389 573 l 1xd2
 374 623 338 657 268 657 c 0
 196 657 145 613 145 537 c 0
 145 459 193 427 262 399 c 0
 372 354 448 316 448 197 c 0xd4
410 876 m 0x28
 410 868 404 860 395 852 c 0
 365 822 305 764 272 733 c 1
 246 733 l 1
 244 736 l 1
 279 785 322 846 340 875 c 0
 349 890 356 899 375 899 c 0
 393 899 410 894 410 876 c 0x28
EndSplineSet
Substitution2: "Podtablica 'c2sc' Wersaliki na kapitaliki w +AUIA-aci+AUQA-skie w tablicy 8" sacute.sc
Substitution2: "Podtablica 'aalt' Dost+ARkA-p do wszystkich alternatyw w +AUIA-aci+AUQA-skie w tablicy 0" sacute.sc
EndChar

StartChar: Scircumflex
Encoding: 348 348 165
Width: 495
GlyphClass: 1
Flags: MW
HStem: -14 41<182 256.5 182 281.5> 657 38<232 303> 745 170<149 273 255 379>
VStem: 60 85<498 565> 120 288<751 755 751 755> 362 86<136 204> 389 16<573 574>
LayerCount: 2
Fore
SplineSet
448 197 m 0xd4
 448 75 350 -14 213 -14 c 0
 148 -14 74 3 40 21 c 1
 43 49 51 93 58 126 c 1
 74 128 l 1
 94 57 145 27 219 27 c 0
 294 27 362 69 362 162 c 0xd4
 362 246 311 278 222 315 c 0
 143 349 60 387 60 507 c 0
 60 623 157 695 279 695 c 0
 338 695 395 679 431 663 c 1
 421 638 411 606 405 574 c 1
 389 573 l 1xd2
 374 623 338 657 268 657 c 0
 196 657 145 613 145 537 c 0
 145 459 193 427 262 399 c 0
 372 354 448 316 448 197 c 0xd4
408 751 m 1x28
 379 745 l 1
 264 849 l 1
 149 745 l 1
 120 751 l 1
 120 755 l 1
 157 795 214 862 255 915 c 1
 273 915 l 1
 314 862 371 795 408 755 c 1
 408 751 l 1x28
EndSplineSet
Substitution2: "Podtablica 'c2sc' Wersaliki na kapitaliki w +AUIA-aci+AUQA-skie w tablicy 8" scircumflex.sc
Substitution2: "Podtablica 'aalt' Dost+ARkA-p do wszystkich alternatyw w +AUIA-aci+AUQA-skie w tablicy 0" scircumflex.sc
EndChar

StartChar: Scaron
Encoding: 352 352 166
Width: 495
GlyphClass: 1
Flags: MW
HStem: -14 41<182 256.5 182 281.5> 657 38<232 303> 877 20G<117 117 407 407> 882 20G<146 146 378 378>
VStem: 60 85<498 565> 117 290<893 897 893 897> 362 86<136 204> 389 16<573 574>
LayerCount: 2
Fore
SplineSet
448 197 m 0xca
 448 75 350 -14 213 -14 c 0
 148 -14 74 3 40 21 c 1
 43 49 51 93 58 126 c 1
 74 128 l 1
 94 57 145 27 219 27 c 0
 294 27 362 69 362 162 c 0xca
 362 246 311 278 222 315 c 0
 143 349 60 387 60 507 c 0
 60 623 157 695 279 695 c 0
 338 695 395 679 431 663 c 1
 421 638 411 606 405 574 c 1
 389 573 l 1xc9
 374 623 338 657 268 657 c 0
 196 657 145 613 145 537 c 0
 145 459 193 427 262 399 c 0
 372 354 448 316 448 197 c 0xca
407 893 m 1x14
 370 852 313 785 271 731 c 1
 253 731 l 1
 211 785 154 852 117 893 c 1
 117 897 l 1x14
 146 902 l 1
 262 799 l 1
 378 902 l 1x24
 407 897 l 1
 407 893 l 1x14
EndSplineSet
Substitution2: "Podtablica 'c2sc' Wersaliki na kapitaliki w +AUIA-aci+AUQA-skie w tablicy 8" scaron.sc
Substitution2: "Podtablica 'aalt' Dost+ARkA-p do wszystkich alternatyw w +AUIA-aci+AUQA-skie w tablicy 0" scaron.sc
EndChar

StartChar: Scedilla
Encoding: 350 350 167
Width: 495
GlyphClass: 1
Flags: MW
HStem: -228 27<213.5 232.5 205 256> -98 29<221 270> -14 41 657 38<232 303>
VStem: 60 85<498 565> 286 55<-167.5 -127.5> 362 86<139 204> 389 16<573 574>
LayerCount: 2
Fore
SplineSet
341 -140 m 0xfe
 341 -203 287 -228 225 -228 c 0
 202 -228 167 -223 143 -217 c 1
 149 -192 l 1
 164 -197 195 -201 215 -201 c 0
 250 -201 286 -190 286 -145 c 0
 286 -110 257 -98 230 -98 c 0
 212 -98 192 -101 173 -106 c 1
 168 -92 l 1
 181 -69 193 -45 206 -14 c 1
 142 -13 73 3 40 21 c 1
 43 49 51 93 58 126 c 1
 74 128 l 1
 94 57 145 27 219 27 c 0
 294 27 362 69 362 162 c 0xfe
 362 246 311 278 222 315 c 0
 143 349 60 387 60 507 c 0
 60 623 157 695 279 695 c 0
 338 695 395 679 431 663 c 1
 421 638 411 606 405 574 c 1
 389 573 l 1xfd
 374 623 338 657 268 657 c 0
 196 657 145 613 145 537 c 0
 145 459 193 427 262 399 c 0
 372 354 448 316 448 197 c 0
 448 81 360 -5 234 -13 c 1
 213 -72 l 1
 227 -70 243 -69 251 -69 c 0
 289 -69 341 -87 341 -140 c 0xfe
EndSplineSet
Substitution2: "Podtablica 'c2sc' Wersaliki na kapitaliki w +AUIA-aci+AUQA-skie w tablicy 8" scedilla.sc
Substitution2: "Podtablica 'locl' Formy lokalne (np. narodowe) w +AUIA-aci+AUQA-skie w tablicy 2" Scommaaccent
Substitution2: "Podtablica 'aalt' Dost+ARkA-p do wszystkich alternatyw w +AUIA-aci+AUQA-skie w tablicy 0" scedilla.sc
EndChar

StartChar: Scommaaccent
Encoding: 536 536 168
Width: 495
GlyphClass: 1
Flags: MW
HStem: -243 21G<202 202> -63 20G<207 241> -14 41<182 256.5 182 281.5> 657 38<232 303>
VStem: 60 85<498 565> 244 50<-158 -129> 362 86<136 204> 389 16<573 574>
LayerCount: 2
Fore
SplineSet
448 197 m 0x3a
 448 75 350 -14 213 -14 c 0
 148 -14 74 3 40 21 c 1
 43 49 51 93 58 126 c 1
 74 128 l 1
 94 57 145 27 219 27 c 0
 294 27 362 69 362 162 c 0x3a
 362 246 311 278 222 315 c 0
 143 349 60 387 60 507 c 0
 60 623 157 695 279 695 c 0
 338 695 395 679 431 663 c 1
 421 638 411 606 405 574 c 1
 389 573 l 1x39
 374 623 338 657 268 657 c 0
 196 657 145 613 145 537 c 0
 145 459 193 427 262 399 c 0
 372 354 448 316 448 197 c 0x3a
183 -231 m 1xc4
 183 -225 l 1
 218 -208 244 -179 244 -144 c 0
 244 -114 229 -87 190 -87 c 0
 185 -87 176 -88 171 -89 c 1
 168 -80 l 1
 180 -66 197 -51 207 -43 c 1
 275 -43 294 -92 294 -128 c 0
 294 -188 241 -231 202 -243 c 1
 183 -231 l 1xc4
EndSplineSet
Substitution2: "Podtablica 'c2sc' Wersaliki na kapitaliki w +AUIA-aci+AUQA-skie w tablicy 8" scommaaccent.sc
Substitution2: "Podtablica 'aalt' Dost+ARkA-p do wszystkich alternatyw w +AUIA-aci+AUQA-skie w tablicy 0" scommaaccent.sc
EndChar

StartChar: Tcaron
Encoding: 356 356 169
Width: 528
GlyphClass: 1
Flags: MW
HStem: -2 21G 637 45 877 20G<119 119 409 409> 882 20G<148 148 380 380>
VStem: 119 290<893 897 893 897> 221 86<300 518>
LayerCount: 2
Fore
SplineSet
520 623 m 1xc4
 475 630 383 637 310 637 c 1
 308 597 307 545 307 518 c 2
 307 300 l 2
 307 211 310 78 315 -2 c 1
 300 -1 280 0 264 0 c 0
 248 0 227 -1 213 -2 c 1
 218 78 221 210 221 300 c 2
 221 518 l 2
 221 546 220 598 218 637 c 1
 146 637 54 630 8 623 c 1
 9 636 9 645 9 653 c 0
 9 661 9 668 8 682 c 1
 68 679 180 678 264 678 c 0
 350 678 462 679 520 682 c 1
 519 668 519 661 519 653 c 0
 519 645 519 636 520 623 c 1xc4
409 893 m 1x18
 372 852 315 785 273 731 c 1
 255 731 l 1
 213 785 156 852 119 893 c 1
 119 897 l 1x18
 148 902 l 1
 264 799 l 1
 380 902 l 1x28
 409 897 l 1
 409 893 l 1x18
EndSplineSet
Substitution2: "Podtablica 'c2sc' Wersaliki na kapitaliki w +AUIA-aci+AUQA-skie w tablicy 8" tcaron.sc
Substitution2: "Podtablica 'aalt' Dost+ARkA-p do wszystkich alternatyw w +AUIA-aci+AUQA-skie w tablicy 0" tcaron.sc
EndChar

StartChar: Tcommaaccent
Encoding: 354 354 170
Width: 528
GlyphClass: 1
Flags: MW
HStem: -243 21G<234 234> -63 20G<239 273> -2 21G 637 45
VStem: 221 86<300 518> 276 50<-158 -129>
LayerCount: 2
Fore
SplineSet
520 623 m 1x38
 475 630 383 637 310 637 c 1
 308 597 307 545 307 518 c 2
 307 300 l 2
 307 211 310 78 315 -2 c 1
 300 -1 280 0 264 0 c 0
 248 0 227 -1 213 -2 c 1
 218 78 221 210 221 300 c 2
 221 518 l 2
 221 546 220 598 218 637 c 1
 146 637 54 630 8 623 c 1
 9 636 9 645 9 653 c 0
 9 661 9 668 8 682 c 1
 68 679 180 678 264 678 c 0
 350 678 462 679 520 682 c 1
 519 668 519 661 519 653 c 0
 519 645 519 636 520 623 c 1x38
215 -231 m 1xc4
 215 -225 l 1
 250 -208 276 -179 276 -144 c 0
 276 -114 261 -87 222 -87 c 0
 217 -87 208 -88 203 -89 c 1
 200 -80 l 1
 212 -66 229 -51 239 -43 c 1
 307 -43 326 -92 326 -128 c 0
 326 -188 273 -231 234 -243 c 1
 215 -231 l 1xc4
EndSplineSet
Substitution2: "Podtablica 'c2sc' Wersaliki na kapitaliki w +AUIA-aci+AUQA-skie w tablicy 8" tcommaaccent.sc
Substitution2: "Podtablica 'aalt' Dost+ARkA-p do wszystkich alternatyw w +AUIA-aci+AUQA-skie w tablicy 0" tcommaaccent.sc
EndChar

StartChar: uni021A
Encoding: 538 538 171
Width: 528
GlyphClass: 1
Flags: MW
HStem: -243 21G<234 234> -63 20G<239 273> -2 21G 637 45
VStem: 221 86<300 518> 276 50<-158 -129>
LayerCount: 2
Fore
SplineSet
520 623 m 1x38
 475 630 383 637 310 637 c 1
 308 597 307 545 307 518 c 2
 307 300 l 2
 307 211 310 78 315 -2 c 1
 300 -1 280 0 264 0 c 0
 248 0 227 -1 213 -2 c 1
 218 78 221 210 221 300 c 2
 221 518 l 2
 221 546 220 598 218 637 c 1
 146 637 54 630 8 623 c 1
 9 636 9 645 9 653 c 0
 9 661 9 668 8 682 c 1
 68 679 180 678 264 678 c 0
 350 678 462 679 520 682 c 1
 519 668 519 661 519 653 c 0
 519 645 519 636 520 623 c 1x38
215 -231 m 1xc4
 215 -225 l 1
 250 -208 276 -179 276 -144 c 0
 276 -114 261 -87 222 -87 c 0
 217 -87 208 -88 203 -89 c 1
 200 -80 l 1
 212 -66 229 -51 239 -43 c 1
 307 -43 326 -92 326 -128 c 0
 326 -188 273 -231 234 -243 c 1
 215 -231 l 1xc4
EndSplineSet
Substitution2: "Podtablica 'c2sc' Wersaliki na kapitaliki w +AUIA-aci+AUQA-skie w tablicy 8" tcommaaccent.sc
Substitution2: "Podtablica 'aalt' Dost+ARkA-p do wszystkich alternatyw w +AUIA-aci+AUQA-skie w tablicy 0" tcommaaccent.sc
EndChar

StartChar: Tbar
Encoding: 358 358 172
Width: 528
GlyphClass: 1
Flags: MW
HStem: -2 21G 478 37<64 221 64 221 307 464> 637 45
VStem: 221 86<300 478 515 518>
LayerCount: 2
Fore
SplineSet
520 623 m 1
 475 630 383 637 310 637 c 1
 308 597 307 545 307 518 c 2
 307 515 l 1
 464 515 l 1
 464 478 l 1
 307 478 l 1
 307 300 l 2
 307 211 310 78 315 -2 c 1
 300 -1 280 0 264 0 c 0
 248 0 227 -1 213 -2 c 1
 218 78 221 210 221 300 c 2
 221 478 l 1
 64 478 l 1
 64 515 l 1
 221 515 l 1
 221 518 l 2
 221 546 220 598 218 637 c 1
 146 637 54 630 8 623 c 1
 9 636 9 645 9 653 c 0
 9 661 9 668 8 682 c 1
 68 679 180 678 264 678 c 0
 350 678 462 679 520 682 c 1
 519 668 519 661 519 653 c 0
 519 645 519 636 520 623 c 1
EndSplineSet
Substitution2: "Podtablica 'c2sc' Wersaliki na kapitaliki w +AUIA-aci+AUQA-skie w tablicy 8" tbar.sc
Substitution2: "Podtablica 'aalt' Dost+ARkA-p do wszystkich alternatyw w +AUIA-aci+AUQA-skie w tablicy 0" tbar.sc
EndChar

StartChar: Thorn
Encoding: 222 222 173
Width: 557
GlyphClass: 1
Flags: MW
HStem: -2 21G 184 38<187 226 226 232 187 226> 527 37<295 302.5> 662 20G
VStem: 100 87<298 402 402 447> 413 98<323.5 439.5>
LayerCount: 2
Fore
SplineSet
511 390 m 0
 511 212 352 184 232 184 c 2
 187 184 l 1
 187 166 l 2
 187 118 190 39 195 -2 c 1
 180 -1 159 0 144 0 c 0
 128 0 107 -1 92 -2 c 1
 97 79 100 208 100 298 c 2
 100 402 l 2
 100 492 97 601 92 682 c 1
 107 681 128 680 144 680 c 0
 159 680 180 681 193 682 c 1
 189 642 187 600 187 561 c 1
 231 561 274 564 316 564 c 0
 433 564 511 518 511 390 c 0
413 389 m 0
 413 490 349 527 256 527 c 0
 235 527 208 526 187 521 c 1
 187 222 l 1
 226 222 l 2
 341 222 413 258 413 389 c 0
EndSplineSet
Substitution2: "Podtablica 'c2sc' Wersaliki na kapitaliki w +AUIA-aci+AUQA-skie w tablicy 8" thorn.sc
Substitution2: "Podtablica 'aalt' Dost+ARkA-p do wszystkich alternatyw w +AUIA-aci+AUQA-skie w tablicy 0" thorn.sc
EndChar

StartChar: Ugrave
Encoding: 217 217 174
Width: 744
GlyphClass: 1
Flags: MW
HStem: -17 47<298 442.5> 662 20G 733 166<265 402 265 376>
VStem: 94 86<241 499> 238 166<736 885> 604 51<294 392.5 268 397.5>
LayerCount: 2
Fore
SplineSet
664 682 m 1
 658 591 655 490 655 295 c 0
 655 241 647 187 632 145 c 0
 597 47 514 -17 371 -17 c 0
 176 -17 91 62 91 266 c 0
 91 328 94 394 94 444 c 0
 94 554 92 624 88 682 c 1
 103 681 124 680 140 680 c 0
 156 680 177 681 195 682 c 1
 188 618 180 478 180 330 c 0
 180 152 204 30 392 30 c 0
 509 30 567 89 592 182 c 0
 603 222 604 264 604 324 c 0
 604 471 600 599 591 682 c 1
 605 681 617 680 628 680 c 0
 638 680 654 681 664 682 c 1
404 736 m 1x28
 402 733 l 1
 376 733 l 1
 343 764 284 822 253 852 c 0
 245 860 238 868 238 876 c 0
 238 894 256 899 274 899 c 0
 292 899 299 890 308 875 c 0
 327 846 369 785 404 736 c 1x28
EndSplineSet
Substitution2: "Podtablica 'c2sc' Wersaliki na kapitaliki w +AUIA-aci+AUQA-skie w tablicy 8" ugrave.sc
Substitution2: "Podtablica 'aalt' Dost+ARkA-p do wszystkich alternatyw w +AUIA-aci+AUQA-skie w tablicy 0" ugrave.sc
EndChar

StartChar: Uacute
Encoding: 218 218 175
Width: 744
GlyphClass: 1
Flags: MW
HStem: -17 47<298 442.5> 662 20G 733 166<375 513 375 513>
VStem: 94 86<241 499> 373 166<736 885> 604 51<294 392.5 268 397.5>
LayerCount: 2
Fore
SplineSet
664 682 m 1
 658 591 655 490 655 295 c 0
 655 241 647 187 632 145 c 0
 597 47 514 -17 371 -17 c 0
 176 -17 91 62 91 266 c 0
 91 328 94 394 94 444 c 0
 94 554 92 624 88 682 c 1
 103 681 124 680 140 680 c 0
 156 680 177 681 195 682 c 1
 188 618 180 478 180 330 c 0
 180 152 204 30 392 30 c 0
 509 30 567 89 592 182 c 0
 603 222 604 264 604 324 c 0
 604 471 600 599 591 682 c 1
 605 681 617 680 628 680 c 0
 638 680 654 681 664 682 c 1
539 876 m 0x28
 539 868 533 860 524 852 c 0
 494 822 434 764 401 733 c 1
 375 733 l 1
 373 736 l 1
 408 785 451 846 469 875 c 0
 478 890 485 899 504 899 c 0
 522 899 539 894 539 876 c 0x28
EndSplineSet
Substitution2: "Podtablica 'c2sc' Wersaliki na kapitaliki w +AUIA-aci+AUQA-skie w tablicy 8" uacute.sc
Substitution2: "Podtablica 'aalt' Dost+ARkA-p do wszystkich alternatyw w +AUIA-aci+AUQA-skie w tablicy 0" uacute.sc
EndChar

StartChar: Ucircumflex
Encoding: 219 219 176
Width: 744
GlyphClass: 1
Flags: MW
HStem: -17 47<298 442.5> 662 20G 745 170<272 396 378 502>
VStem: 94 86<241 499> 243 288<751 755 751 755> 604 51<294 392.5 268 397.5>
LayerCount: 2
Fore
SplineSet
664 682 m 1
 658 591 655 490 655 295 c 0
 655 241 647 187 632 145 c 0
 597 47 514 -17 371 -17 c 0
 176 -17 91 62 91 266 c 0
 91 328 94 394 94 444 c 0
 94 554 92 624 88 682 c 1
 103 681 124 680 140 680 c 0
 156 680 177 681 195 682 c 1
 188 618 180 478 180 330 c 0
 180 152 204 30 392 30 c 0
 509 30 567 89 592 182 c 0
 603 222 604 264 604 324 c 0
 604 471 600 599 591 682 c 1
 605 681 617 680 628 680 c 0
 638 680 654 681 664 682 c 1
531 751 m 1x28
 502 745 l 1
 387 849 l 1
 272 745 l 1
 243 751 l 1
 243 755 l 1
 280 795 337 862 378 915 c 1
 396 915 l 1
 437 862 494 795 531 755 c 1
 531 751 l 1x28
EndSplineSet
Substitution2: "Podtablica 'c2sc' Wersaliki na kapitaliki w +AUIA-aci+AUQA-skie w tablicy 8" ucircumflex.sc
Substitution2: "Podtablica 'aalt' Dost+ARkA-p do wszystkich alternatyw w +AUIA-aci+AUQA-skie w tablicy 0" ucircumflex.sc
EndChar

StartChar: Utilde
Encoding: 360 360 177
Width: 744
GlyphClass: 1
Flags: MW
HStem: -17 47<298 442.5> 662 20G 757 51<475 494.5> 819 51<303 324> 843 20G<541 541>
VStem: 94 86<241 499> 233 331<770 856> 604 51<294 392.5 268 397.5>
LayerCount: 2
Fore
SplineSet
664 682 m 1xc5
 658 591 655 490 655 295 c 0
 655 241 647 187 632 145 c 0
 597 47 514 -17 371 -17 c 0
 176 -17 91 62 91 266 c 0
 91 328 94 394 94 444 c 0
 94 554 92 624 88 682 c 1
 103 681 124 680 140 680 c 0
 156 680 177 681 195 682 c 1
 188 618 180 478 180 330 c 0
 180 152 204 30 392 30 c 0
 509 30 567 89 592 182 c 0
 603 222 604 264 604 324 c 0
 604 471 600 599 591 682 c 1
 605 681 617 680 628 680 c 0
 638 680 654 681 664 682 c 1xc5
564 856 m 1x2a
 549 799 520 757 469 757 c 0x2a
 439 757 414 769 381 791 c 0
 354 810 333 819 315 819 c 0
 287 819 269 805 255 762 c 1
 233 770 l 1
 250 826 274 870 332 870 c 0x32
 360 870 386 859 419 837 c 0
 444 820 466 808 484 808 c 0
 514 808 527 825 541 863 c 1
 564 856 l 1x2a
EndSplineSet
Substitution2: "Podtablica 'c2sc' Wersaliki na kapitaliki w +AUIA-aci+AUQA-skie w tablicy 8" utilde.sc
Substitution2: "Podtablica 'aalt' Dost+ARkA-p do wszystkich alternatyw w +AUIA-aci+AUQA-skie w tablicy 0" utilde.sc
EndChar

StartChar: Udieresis
Encoding: 220 220 178
Width: 744
GlyphClass: 1
Flags: MW
HStem: -17 47<298 442.5> 662 20G 766 93<286 312 476.5 502.5>
VStem: 94 86<241 499> 252 94<800 826 800 826> 442 95<800 826 800 826> 604 51<294 392.5 268 397.5>
LayerCount: 2
Fore
SplineSet
664 682 m 1
 658 591 655 490 655 295 c 0
 655 241 647 187 632 145 c 0
 597 47 514 -17 371 -17 c 0
 176 -17 91 62 91 266 c 0
 91 328 94 394 94 444 c 0
 94 554 92 624 88 682 c 1
 103 681 124 680 140 680 c 0
 156 680 177 681 195 682 c 1
 188 618 180 478 180 330 c 0
 180 152 204 30 392 30 c 0
 509 30 567 89 592 182 c 0
 603 222 604 264 604 324 c 0
 604 471 600 599 591 682 c 1
 605 681 617 680 628 680 c 0
 638 680 654 681 664 682 c 1
537 813 m 0x2c
 537 787 515 766 490 766 c 0
 463 766 442 786 442 813 c 0
 442 839 463 859 490 859 c 0
 515 859 537 839 537 813 c 0x2c
346 813 m 0
 346 787 325 766 299 766 c 0
 273 766 252 786 252 813 c 0
 252 839 273 859 299 859 c 0
 325 859 346 839 346 813 c 0
EndSplineSet
Substitution2: "Podtablica 'c2sc' Wersaliki na kapitaliki w +AUIA-aci+AUQA-skie w tablicy 8" udieresis.sc
Substitution2: "Podtablica 'aalt' Dost+ARkA-p do wszystkich alternatyw w +AUIA-aci+AUQA-skie w tablicy 0" udieresis.sc
EndChar

StartChar: Umacron
Encoding: 362 362 179
Width: 744
GlyphClass: 1
Flags: MW
HStem: -17 47<298 442.5> 662 20G 773 41<251 528 251 528>
VStem: 94 86<241 499> 251 277<773 814 773 814> 604 51<294 392.5 268 397.5>
LayerCount: 2
Fore
SplineSet
664 682 m 1
 658 591 655 490 655 295 c 0
 655 241 647 187 632 145 c 0
 597 47 514 -17 371 -17 c 0
 176 -17 91 62 91 266 c 0
 91 328 94 394 94 444 c 0
 94 554 92 624 88 682 c 1
 103 681 124 680 140 680 c 0
 156 680 177 681 195 682 c 1
 188 618 180 478 180 330 c 0
 180 152 204 30 392 30 c 0
 509 30 567 89 592 182 c 0
 603 222 604 264 604 324 c 0
 604 471 600 599 591 682 c 1
 605 681 617 680 628 680 c 0
 638 680 654 681 664 682 c 1
528 773 m 1x28
 251 773 l 1
 251 814 l 1
 528 814 l 1
 528 773 l 1x28
EndSplineSet
Substitution2: "Podtablica 'c2sc' Wersaliki na kapitaliki w +AUIA-aci+AUQA-skie w tablicy 8" umacron.sc
Substitution2: "Podtablica 'aalt' Dost+ARkA-p do wszystkich alternatyw w +AUIA-aci+AUQA-skie w tablicy 0" umacron.sc
EndChar

StartChar: Ubreve
Encoding: 364 364 180
Width: 744
GlyphClass: 1
Flags: MW
HStem: -17 47<298 442.5> 662 20G 752 55<355 429 355 437>
VStem: 94 86<241 499> 253 277<878 880> 604 51<294 392.5 268 397.5>
LayerCount: 2
Fore
SplineSet
664 682 m 1
 658 591 655 490 655 295 c 0
 655 241 647 187 632 145 c 0
 597 47 514 -17 371 -17 c 0
 176 -17 91 62 91 266 c 0
 91 328 94 394 94 444 c 0
 94 554 92 624 88 682 c 1
 103 681 124 680 140 680 c 0
 156 680 177 681 195 682 c 1
 188 618 180 478 180 330 c 0
 180 152 204 30 392 30 c 0
 509 30 567 89 592 182 c 0
 603 222 604 264 604 324 c 0
 604 471 600 599 591 682 c 1
 605 681 617 680 628 680 c 0
 638 680 654 681 664 682 c 1
530 880 m 1x28
 521 810 482 752 392 752 c 0
 302 752 263 809 253 878 c 1
 273 887 l 1
 290 835 318 807 392 807 c 0
 466 807 494 835 510 887 c 1
 530 880 l 1x28
EndSplineSet
Substitution2: "Podtablica 'c2sc' Wersaliki na kapitaliki w +AUIA-aci+AUQA-skie w tablicy 8" ubreve.sc
Substitution2: "Podtablica 'aalt' Dost+ARkA-p do wszystkich alternatyw w +AUIA-aci+AUQA-skie w tablicy 0" ubreve.sc
EndChar

StartChar: Uring
Encoding: 366 366 181
Width: 744
GlyphClass: 1
Flags: MW
HStem: -17 47<298 442.5> 662 20G 705 24<370.5 417 370.5 423.5> 901 21<370 417.5>
VStem: 94 86<241 499> 280 43<793 840 793 848> 464 42<790 837> 604 51<294 392.5 268 397.5>
LayerCount: 2
Fore
SplineSet
664 682 m 1
 658 591 655 490 655 295 c 0
 655 241 647 187 632 145 c 0
 597 47 514 -17 371 -17 c 0
 176 -17 91 62 91 266 c 0
 91 328 94 394 94 444 c 0
 94 554 92 624 88 682 c 1
 103 681 124 680 140 680 c 0
 156 680 177 681 195 682 c 1
 188 618 180 478 180 330 c 0
 180 152 204 30 392 30 c 0
 509 30 567 89 592 182 c 0
 603 222 604 264 604 324 c 0
 604 471 600 599 591 682 c 1
 605 681 617 680 628 680 c 0
 638 680 654 681 664 682 c 1
394 705 m 0x36
 321 705 280 742 280 811 c 0
 280 885 334 922 394 922 c 0
 462 922 506 883 506 816 c 0
 506 743 453 705 394 705 c 0x36
394 901 m 0
 346 901 323 865 323 815 c 0
 323 771 347 729 394 729 c 0
 440 729 464 765 464 815 c 0
 464 859 441 901 394 901 c 0
EndSplineSet
Substitution2: "Podtablica 'c2sc' Wersaliki na kapitaliki w +AUIA-aci+AUQA-skie w tablicy 8" uring.sc
Substitution2: "Podtablica 'aalt' Dost+ARkA-p do wszystkich alternatyw w +AUIA-aci+AUQA-skie w tablicy 0" uring.sc
EndChar

StartChar: Uhungarumlaut
Encoding: 368 368 182
Width: 744
GlyphClass: 1
Flags: MW
HStem: -17 47<298 442.5> 662 20G 747 167<272 405 272 405 387 453 387 428>
VStem: 94 86<241 499> 270 319<750 899> 604 51<294 392.5 268 397.5>
LayerCount: 2
Fore
SplineSet
664 682 m 1
 658 591 655 490 655 295 c 0
 655 241 647 187 632 145 c 0
 597 47 514 -17 371 -17 c 0
 176 -17 91 62 91 266 c 0
 91 328 94 394 94 444 c 0
 94 554 92 624 88 682 c 1
 103 681 124 680 140 680 c 0
 156 680 177 681 195 682 c 1
 188 618 180 478 180 330 c 0
 180 152 204 30 392 30 c 0
 509 30 567 89 592 182 c 0
 603 222 604 264 604 324 c 0
 604 471 600 599 591 682 c 1
 605 681 617 680 628 680 c 0
 638 680 654 681 664 682 c 1
589 889 m 0x28
 589 882 583 874 575 866 c 0
 544 836 485 779 453 747 c 1
 428 747 l 1
 425 750 l 1
 460 799 502 860 520 889 c 0
 529 904 538 914 556 914 c 0
 574 914 589 909 589 889 c 0x28
429 890 m 0
 429 882 423 874 416 866 c 0
 385 835 331 780 297 747 c 1
 272 747 l 1
 270 750 l 1
 302 797 342 859 360 889 c 0
 369 904 378 914 396 914 c 0
 414 914 429 909 429 890 c 0
EndSplineSet
Substitution2: "Podtablica 'c2sc' Wersaliki na kapitaliki w +AUIA-aci+AUQA-skie w tablicy 8" uhungarumlaut.sc
Substitution2: "Podtablica 'aalt' Dost+ARkA-p do wszystkich alternatyw w +AUIA-aci+AUQA-skie w tablicy 0" uhungarumlaut.sc
EndChar

StartChar: Uogonek
Encoding: 370 370 183
Width: 744
GlyphClass: 1
Flags: MW
HStem: -228 30<394 410.5> -17 47<298 371 371 383> 662 20G
VStem: 94 86<241 499> 294 56<-154 -121.5> 604 51<294 392.5 268 397.5>
LayerCount: 2
Fore
SplineSet
483 -198 m 1
 461 -216 427 -228 394 -228 c 0
 342 -228 294 -205 294 -147 c 0
 294 -96 322 -60 383 -17 c 1
 371 -17 l 2
 176 -17 91 62 91 266 c 0
 91 328 94 394 94 444 c 0
 94 554 92 624 88 682 c 1
 103 681 124 680 140 680 c 0
 156 680 177 681 195 682 c 1
 188 618 180 478 180 330 c 0
 180 152 204 30 392 30 c 0
 509 30 567 89 592 182 c 0
 603 222 604 264 604 324 c 0
 604 471 600 599 591 682 c 1
 605 681 617 680 628 680 c 0
 638 680 654 681 664 682 c 1
 658 591 655 490 655 295 c 0
 655 241 647 187 632 145 c 0
 602 60 536 1 427 -13 c 1
 372 -60 350 -93 350 -134 c 0
 350 -174 373 -198 415 -198 c 0
 435 -198 454 -192 473 -180 c 1
 483 -198 l 1
EndSplineSet
Substitution2: "Podtablica 'c2sc' Wersaliki na kapitaliki w +AUIA-aci+AUQA-skie w tablicy 8" uogonek.sc
Substitution2: "Podtablica 'aalt' Dost+ARkA-p do wszystkich alternatyw w +AUIA-aci+AUQA-skie w tablicy 0" uogonek.sc
EndChar

StartChar: Wcircumflex
Encoding: 372 372 184
Width: 1000
GlyphClass: 1
Flags: MW
HStem: -2 21G -2 107 558 124 662 20G<22 22 988 988> 745 170<403 527 509 633>
VStem: 19 971<680 680> 374 288<751 755 751 755>
LayerCount: 2
Fore
SplineSet
990 680 m 1x94
 937 540 813 178 755 -2 c 1
 745 -1 730 0 718 0 c 0
 706 0 691 -1 681 -2 c 1
 632 164 549 421 499 558 c 1
 497 558 l 1xa4
 441 405 363 175 305 -2 c 1
 298 -1 280 0 269 0 c 0
 257 0 243 -1 232 -2 c 1
 182 178 75 525 19 680 c 1
 22 682 l 1
 45 680 64 680 79 680 c 0
 94 680 111 681 126 682 c 1
 165 528 240 267 294 105 c 1
 296 105 l 1
 342 236 436 528 481 682 c 1
 494 681 507 680 518 680 c 0
 529 680 542 681 553 682 c 1
 605 504 694 233 742 105 c 1
 745 105 l 1x54
 788 234 883 544 915 682 c 1
 924 681 938 680 949 680 c 0
 959 680 979 681 988 682 c 1
 990 680 l 1x94
662 751 m 1x0a
 633 745 l 1
 518 849 l 1
 403 745 l 1
 374 751 l 1
 374 755 l 1
 411 795 468 862 509 915 c 1
 527 915 l 1
 568 862 625 795 662 755 c 1
 662 751 l 1x0a
EndSplineSet
Substitution2: "Podtablica 'c2sc' Wersaliki na kapitaliki w +AUIA-aci+AUQA-skie w tablicy 8" wcircumflex.sc
Substitution2: "Podtablica 'aalt' Dost+ARkA-p do wszystkich alternatyw w +AUIA-aci+AUQA-skie w tablicy 0" wcircumflex.sc
EndChar

StartChar: Yacute
Encoding: 221 221 185
Width: 588
GlyphClass: 1
Flags: MW
HStem: -2 21G 662 20G<14 14 573 573> 733 166<288 426 288 426>
VStem: 252 86<250 280 280 280> 286 166<736 885>
LayerCount: 2
Fore
SplineSet
576 680 m 1xd0
 522 603 382 375 338 290 c 1
 338 250 l 2
 338 160 340 78 346 -2 c 1
 333 -1 311 0 296 0 c 0
 280 0 260 -1 244 -2 c 1
 250 78 252 160 252 250 c 2
 252 280 l 1
 200 371 73 586 11 680 c 1
 14 682 l 1
 37 681 61 680 77 680 c 0
 94 680 112 681 126 682 c 1
 172 588 246 453 313 339 c 1
 316 339 l 1
 375 438 464 601 499 682 c 1
 508 681 521 680 532 680 c 0
 543 680 564 681 573 682 c 1
 576 680 l 1xd0
452 876 m 0x28
 452 868 446 860 437 852 c 0
 407 822 347 764 314 733 c 1
 288 733 l 1
 286 736 l 1
 321 785 364 846 382 875 c 0
 391 890 398 899 417 899 c 0
 435 899 452 894 452 876 c 0x28
EndSplineSet
Substitution2: "Podtablica 'c2sc' Wersaliki na kapitaliki w +AUIA-aci+AUQA-skie w tablicy 8" yacute.sc
Substitution2: "Podtablica 'aalt' Dost+ARkA-p do wszystkich alternatyw w +AUIA-aci+AUQA-skie w tablicy 0" yacute.sc
EndChar

StartChar: Ycircumflex
Encoding: 374 374 186
Width: 588
GlyphClass: 1
Flags: MW
HStem: -2 21G 662 20G<14 14 573 573> 745 170<198 322 304 428>
VStem: 169 288<751 755 751 755> 252 86<250 280 280 280>
LayerCount: 2
Fore
SplineSet
576 680 m 1xc8
 522 603 382 375 338 290 c 1
 338 250 l 2
 338 160 340 78 346 -2 c 1
 333 -1 311 0 296 0 c 0
 280 0 260 -1 244 -2 c 1
 250 78 252 160 252 250 c 2
 252 280 l 1
 200 371 73 586 11 680 c 1
 14 682 l 1
 37 681 61 680 77 680 c 0
 94 680 112 681 126 682 c 1
 172 588 246 453 313 339 c 1
 316 339 l 1
 375 438 464 601 499 682 c 1
 508 681 521 680 532 680 c 0
 543 680 564 681 573 682 c 1
 576 680 l 1xc8
457 751 m 1x30
 428 745 l 1
 313 849 l 1
 198 745 l 1
 169 751 l 1
 169 755 l 1
 206 795 263 862 304 915 c 1
 322 915 l 1
 363 862 420 795 457 755 c 1
 457 751 l 1x30
EndSplineSet
Substitution2: "Podtablica 'c2sc' Wersaliki na kapitaliki w +AUIA-aci+AUQA-skie w tablicy 8" ycircumflex.sc
Substitution2: "Podtablica 'aalt' Dost+ARkA-p do wszystkich alternatyw w +AUIA-aci+AUQA-skie w tablicy 0" ycircumflex.sc
EndChar

StartChar: Ydieresis
Encoding: 376 376 187
Width: 588
GlyphClass: 1
Flags: MW
HStem: -2 21G 662 20G<14 14 573 573> 768 93<207 233 397.5 423.5>
VStem: 173 94<802 828 802 828> 252 86<250 280 280 280> 363 95<802 828 802 828>
LayerCount: 2
Fore
SplineSet
576 680 m 1xc8
 522 603 382 375 338 290 c 1
 338 250 l 2
 338 160 340 78 346 -2 c 1
 333 -1 311 0 296 0 c 0
 280 0 260 -1 244 -2 c 1
 250 78 252 160 252 250 c 2
 252 280 l 1
 200 371 73 586 11 680 c 1
 14 682 l 1
 37 681 61 680 77 680 c 0
 94 680 112 681 126 682 c 1
 172 588 246 453 313 339 c 1
 316 339 l 1
 375 438 464 601 499 682 c 1
 508 681 521 680 532 680 c 0
 543 680 564 681 573 682 c 1
 576 680 l 1xc8
458 815 m 0x34
 458 789 436 768 411 768 c 0
 384 768 363 788 363 815 c 0
 363 841 384 861 411 861 c 0
 436 861 458 841 458 815 c 0x34
267 815 m 0
 267 789 246 768 220 768 c 0
 194 768 173 788 173 815 c 0
 173 841 194 861 220 861 c 0
 246 861 267 841 267 815 c 0
EndSplineSet
Substitution2: "Podtablica 'c2sc' Wersaliki na kapitaliki w +AUIA-aci+AUQA-skie w tablicy 8" ydieresis.sc
Substitution2: "Podtablica 'aalt' Dost+ARkA-p do wszystkich alternatyw w +AUIA-aci+AUQA-skie w tablicy 0" ydieresis.sc
EndChar

StartChar: Zacute
Encoding: 377 377 188
Width: 609
GlyphClass: 1
Flags: MW
HStem: -2 48 637 45 666 16<582 584> 733 166<297 435 297 435>
VStem: 12 572 295 166<736 885>
LayerCount: 2
Fore
SplineSet
584 666 m 1xa8
 504 574 225 170 148 48 c 1
 175 46 203 46 239 46 c 0
 341 46 506 51 582 61 c 1
 581 44 581 35 581 29 c 0
 581 22 581 14 582 -2 c 1
 497 -1 356 1 280 1 c 0
 177 1 83 0 14 -2 c 1
 12 14 l 1
 164 218 383 536 447 636 c 1
 423 637 403 637 364 637 c 0
 292 637 139 632 68 623 c 1
 69 639 69 648 69 654 c 0
 69 660 69 666 68 682 c 1
 124 681 265 679 392 679 c 0
 475 679 547 681 582 682 c 1xc8
 584 666 l 1xa8
461 876 m 0x14
 461 868 455 860 446 852 c 0
 416 822 356 764 323 733 c 1
 297 733 l 1
 295 736 l 1
 330 785 373 846 391 875 c 0
 400 890 407 899 426 899 c 0
 444 899 461 894 461 876 c 0x14
EndSplineSet
Substitution2: "Podtablica 'c2sc' Wersaliki na kapitaliki w +AUIA-aci+AUQA-skie w tablicy 8" zacute.sc
Substitution2: "Podtablica 'aalt' Dost+ARkA-p do wszystkich alternatyw w +AUIA-aci+AUQA-skie w tablicy 0" zacute.sc
EndChar

StartChar: Zcaron
Encoding: 381 381 189
Width: 609
GlyphClass: 1
Flags: MW
HStem: -2 48 637 45 666 16<582 584> 876 20G<175 175 465 465> 881 20G<204 204 436 436>
VStem: 12 572 175 290<892 896 892 896>
LayerCount: 2
Fore
SplineSet
584 666 m 1xa4
 504 574 225 170 148 48 c 1
 175 46 203 46 239 46 c 0
 341 46 506 51 582 61 c 1
 581 44 581 35 581 29 c 0
 581 22 581 14 582 -2 c 1
 497 -1 356 1 280 1 c 0
 177 1 83 0 14 -2 c 1
 12 14 l 1
 164 218 383 536 447 636 c 1
 423 637 403 637 364 637 c 0
 292 637 139 632 68 623 c 1
 69 639 69 648 69 654 c 0
 69 660 69 666 68 682 c 1
 124 681 265 679 392 679 c 0
 475 679 547 681 582 682 c 1xc4
 584 666 l 1xa4
465 892 m 1x0a
 428 851 371 784 329 730 c 1
 311 730 l 1
 269 784 212 851 175 892 c 1
 175 896 l 1x0a
 204 901 l 1
 320 798 l 1
 436 901 l 1x12
 465 896 l 1
 465 892 l 1x0a
EndSplineSet
Substitution2: "Podtablica 'c2sc' Wersaliki na kapitaliki w +AUIA-aci+AUQA-skie w tablicy 8" zcaron.sc
Substitution2: "Podtablica 'aalt' Dost+ARkA-p do wszystkich alternatyw w +AUIA-aci+AUQA-skie w tablicy 0" zcaron.sc
EndChar

StartChar: Zdotaccent
Encoding: 379 379 190
Width: 609
GlyphClass: 1
Flags: MW
HStem: -2 48 637 45 666 16<582 584> 761 105<303.5 332.5>
VStem: 12 572 266 104<798.5 828>
LayerCount: 2
Fore
SplineSet
584 666 m 1xa8
 504 574 225 170 148 48 c 1
 175 46 203 46 239 46 c 0
 341 46 506 51 582 61 c 1
 581 44 581 35 581 29 c 0
 581 22 581 14 582 -2 c 1
 497 -1 356 1 280 1 c 0
 177 1 83 0 14 -2 c 1
 12 14 l 1
 164 218 383 536 447 636 c 1
 423 637 403 637 364 637 c 0
 292 637 139 632 68 623 c 1
 69 639 69 648 69 654 c 0
 69 660 69 666 68 682 c 1
 124 681 265 679 392 679 c 0
 475 679 547 681 582 682 c 1xc8
 584 666 l 1xa8
318 866 m 0x14
 347 866 370 843 370 813 c 0
 370 784 347 761 318 761 c 0
 289 761 266 784 266 813 c 0
 266 843 289 866 318 866 c 0x14
EndSplineSet
Substitution2: "Podtablica 'c2sc' Wersaliki na kapitaliki w +AUIA-aci+AUQA-skie w tablicy 8" zdotaccent.sc
Substitution2: "Podtablica 'aalt' Dost+ARkA-p do wszystkich alternatyw w +AUIA-aci+AUQA-skie w tablicy 0" zdotaccent.sc
EndChar

StartChar: agrave
Encoding: 224 224 191
Width: 497
GlyphClass: 1
Flags: MW
HStem: -8 44<192 211.5> -4 30<385 466.5> 260 21G 448 36<218.5 260> 580 166<126 263 126 237>
VStem: 45 85<95.5 163.5> 97 18<345 346> 99 166<583 732> 331 78
LayerCount: 2
Fore
SplineSet
478 6 m 1x7280
 460 0 433 -4 410 -4 c 0x7280
 360 -4 335 24 330 66 c 1
 297 27 245 -8 178 -8 c 0
 110 -8 45 31 45 122 c 0xb480
 45 205 97 244 185 261 c 0
 321 286 331 296 331 317 c 2
 331 330 l 2
 331 400 301 448 219 448 c 0
 162 448 124 410 115 345 c 1
 97 346 l 1
 95 378 89 411 85 430 c 1
 121 463 188 484 249 484 c 0
 393 484 413 406 413 305 c 0
 413 259 409 154 409 104 c 0
 409 56 423 26 463 26 c 0
 470 26 475 26 478 27 c 1
 478 6 l 1x7280
332 260 m 1xb480
 188 237 130 213 130 132 c 0
 130 59 170 36 214 36 c 0
 259 36 313 66 328 119 c 1
 331 153 332 212 332 260 c 1xb480
265 583 m 1x09
 263 580 l 1
 237 580 l 1
 204 611 145 669 114 699 c 0
 106 707 99 715 99 723 c 0
 99 741 117 746 135 746 c 0
 153 746 160 737 169 722 c 0
 188 693 230 632 265 583 c 1x09
EndSplineSet
Substitution2: "Podtablica 'case' Warianty wersalikowe w +AUIA-aci+AUQA-skie w tablicy 10" Agrave
Substitution2: "Podtablica 'smcp' Tekstowe na kapitaliki w +AUIA-aci+AUQA-skie w tablicy 5" agrave.sc
AlternateSubs2: "Podtablica 'aalt' Dost+ARkA-p do wszystkich alternatyw w +AUIA-aci+AUQA-skie w tablicy 1" agrave.sc Agrave
EndChar

StartChar: aacute
Encoding: 225 225 192
Width: 497
GlyphClass: 1
Flags: MW
HStem: -8 44<192 211.5> -4 30<385 466.5> 260 21G 448 36<218.5 260> 580 166<223 361 223 361>
VStem: 45 85<95.5 163.5> 97 18<345 346> 221 166<583 732> 331 78
LayerCount: 2
Fore
SplineSet
478 6 m 1x7280
 460 0 433 -4 410 -4 c 0x7280
 360 -4 335 24 330 66 c 1
 297 27 245 -8 178 -8 c 0
 110 -8 45 31 45 122 c 0xb480
 45 205 97 244 185 261 c 0
 321 286 331 296 331 317 c 2
 331 330 l 2
 331 400 301 448 219 448 c 0
 162 448 124 410 115 345 c 1
 97 346 l 1
 95 378 89 411 85 430 c 1
 121 463 188 484 249 484 c 0
 393 484 413 406 413 305 c 0
 413 259 409 154 409 104 c 0
 409 56 423 26 463 26 c 0
 470 26 475 26 478 27 c 1
 478 6 l 1x7280
332 260 m 1xb480
 188 237 130 213 130 132 c 0
 130 59 170 36 214 36 c 0
 259 36 313 66 328 119 c 1
 331 153 332 212 332 260 c 1xb480
387 723 m 0x09
 387 715 381 707 372 699 c 0
 342 669 282 611 249 580 c 1
 223 580 l 1
 221 583 l 1
 256 632 299 693 317 722 c 0
 326 737 333 746 352 746 c 0
 370 746 387 741 387 723 c 0x09
EndSplineSet
Substitution2: "Podtablica 'case' Warianty wersalikowe w +AUIA-aci+AUQA-skie w tablicy 10" Aacute
Substitution2: "Podtablica 'smcp' Tekstowe na kapitaliki w +AUIA-aci+AUQA-skie w tablicy 5" aacute.sc
AlternateSubs2: "Podtablica 'aalt' Dost+ARkA-p do wszystkich alternatyw w +AUIA-aci+AUQA-skie w tablicy 1" aacute.sc Aacute
EndChar

StartChar: acircumflex
Encoding: 226 226 193
Width: 497
GlyphClass: 1
Flags: MW
HStem: -8 44<192 211.5> -4 30<385 466.5> 260 21G 448 36<218.5 260> 578 170<143 267 249 373>
VStem: 45 85<95.5 163.5> 97 18<345 346> 114 288<584 588 584 588> 331 78
LayerCount: 2
Fore
SplineSet
478 6 m 1x7280
 460 0 433 -4 410 -4 c 0x7280
 360 -4 335 24 330 66 c 1
 297 27 245 -8 178 -8 c 0
 110 -8 45 31 45 122 c 0xb480
 45 205 97 244 185 261 c 0
 321 286 331 296 331 317 c 2
 331 330 l 2
 331 400 301 448 219 448 c 0
 162 448 124 410 115 345 c 1
 97 346 l 1
 95 378 89 411 85 430 c 1
 121 463 188 484 249 484 c 0
 393 484 413 406 413 305 c 0
 413 259 409 154 409 104 c 0
 409 56 423 26 463 26 c 0
 470 26 475 26 478 27 c 1
 478 6 l 1x7280
332 260 m 1xb480
 188 237 130 213 130 132 c 0
 130 59 170 36 214 36 c 0
 259 36 313 66 328 119 c 1
 331 153 332 212 332 260 c 1xb480
402 584 m 1x09
 373 578 l 1
 258 682 l 1
 143 578 l 1
 114 584 l 1
 114 588 l 1
 151 628 208 695 249 748 c 1
 267 748 l 1
 308 695 365 628 402 588 c 1
 402 584 l 1x09
EndSplineSet
Substitution2: "Podtablica 'case' Warianty wersalikowe w +AUIA-aci+AUQA-skie w tablicy 10" Acircumflex
Substitution2: "Podtablica 'smcp' Tekstowe na kapitaliki w +AUIA-aci+AUQA-skie w tablicy 5" acircumflex.sc
AlternateSubs2: "Podtablica 'aalt' Dost+ARkA-p do wszystkich alternatyw w +AUIA-aci+AUQA-skie w tablicy 1" acircumflex.sc Acircumflex
EndChar

StartChar: atilde
Encoding: 227 227 194
Width: 497
GlyphClass: 1
Flags: MW
HStem: -8 44<192 211.5> -4 30<385 466.5> 260 21G 448 36<218.5 260> 591 51<350 369.5> 653 51<178 199> 677 20G<416 416>
VStem: 45 85<95.5 163.5> 97 18<345 346> 108 331<604 690> 331 78
LayerCount: 2
Fore
SplineSet
478 6 m 1x70a0
 460 0 433 -4 410 -4 c 0x70a0
 360 -4 335 24 330 66 c 1
 297 27 245 -8 178 -8 c 0
 110 -8 45 31 45 122 c 0xb120
 45 205 97 244 185 261 c 0
 321 286 331 296 331 317 c 2
 331 330 l 2
 331 400 301 448 219 448 c 0
 162 448 124 410 115 345 c 1
 97 346 l 1
 95 378 89 411 85 430 c 1
 121 463 188 484 249 484 c 0
 393 484 413 406 413 305 c 0
 413 259 409 154 409 104 c 0
 409 56 423 26 463 26 c 0
 470 26 475 26 478 27 c 1
 478 6 l 1x70a0
332 260 m 1xb120
 188 237 130 213 130 132 c 0
 130 59 170 36 214 36 c 0
 259 36 313 66 328 119 c 1
 331 153 332 212 332 260 c 1xb120
439 690 m 1x0a40
 424 633 395 591 344 591 c 0x0a40
 314 591 289 603 256 625 c 0
 229 644 208 653 190 653 c 0
 162 653 144 639 130 596 c 1
 108 604 l 1
 125 660 149 704 207 704 c 0x0c40
 235 704 261 693 294 671 c 0
 319 654 341 642 359 642 c 0
 389 642 402 659 416 697 c 1
 439 690 l 1x0a40
EndSplineSet
Substitution2: "Podtablica 'case' Warianty wersalikowe w +AUIA-aci+AUQA-skie w tablicy 10" Atilde
Substitution2: "Podtablica 'smcp' Tekstowe na kapitaliki w +AUIA-aci+AUQA-skie w tablicy 5" atilde.sc
AlternateSubs2: "Podtablica 'aalt' Dost+ARkA-p do wszystkich alternatyw w +AUIA-aci+AUQA-skie w tablicy 1" atilde.sc Atilde
EndChar

StartChar: adieresis
Encoding: 228 228 195
Width: 497
GlyphClass: 1
Flags: MW
HStem: -8 44<192 211.5> -4 30<385 466.5> 260 21G 448 36<218.5 260>
VStem: 45 85<95.5 163.5> 97 18<345 346> 331 78
LayerCount: 2
Fore
SplineSet
414 647 m 0x76
 414 621 394 600 367 600 c 0
 341 600 320 620 320 647 c 0
 320 673 341 693 367 693 c 0
 394 693 414 673 414 647 c 0x76
239 647 m 0
 239 621 218 600 193 600 c 0
 166 600 145 620 145 647 c 0
 145 673 166 693 193 693 c 0
 218 693 239 673 239 647 c 0
478 6 m 1
 460 0 433 -4 410 -4 c 0
 360 -4 335 24 330 66 c 1
 297 27 245 -8 178 -8 c 0
 110 -8 45 31 45 122 c 0
 45 205 97 244 185 261 c 0
 321 286 331 296 331 317 c 2
 331 330 l 2
 331 400 301 448 219 448 c 0
 162 448 124 410 115 345 c 1xba
 97 346 l 1
 95 378 89 411 85 430 c 1x76
 121 463 188 484 249 484 c 0
 393 484 413 406 413 305 c 0
 413 259 409 154 409 104 c 0xba
 409 56 423 26 463 26 c 0
 470 26 475 26 478 27 c 1
 478 6 l 1
332 260 m 1
 188 237 130 213 130 132 c 0
 130 59 170 36 214 36 c 0
 259 36 313 66 328 119 c 1
 331 153 332 212 332 260 c 1
EndSplineSet
Substitution2: "Podtablica 'case' Warianty wersalikowe w +AUIA-aci+AUQA-skie w tablicy 10" Adieresis
Substitution2: "Podtablica 'smcp' Tekstowe na kapitaliki w +AUIA-aci+AUQA-skie w tablicy 5" adieresis.sc
AlternateSubs2: "Podtablica 'aalt' Dost+ARkA-p do wszystkich alternatyw w +AUIA-aci+AUQA-skie w tablicy 1" adieresis.sc Adieresis
EndChar

StartChar: amacron
Encoding: 257 257 196
Width: 497
GlyphClass: 1
Flags: MW
HStem: -8 44<192 211.5> -4 30<385 466.5> 260 21G 448 36<218.5 260> 609 41<121 398 121 398>
VStem: 45 85<95.5 163.5> 97 18<345 346> 121 277<609 650 609 650> 331 78
LayerCount: 2
Fore
SplineSet
478 6 m 1x7280
 460 0 433 -4 410 -4 c 0x7280
 360 -4 335 24 330 66 c 1
 297 27 245 -8 178 -8 c 0
 110 -8 45 31 45 122 c 0xb480
 45 205 97 244 185 261 c 0
 321 286 331 296 331 317 c 2
 331 330 l 2
 331 400 301 448 219 448 c 0
 162 448 124 410 115 345 c 1
 97 346 l 1
 95 378 89 411 85 430 c 1
 121 463 188 484 249 484 c 0
 393 484 413 406 413 305 c 0
 413 259 409 154 409 104 c 0
 409 56 423 26 463 26 c 0
 470 26 475 26 478 27 c 1
 478 6 l 1x7280
332 260 m 1xb480
 188 237 130 213 130 132 c 0
 130 59 170 36 214 36 c 0
 259 36 313 66 328 119 c 1
 331 153 332 212 332 260 c 1xb480
398 609 m 1x09
 121 609 l 1
 121 650 l 1
 398 650 l 1
 398 609 l 1x09
EndSplineSet
Substitution2: "Podtablica 'case' Warianty wersalikowe w +AUIA-aci+AUQA-skie w tablicy 10" Amacron
Substitution2: "Podtablica 'smcp' Tekstowe na kapitaliki w +AUIA-aci+AUQA-skie w tablicy 5" amacron.sc
AlternateSubs2: "Podtablica 'aalt' Dost+ARkA-p do wszystkich alternatyw w +AUIA-aci+AUQA-skie w tablicy 1" amacron.sc Amacron
EndChar

StartChar: abreve
Encoding: 259 259 197
Width: 497
GlyphClass: 1
Flags: MW
HStem: -8 44<192 211.5> -4 30<385 466.5> 260 21G 448 36<218.5 260> 585 55<223 297 223 305>
VStem: 45 85<95.5 163.5> 97 18<345 346> 121 277<711 713> 331 78
LayerCount: 2
Fore
SplineSet
478 6 m 1x7280
 460 0 433 -4 410 -4 c 0x7280
 360 -4 335 24 330 66 c 1
 297 27 245 -8 178 -8 c 0
 110 -8 45 31 45 122 c 0xb480
 45 205 97 244 185 261 c 0
 321 286 331 296 331 317 c 2
 331 330 l 2
 331 400 301 448 219 448 c 0
 162 448 124 410 115 345 c 1
 97 346 l 1
 95 378 89 411 85 430 c 1
 121 463 188 484 249 484 c 0
 393 484 413 406 413 305 c 0
 413 259 409 154 409 104 c 0
 409 56 423 26 463 26 c 0
 470 26 475 26 478 27 c 1
 478 6 l 1x7280
332 260 m 1xb480
 188 237 130 213 130 132 c 0
 130 59 170 36 214 36 c 0
 259 36 313 66 328 119 c 1
 331 153 332 212 332 260 c 1xb480
398 713 m 1x09
 389 643 350 585 260 585 c 0
 170 585 131 642 121 711 c 1
 141 720 l 1
 158 668 186 640 260 640 c 0
 334 640 362 668 378 720 c 1
 398 713 l 1x09
EndSplineSet
Substitution2: "Podtablica 'case' Warianty wersalikowe w +AUIA-aci+AUQA-skie w tablicy 10" Abreve
Substitution2: "Podtablica 'smcp' Tekstowe na kapitaliki w +AUIA-aci+AUQA-skie w tablicy 5" abreve.sc
AlternateSubs2: "Podtablica 'aalt' Dost+ARkA-p do wszystkich alternatyw w +AUIA-aci+AUQA-skie w tablicy 1" abreve.sc Abreve
EndChar

StartChar: aring
Encoding: 229 229 198
Width: 497
GlyphClass: 1
Flags: MW
HStem: -8 44<192 211.5> -4 30<385 466.5> 260 21G 448 36<218.5 260> 539 24<238.5 285 238.5 291.5> 735 21<238 285.5>
VStem: 45 85<95.5 163.5> 97 18<345 346> 148 43<627 674 627 682> 331 78 332 42<624 671>
LayerCount: 2
Fore
SplineSet
478 6 m 1x7140
 460 0 433 -4 410 -4 c 0x7140
 360 -4 335 24 330 66 c 1
 297 27 245 -8 178 -8 c 0
 110 -8 45 31 45 122 c 0xb240
 45 205 97 244 185 261 c 0
 321 286 331 296 331 317 c 2
 331 330 l 2
 331 400 301 448 219 448 c 0
 162 448 124 410 115 345 c 1
 97 346 l 1
 95 378 89 411 85 430 c 1
 121 463 188 484 249 484 c 0
 393 484 413 406 413 305 c 0
 413 259 409 154 409 104 c 0
 409 56 423 26 463 26 c 0
 470 26 475 26 478 27 c 1
 478 6 l 1x7140
332 260 m 1xb240
 188 237 130 213 130 132 c 0
 130 59 170 36 214 36 c 0
 259 36 313 66 328 119 c 1
 331 153 332 212 332 260 c 1xb240
262 539 m 0x0ca0
 189 539 148 576 148 645 c 0
 148 719 202 756 262 756 c 0
 330 756 374 717 374 650 c 0
 374 577 321 539 262 539 c 0x0ca0
262 735 m 0
 214 735 191 699 191 649 c 0
 191 605 215 563 262 563 c 0
 308 563 332 599 332 649 c 0
 332 693 309 735 262 735 c 0
EndSplineSet
Substitution2: "Podtablica 'case' Warianty wersalikowe w +AUIA-aci+AUQA-skie w tablicy 10" Aring
Substitution2: "Podtablica 'smcp' Tekstowe na kapitaliki w +AUIA-aci+AUQA-skie w tablicy 5" aring.sc
AlternateSubs2: "Podtablica 'aalt' Dost+ARkA-p do wszystkich alternatyw w +AUIA-aci+AUQA-skie w tablicy 1" aring.sc Aring
EndChar

